# Created by FreeCAD <http://www.freecadweb.org>
v -8.099987 4.600000 18.674999
v -8.766413 4.600000 23.799999
v -8.099987 4.600000 22.875000
v -8.099987 4.600000 18.275000
v 8.766413 4.600000 23.799999
v 8.100013 4.600000 22.875000
v -8.766413 4.600000 5.750000
v -8.099987 4.600000 11.275000
v -8.099987 4.600000 10.875000
v -8.099987 4.600000 6.675000
v -4.500000 4.600000 5.750000
v 3.500013 4.600000 11.275000
v 3.500013 4.600000 18.275000
v 8.766413 4.600000 5.750000
v 8.100013 4.600000 6.675000
v 4.500000 4.600000 5.750000
v 3.500000 4.600000 5.750000
v -3.500000 4.600000 5.750000
v -8.099987 -4.200000 10.875000
v -8.099987 -4.600000 11.275000
v -8.099987 -4.600000 10.875000
v -8.099987 -4.600000 6.675000
v -8.099987 4.200000 10.875000
v 3.500013 4.200000 10.875000
v -1.420162 -2.057460 6.675000
v -1.871277 -1.657807 6.675000
v -2.213640 -1.161808 6.675000
v -0.886512 -2.337541 6.675000
v -2.427355 -0.598289 6.675000
v -0.301342 -2.481772 6.675000
v -2.500000 -0.000000 6.675000
v 0.301342 -2.481772 6.675000
v -2.427355 0.598289 6.675000
v -2.213640 1.161808 6.675000
v -1.871277 1.657807 6.675000
v -1.420162 2.057460 6.675000
v -0.886512 2.337541 6.675000
v -0.301342 2.481772 6.675000
v 8.100013 -4.600000 6.675000
v 2.500000 0.000000 6.675000
v 2.427355 -0.598289 6.675000
v 2.213640 -1.161808 6.675000
v 1.871277 -1.657807 6.675000
v 1.420162 -2.057460 6.675000
v 0.886512 -2.337541 6.675000
v 0.301342 2.481772 6.675000
v 0.886512 2.337541 6.675000
v 1.420162 2.057460 6.675000
v 1.871277 1.657807 6.675000
v 2.213640 1.161808 6.675000
v 2.427355 0.598289 6.675000
v 3.900013 4.200000 11.275000
v 3.900013 4.200000 18.275000
v 8.100013 -1.420162 12.717541
v 8.100013 -1.871277 13.117193
v 8.100013 -2.213640 13.613192
v 8.100013 -0.886512 12.437459
v 8.100013 -2.427355 14.176711
v 8.100013 -0.301342 12.293228
v 8.100013 -2.500000 14.775000
v 8.100013 0.301342 12.293228
v 8.100013 0.886512 12.437459
v 8.100013 1.420162 12.717541
v 8.100013 1.871277 13.117193
v 8.100013 2.213640 13.613192
v 8.100013 2.427355 14.176711
v 8.100013 -4.600000 22.875000
v 8.100013 0.301342 17.256773
v 8.100013 -0.301342 17.256773
v 8.100013 -0.886512 17.112541
v 8.100013 -1.420162 16.832460
v 8.100013 -1.871277 16.432806
v 8.100013 -2.213640 15.936808
v 8.100013 -2.427355 15.373289
v 8.100013 2.427355 15.373289
v 8.100013 2.213640 15.936808
v 8.100013 1.871277 16.432806
v 8.100013 1.420162 16.832460
v 8.100013 0.886512 17.112541
v 8.100013 2.500000 14.775000
v -8.099987 4.200000 18.674999
v 3.500013 4.200000 18.674999
v 1.420162 -2.057460 22.875000
v 1.871277 -1.657807 22.875000
v 2.213640 -1.161808 22.875000
v 0.886512 -2.337541 22.875000
v 2.427355 -0.598289 22.875000
v 0.301342 -2.481772 22.875000
v 2.500000 0.000000 22.875000
v 2.427355 0.598289 22.875000
v 2.213640 1.161808 22.875000
v 1.871277 1.657807 22.875000
v 1.420162 2.057460 22.875000
v 0.886512 2.337541 22.875000
v 0.301342 2.481772 22.875000
v -8.099987 -4.600000 22.875000
v -2.500000 0.000000 22.875000
v -2.427355 -0.598289 22.875000
v -2.213640 -1.161808 22.875000
v -1.871277 -1.657807 22.875000
v -1.420162 -2.057460 22.875000
v -0.886512 -2.337541 22.875000
v -0.301342 -2.481772 22.875000
v -0.301342 2.481772 22.875000
v -0.886512 2.337541 22.875000
v -1.420162 2.057460 22.875000
v -1.871277 1.657807 22.875000
v -2.213640 1.161808 22.875000
v -2.427355 0.598289 22.875000
v -8.099987 -4.200000 18.674999
v -8.099987 -4.600000 18.674999
v -8.099987 -4.600000 18.275000
v -9.579144 2.500000 14.775000
v -9.390692 3.134471 23.799999
v -9.597029 2.430441 15.360623
v -9.648005 2.219462 15.925647
v -9.771844 1.587790 23.799999
v -9.715402 1.902884 16.396429
v -9.624823 2.317926 13.838400
v -9.390692 3.134471 5.750000
v -9.666532 2.137329 13.478148
v -9.595592 2.436104 14.213397
v -9.583293 2.484047 14.493025
v -9.784789 1.505957 16.770517
v -9.849948 0.994247 17.068790
v -9.900000 0.000000 23.799999
v -9.889603 0.453612 17.233503
v -9.828779 1.185369 12.573887
v -9.771844 1.587790 5.750000
v -9.873274 0.726950 12.383025
v -9.773639 1.576703 12.834895
v -9.717565 1.891807 13.140659
v -9.899713 -0.075441 17.273861
v -9.882081 -0.595381 17.203070
v -9.771844 -1.587790 23.799999
v -9.842091 -1.069226 17.034813
v -9.788793 -1.479710 16.790058
v -9.894977 -0.315340 12.294968
v -9.900000 0.000000 5.750000
v -9.866227 -0.817042 12.412281
v -9.897614 0.217367 12.284468
v -9.732183 -1.815107 16.494123
v -9.679367 -2.078428 16.164295
v -9.390692 -3.134471 23.799999
v -9.634809 -2.276061 15.809188
v -9.602018 -2.410651 15.437391
v -9.583255 -2.484196 15.055656
v -9.579724 -2.497776 14.669573
v -9.771844 -1.587790 5.750000
v -9.707438 -1.943101 13.201991
v -9.657852 -2.176212 13.544512
v -9.762906 -1.641851 12.889708
v -9.818945 -1.264244 12.618223
v -8.766413 -4.600000 23.799999
v -9.390692 -3.134471 5.750000
v -9.591659 -2.451549 14.285197
v -9.618288 -2.344897 13.908134
v -8.766413 -4.600000 5.750000
v -4.500000 -4.600000 5.750000
v -3.500000 4.600000 2.750000
v -4.500000 4.600000 2.750000
v -1.871277 -1.657807 5.750000
v -1.420162 -2.057460 5.750000
v -3.500000 -4.600000 5.750000
v -2.213640 -1.161808 5.750000
v -0.886512 -2.337541 5.750000
v -2.427355 -0.598289 5.750000
v -0.301342 -2.481772 5.750000
v -2.500000 -0.000000 5.750000
v 0.886512 -2.337541 5.750000
v 3.500000 -4.600000 5.750000
v 0.301342 -2.481772 5.750000
v 1.420162 -2.057460 5.750000
v 1.871277 -1.657807 5.750000
v 2.213640 -1.161808 5.750000
v -2.427355 0.598289 5.750000
v -2.213640 1.161808 5.750000
v -1.871277 1.657807 5.750000
v -1.420162 2.057460 5.750000
v -0.886512 2.337541 5.750000
v 2.427355 -0.598289 5.750000
v -0.301342 2.481772 5.750000
v 2.500000 0.000000 5.750000
v 0.301342 2.481772 5.750000
v 0.886512 2.337541 5.750000
v 1.420162 2.057460 5.750000
v 1.871277 1.657807 5.750000
v 2.213640 1.161808 5.750000
v 2.427355 0.598289 5.750000
v 4.500000 4.600000 2.750000
v 3.500000 4.600000 2.750000
v 4.500000 -4.600000 5.750000
v 9.390692 -3.134471 5.750000
v 8.766413 -4.600000 5.750000
v 9.771844 -1.587790 5.750000
v 9.900000 0.000000 5.750000
v 9.771844 1.587790 5.750000
v 9.390692 3.134471 5.750000
v -1.420162 -2.057460 23.799999
v -1.871277 -1.657807 23.799999
v -2.213640 -1.161808 23.799999
v -0.886512 -2.337541 23.799999
v -2.427355 -0.598289 23.799999
v -0.301342 -2.481772 23.799999
v -2.500000 0.000000 23.799999
v 0.301342 -2.481772 23.799999
v -2.427355 0.598289 23.799999
v -2.213640 1.161808 23.799999
v -1.871277 1.657807 23.799999
v -1.420162 2.057460 23.799999
v -0.886512 2.337541 23.799999
v -0.301342 2.481772 23.799999
v 8.766413 -4.600000 23.799999
v 0.886512 -2.337541 23.799999
v 1.420162 -2.057460 23.799999
v 1.871277 -1.657807 23.799999
v 2.213640 -1.161808 23.799999
v 9.390692 -3.134471 23.799999
v 2.427355 -0.598289 23.799999
v 9.771844 -1.587790 23.799999
v 2.500000 0.000000 23.799999
v 9.900000 0.000000 23.799999
v 9.771844 1.587790 23.799999
v 2.427355 0.598289 23.799999
v 9.390692 3.134471 23.799999
v 2.213640 1.161808 23.799999
v 1.871277 1.657807 23.799999
v 1.420162 2.057460 23.799999
v 0.886512 2.337541 23.799999
v 0.301342 2.481772 23.799999
v 9.579247 -2.499609 14.819239
v 9.590437 -2.456322 15.240274
v 9.619294 -2.340763 15.652968
v 9.663532 -2.150848 16.049305
v 9.719199 -1.883395 16.419027
v 9.586586 -2.471310 14.397338
v 9.611888 -2.370994 13.982291
v 9.653174 -2.196868 13.581781
v 9.780724 -1.532138 16.750488
v 9.839759 -1.090482 17.024633
v 9.883448 -0.572241 17.208628
v 9.900000 0.000000 17.275000
v 9.706869 -1.945940 13.205504
v 9.767670 -1.613266 12.865190
v 9.828275 -1.189544 12.576140
v 9.876249 -0.685349 12.370775
v 9.886450 0.517789 17.220791
v 9.849948 0.994247 17.068790
v 9.784789 1.505957 16.770517
v 9.893791 -0.350569 12.299702
v 9.900000 0.000000 12.275000
v 9.883448 0.572241 12.341373
v 9.715402 1.902884 16.396429
v 9.648005 2.219462 15.925647
v 9.597029 2.430441 15.360623
v 9.579144 2.500000 14.775000
v 9.839759 1.090482 12.525367
v 9.780724 1.532138 12.799512
v 9.719199 1.883393 13.130971
v 9.663535 2.150833 13.500669
v 9.619300 2.340742 13.896976
v 9.590441 2.456308 14.309649
v 9.581986 2.489085 14.541638
v 3.500013 -4.200000 10.875000
v 3.500013 -4.600000 11.275000
v 3.500013 -4.600000 18.275000
v 3.900013 -1.420162 16.832460
v 3.900013 -4.200000 18.275000
v 3.900013 -1.871277 16.432806
v 3.900013 -2.213640 15.936808
v 3.900013 -0.886512 17.112541
v 3.900013 -2.427355 15.373289
v 3.900013 -0.301342 17.256773
v 3.900013 -2.500000 14.775000
v 3.900013 0.301342 17.256773
v 3.900013 -4.200000 11.275000
v 3.900013 -2.427355 14.176711
v 3.900013 -2.213640 13.613192
v 3.900013 -1.871277 13.117193
v 3.900013 -1.420162 12.717541
v 3.900013 1.420162 16.832460
v 3.900013 1.871277 16.432806
v 3.900013 0.886512 17.112541
v 3.900013 2.213640 15.936808
v 3.900013 -0.886512 12.437459
v 3.900013 2.427355 15.373289
v 3.900013 -0.301342 12.293228
v 3.900013 2.500000 14.775000
v 3.900013 0.301342 12.293228
v 3.900013 0.886512 12.437459
v 3.900013 1.420162 12.717541
v 3.900013 1.871277 13.117193
v 3.900013 2.213640 13.613192
v 3.900013 2.427355 14.176711
v 3.500013 -4.200000 18.674999
v -4.500000 -4.600000 2.750000
v -3.500000 -4.600000 2.750000
v 3.500000 -4.600000 2.750000
v 4.500000 -4.600000 2.750000
vn 0.000000 1.000000 -0.000000
vn 0.000000 1.000000 -0.000000
vn 0.000000 1.000000 0.000000
vn 0.000000 1.000000 -0.000000
vn 0.000000 1.000000 0.000000
vn 0.000000 1.000000 0.000000
vn 0.000000 1.000000 0.000000
vn 0.000000 1.000000 -0.000000
vn 0.000000 1.000000 0.000000
vn 0.000000 1.000000 0.000000
vn 0.000000 1.000000 -0.000000
vn 0.000000 1.000000 0.000000
vn 0.000000 1.000000 0.000000
vn 0.000000 1.000000 0.000000
vn -0.000000 1.000000 0.000000
vn 0.000000 1.000000 0.000000
vn 0.000000 1.000000 0.000000
vn 0.000000 1.000000 0.000000
vn 1.000000 0.000000 0.000000
vn 1.000000 0.000000 0.000000
vn 1.000000 0.000000 0.000000
vn 1.000000 0.000000 -0.000000
vn 1.000000 0.000000 0.000000
vn 1.000000 0.000000 -0.000000
vn 0.000000 0.707106 -0.707107
vn 0.000000 0.707106 -0.707107
vn 0.000000 0.000000 1.000000
vn 0.000000 0.000000 1.000000
vn 0.000000 0.000000 1.000000
vn 0.000000 0.000000 1.000000
vn 0.000000 0.000000 1.000000
vn 0.000000 0.000000 1.000000
vn 0.000000 0.000000 1.000000
vn 0.000000 0.000000 1.000000
vn 0.000000 0.000000 1.000000
vn 0.000000 0.000000 1.000000
vn 0.000000 0.000000 1.000000
vn 0.000000 0.000000 1.000000
vn 0.000000 0.000000 1.000000
vn 0.000000 0.000000 1.000000
vn 0.000000 0.000000 1.000000
vn 0.000000 0.000000 1.000000
vn 0.000000 0.000000 1.000000
vn 0.000000 0.000000 1.000000
vn 0.000000 0.000000 1.000000
vn 0.000000 0.000000 1.000000
vn 0.000000 0.000000 1.000000
vn 0.000000 0.000000 1.000000
vn 0.000000 0.000000 1.000000
vn 0.000000 0.000000 1.000000
vn 0.000000 0.000000 1.000000
vn 0.000000 0.000000 1.000000
vn 0.000000 0.000000 1.000000
vn 0.000000 0.000000 1.000000
vn 0.000000 0.000000 1.000000
vn 0.000000 0.000000 1.000000
vn 0.707107 0.707107 0.000000
vn 0.707107 0.707107 0.000000
vn -1.000000 -0.000000 0.000000
vn -1.000000 0.000000 -0.000000
vn -1.000000 -0.000000 0.000000
vn -1.000000 0.000000 -0.000000
vn -1.000000 -0.000000 0.000000
vn -1.000000 0.000000 -0.000000
vn -1.000000 0.000000 -0.000000
vn -1.000000 -0.000000 0.000000
vn -1.000000 0.000000 -0.000000
vn -1.000000 0.000000 -0.000000
vn -1.000000 0.000000 -0.000000
vn -1.000000 0.000000 -0.000000
vn -1.000000 0.000000 -0.000000
vn -1.000000 0.000000 0.000000
vn -1.000000 0.000000 0.000000
vn -1.000000 0.000000 0.000000
vn -1.000000 0.000000 0.000000
vn -1.000000 0.000000 0.000000
vn -1.000000 0.000000 0.000000
vn -1.000000 0.000000 0.000000
vn -1.000000 0.000000 0.000000
vn -1.000000 0.000000 0.000000
vn -1.000000 0.000000 0.000000
vn -1.000000 0.000000 0.000000
vn -1.000000 0.000000 0.000000
vn -1.000000 0.000000 0.000000
vn -1.000000 -0.000000 0.000000
vn -1.000000 0.000000 -0.000000
vn -1.000000 0.000000 -0.000000
vn -1.000000 0.000000 0.000000
vn 0.000000 0.707106 0.707107
vn -0.000000 0.707106 0.707107
vn 0.000000 0.000000 -1.000000
vn 0.000000 -0.000000 -1.000000
vn 0.000000 0.000000 -1.000000
vn 0.000000 -0.000000 -1.000000
vn 0.000000 0.000000 -1.000000
vn 0.000000 0.000000 -1.000000
vn 0.000000 -0.000000 -1.000000
vn 0.000000 0.000000 -1.000000
vn 0.000000 0.000000 -1.000000
vn 0.000000 0.000000 -1.000000
vn 0.000000 0.000000 -1.000000
vn 0.000000 0.000000 -1.000000
vn 0.000000 0.000000 -1.000000
vn 0.000000 0.000000 -1.000000
vn 0.000000 0.000000 -1.000000
vn 0.000000 0.000000 -1.000000
vn 0.000000 0.000000 -1.000000
vn 0.000000 0.000000 -1.000000
vn 0.000000 0.000000 -1.000000
vn 0.000000 0.000000 -1.000000
vn 0.000000 0.000000 -1.000000
vn 0.000000 0.000000 -1.000000
vn 0.000000 0.000000 -1.000000
vn 0.000000 0.000000 -1.000000
vn 0.000000 0.000000 -1.000000
vn 0.000000 0.000000 -1.000000
vn 0.000000 0.000000 -1.000000
vn 0.000000 0.000000 -1.000000
vn 0.000000 0.000000 -1.000000
vn 0.000000 0.000000 -1.000000
vn 1.000000 0.000000 0.000000
vn 1.000000 0.000000 0.000000
vn 1.000000 0.000000 -0.000000
vn 1.000000 0.000000 0.000000
vn 1.000000 0.000000 -0.000000
vn 1.000000 0.000000 -0.000000
vn -0.932594 0.360928 0.000000
vn -0.919976 0.391887 -0.008340
vn -0.964953 0.262419 0.001701
vn -0.970945 0.239272 0.003924
vn -0.969905 0.243459 0.003404
vn -0.977623 0.210359 0.001500
vn -0.972311 0.233647 -0.004558
vn -0.968546 0.248818 -0.002917
vn -0.965786 0.259331 -0.001983
vn -0.962829 0.270108 -0.001116
vn -0.919976 0.391887 0.008340
vn -0.985092 0.172028 -0.000189
vn -0.991964 0.126518 0.000354
vn -0.996749 0.080451 0.004472
vn -0.997235 0.074227 0.003549
vn -0.995217 0.097656 -0.002545
vn -0.990215 0.139547 -0.000032
vn -0.984537 0.175179 0.000025
vn -0.978729 0.205153 -0.001251
vn -0.970945 0.239272 -0.003783
vn -0.999818 0.019086 -0.000265
vn -0.999424 -0.033939 0.000348
vn -0.996748 -0.080451 0.004553
vn -0.996337 -0.085435 0.003797
vn -0.991644 -0.129001 0.000409
vn -0.998333 -0.057679 -0.002013
vn -0.999988 -0.004940 0.000529
vn -0.998849 0.047947 -0.001230
vn -0.996747 0.080451 -0.004801
vn -0.986079 -0.166275 -0.000179
vn -0.980271 -0.197658 0.000829
vn -0.970946 -0.239272 0.003615
vn -0.973470 -0.228755 0.005165
vn -0.969458 -0.245237 0.003272
vn -0.966262 -0.257553 0.002126
vn -0.961826 -0.273660 0.000830
vn -0.996747 -0.080451 -0.004814
vn -0.977641 -0.210276 -0.001577
vn -0.983442 -0.181222 -0.000141
vn -0.989180 -0.146708 0.000127
vn -0.994367 -0.105975 -0.001827
vn -0.919976 -0.391887 -0.008281
vn -0.970945 -0.239272 -0.003863
vn -0.964796 -0.262996 -0.001674
vn -0.967933 -0.251196 -0.002692
vn -0.971531 -0.236874 -0.004178
vn -0.919975 -0.391886 0.008477
vn -0.932636 -0.360820 0.000000
vn 0.000000 0.000000 -1.000000
vn 0.000000 0.000000 -1.000000
vn 0.000000 0.000000 -1.000000
vn 0.000000 -0.000000 -1.000000
vn 0.000000 -0.000000 -1.000000
vn 0.000000 -0.000000 -1.000000
vn 0.000000 0.000000 -1.000000
vn -0.000000 1.000000 0.000000
vn 0.000000 1.000000 0.000000
vn 0.000000 -0.000000 -1.000000
vn 0.000000 0.000000 -1.000000
vn 0.000000 -0.000000 -1.000000
vn 0.000000 0.000000 -1.000000
vn 0.000000 -0.000000 -1.000000
vn 0.000000 0.000000 -1.000000
vn 0.000000 -0.000000 -1.000000
vn -0.000000 -0.000000 -1.000000
vn 0.000000 -0.000000 -1.000000
vn 0.000000 0.000000 -1.000000
vn 0.000000 0.000000 -1.000000
vn 0.000000 0.000000 -1.000000
vn 0.000000 0.000000 -1.000000
vn 0.000000 0.000000 -1.000000
vn 0.000000 0.000000 -1.000000
vn 0.000000 0.000000 -1.000000
vn 0.000000 0.000000 -1.000000
vn 0.000000 0.000000 -1.000000
vn 0.000000 0.000000 -1.000000
vn 0.000000 0.000000 -1.000000
vn 0.000000 0.000000 -1.000000
vn 0.000000 0.000000 -1.000000
vn 0.000000 0.000000 -1.000000
vn 0.000000 0.000000 -1.000000
vn 0.000000 0.000000 -1.000000
vn 0.000000 0.000000 -1.000000
vn 0.000000 0.000000 -1.000000
vn 0.000000 0.000000 -1.000000
vn 0.000000 0.000000 -1.000000
vn 0.000000 0.000000 -1.000000
vn -0.000000 1.000000 0.000000
vn 0.000000 1.000000 0.000000
vn 0.000000 0.000000 -1.000000
vn 0.000000 0.000000 -1.000000
vn 0.000000 0.000000 -1.000000
vn 0.000000 0.000000 -1.000000
vn 0.000000 0.000000 -1.000000
vn 0.000000 0.000000 -1.000000
vn 0.000000 0.000000 -1.000000
vn 0.000000 0.000000 1.000000
vn 0.000000 0.000000 1.000000
vn 0.000000 0.000000 1.000000
vn 0.000000 0.000000 1.000000
vn 0.000000 0.000000 1.000000
vn 0.000000 0.000000 1.000000
vn 0.000000 0.000000 1.000000
vn 0.000000 0.000000 1.000000
vn 0.000000 0.000000 1.000000
vn 0.000000 0.000000 1.000000
vn 0.000000 0.000000 1.000000
vn 0.000000 0.000000 1.000000
vn 0.000000 0.000000 1.000000
vn 0.000000 0.000000 1.000000
vn 0.000000 0.000000 1.000000
vn 0.000000 0.000000 1.000000
vn 0.000000 0.000000 1.000000
vn 0.000000 0.000000 1.000000
vn 0.000000 0.000000 1.000000
vn 0.000000 0.000000 1.000000
vn 0.000000 0.000000 1.000000
vn 0.000000 0.000000 1.000000
vn 0.000000 0.000000 1.000000
vn 0.000000 0.000000 1.000000
vn 0.000000 0.000000 1.000000
vn 0.000000 0.000000 1.000000
vn 0.000000 0.000000 1.000000
vn 0.000000 0.000000 1.000000
vn 0.000000 0.000000 1.000000
vn 0.000000 0.000000 1.000000
vn 0.000000 0.000000 1.000000
vn 0.000000 0.000000 1.000000
vn 0.000000 0.000000 1.000000
vn 0.000000 0.000000 1.000000
vn 0.000000 0.000000 1.000000
vn 0.000000 0.000000 1.000000
vn 0.000000 0.000000 1.000000
vn 0.000000 0.000000 1.000000
vn 0.000000 0.000000 1.000000
vn 0.000000 0.000000 1.000000
vn 0.932601 -0.360909 0.000000
vn 0.919975 -0.391887 -0.008388
vn 0.964401 -0.264439 0.001554
vn 0.967912 -0.251273 0.002679
vn 0.970945 -0.239272 0.003814
vn 0.971881 -0.235431 0.004334
vn 0.978673 -0.205422 0.001247
vn 0.963317 -0.268361 -0.001242
vn 0.967199 -0.254008 -0.002431
vn 0.970962 -0.239203 -0.003905
vn 0.919976 -0.391887 0.008306
vn 0.985024 -0.172418 -0.000120
vn 0.991168 -0.132613 0.000202
vn 0.996749 -0.080451 0.004481
vn 0.996347 -0.085317 0.003725
vn 0.999582 -0.028913 0.000000
vn 0.977353 -0.211609 -0.001648
vn 0.983694 -0.179851 -0.000067
vn 0.989933 -0.141540 0.000074
vn 0.995398 -0.095788 -0.002640
vn 0.970945 -0.239272 -0.003896
vn 0.999658 0.026160 -0.000000
vn 0.996971 0.077674 0.004060
vn 0.996749 0.080451 0.004472
vn 0.991964 0.126518 0.000354
vn 0.998607 -0.052723 -0.001875
vn 0.999843 -0.017707 0.000000
vn 0.999582 0.028913 0.000000
vn 0.996747 -0.080451 -0.004752
vn 0.985092 0.172028 -0.000189
vn 0.970945 0.239272 0.003924
vn 0.977623 0.210359 0.001500
vn 0.969905 0.243459 0.003404
vn 0.964953 0.262419 0.001701
vn 0.996749 0.080451 -0.004481
vn 0.996347 0.085317 -0.003725
vn 0.991168 0.132613 -0.000202
vn 0.985024 0.172419 0.000120
vn 0.978673 0.205421 -0.001247
vn 0.919976 0.391887 -0.008340
vn 0.970945 0.239272 -0.003814
vn 0.971883 0.235425 -0.004335
vn 0.967912 0.251276 -0.002679
vn 0.965163 0.261644 -0.001794
vn 0.962367 0.271751 -0.000991
vn 0.932594 0.360928 0.000000
vn 0.919976 0.391887 0.008340
vn 0.000000 0.000000 -1.000000
vn 0.000000 0.000000 -1.000000
vn 0.000000 -0.707106 -0.707107
vn 0.000000 -0.707106 -0.707107
vn 0.000000 -1.000000 0.000000
vn 0.000000 -1.000000 0.000000
vn 0.000000 -1.000000 0.000000
vn 0.000000 -1.000000 0.000000
vn 0.000000 -1.000000 -0.000000
vn 0.000000 -1.000000 -0.000000
vn 0.000000 -1.000000 0.000000
vn 0.000000 -1.000000 0.000000
vn 0.000000 -1.000000 0.000000
vn 0.000000 -1.000000 0.000000
vn 0.000000 -1.000000 0.000000
vn 0.000000 -1.000000 0.000000
vn 0.000000 -1.000000 0.000000
vn 0.000000 -1.000000 -0.000000
vn -0.000000 -1.000000 0.000000
vn 0.000000 -1.000000 0.000000
vn 0.000000 -1.000000 0.000000
vn 0.000000 -1.000000 0.000000
vn 0.577350 0.577350 -0.577351
vn -0.992709 -0.120537 0.000000
vn -0.992709 -0.120537 0.000000
vn -0.935016 -0.354605 0.000000
vn -0.935016 -0.354605 0.000000
vn -0.822984 -0.568065 0.000000
vn -0.822984 -0.568065 0.000000
vn -0.663123 -0.748511 0.000000
vn -0.663123 -0.748511 0.000000
vn -0.464723 -0.885456 0.000000
vn -0.464723 -0.885456 0.000000
vn -0.239316 -0.970942 0.000000
vn -0.239316 -0.970942 0.000000
vn 0.000000 -1.000000 0.000000
vn 0.000000 -1.000000 0.000000
vn 0.239316 -0.970942 0.000000
vn 0.239316 -0.970942 0.000000
vn 0.464723 -0.885456 0.000000
vn 0.464723 -0.885456 0.000000
vn 0.663123 -0.748511 0.000000
vn 0.663123 -0.748511 0.000000
vn 0.822984 -0.568065 0.000000
vn 0.822984 -0.568065 0.000000
vn 0.935016 -0.354605 0.000000
vn 0.992709 -0.120537 0.000000
vn 0.935016 -0.354605 0.000000
vn 0.992709 -0.120537 0.000000
vn 0.992709 0.120537 -0.000000
vn 0.992709 0.120537 -0.000000
vn 0.935016 0.354605 0.000000
vn 0.935016 0.354605 -0.000000
vn 0.822984 0.568065 0.000000
vn 0.822984 0.568065 -0.000000
vn 0.663123 0.748511 0.000000
vn 0.663123 0.748511 -0.000000
vn 0.464723 0.885456 0.000000
vn 0.464723 0.885456 -0.000000
vn 0.239316 0.970942 -0.000000
vn 0.239316 0.970942 0.000000
vn 0.000000 1.000000 -0.000000
vn 0.000000 1.000000 0.000000
vn -0.239316 0.970942 0.000000
vn -0.239316 0.970942 0.000000
vn -0.464723 0.885456 0.000000
vn -0.464723 0.885456 0.000000
vn -0.663123 0.748511 0.000000
vn -0.663123 0.748511 0.000000
vn -0.822984 0.568065 0.000000
vn -0.822984 0.568065 0.000000
vn -0.935016 0.354605 0.000000
vn -0.935016 0.354605 0.000000
vn -0.992709 0.120537 0.000000
vn -0.992709 0.120537 0.000000
vn 0.577350 0.577350 0.577351
vn 1.000000 0.000000 0.000000
vn 1.000000 0.000000 -0.000000
vn 1.000000 0.000000 0.000000
vn 1.000000 0.000000 -0.000000
vn 1.000000 0.000000 0.000000
vn 1.000000 0.000000 -0.000000
vn 1.000000 0.000000 0.000000
vn 1.000000 0.000000 0.000000
vn 1.000000 0.000000 0.000000
vn 1.000000 0.000000 0.000000
vn 1.000000 0.000000 0.000000
vn 1.000000 0.000000 0.000000
vn 1.000000 0.000000 0.000000
vn 1.000000 0.000000 0.000000
vn 1.000000 0.000000 0.000000
vn 1.000000 0.000000 0.000000
vn 1.000000 0.000000 -0.000000
vn 1.000000 0.000000 0.000000
vn 1.000000 0.000000 -0.000000
vn 1.000000 0.000000 0.000000
vn 1.000000 0.000000 -0.000000
vn 1.000000 0.000000 0.000000
vn 1.000000 0.000000 0.000000
vn 1.000000 0.000000 0.000000
vn 1.000000 0.000000 0.000000
vn 1.000000 0.000000 0.000000
vn 1.000000 0.000000 0.000000
vn 1.000000 0.000000 0.000000
vn 1.000000 0.000000 0.000000
vn 1.000000 0.000000 -0.000000
vn 0.000000 -0.992709 -0.120537
vn -0.001072 -0.935016 -0.354605
vn 0.001049 -0.993015 -0.117980
vn -0.001000 -0.822983 -0.568065
vn 0.001001 -0.936791 -0.349887
vn 0.003657 -0.829580 -0.558376
vn 0.006249 -0.663111 -0.748495
vn -0.002957 -0.686132 -0.727471
vn 0.006473 -0.464713 -0.885438
vn -0.006077 -0.504156 -0.863591
vn 0.009439 -0.239305 -0.970899
vn -0.005083 -0.304280 -0.952569
vn 0.010125 0.000000 -0.999949
vn -0.007393 -0.104312 -0.994517
vn 0.010140 0.239304 -0.970892
vn -0.009274 0.115473 -0.993267
vn 0.009743 0.464701 -0.885414
vn -0.008307 0.335186 -0.942115
vn -0.006243 0.527974 -0.849238
vn 0.007673 0.663104 -0.748488
vn -0.001051 0.686412 -0.727212
vn 0.001075 0.810153 -0.586218
vn 0.007821 0.822959 -0.568048
vn -0.005168 0.902025 -0.431652
vn 0.011986 0.934949 -0.354580
vn -0.005316 0.963044 -0.269293
vn 0.008537 0.992673 -0.120532
vn 0.002797 0.994745 -0.102343
vn 0.011462 0.992644 0.120529
vn -0.002264 0.997758 0.066885
vn 0.010744 0.934962 0.354584
vn -0.006072 0.972078 0.234578
vn 0.002601 0.822981 0.568063
vn -0.001844 0.917145 0.398549
vn 0.008097 0.831411 0.555599
vn 0.010514 0.663086 0.748470
vn -0.005144 0.715538 0.698555
vn 0.010432 0.464699 0.885407
vn -0.007752 0.564274 0.825552
vn 0.009348 0.239304 0.970900
vn -0.008037 0.377865 0.925826
vn 0.002166 0.207562 0.978219
vn 0.010127 -0.000000 0.999949
vn -0.001670 0.070318 0.997523
vn 0.010139 -0.239302 0.970892
vn -0.009273 -0.115477 0.993267
vn 0.009743 -0.464702 0.885413
vn -0.008307 -0.335184 0.942116
vn 0.007674 -0.663103 0.748489
vn -0.006243 -0.527974 0.849238
vn -0.001052 -0.686412 0.727212
vn 0.007822 -0.822959 0.568048
vn 0.001074 -0.810149 0.586223
vn 0.011986 -0.934949 0.354579
vn -0.005168 -0.902017 0.431669
vn -0.005314 -0.963037 0.269319
vn 0.011668 -0.992641 0.120529
vn 0.006735 -0.990110 0.140135
vn 0.000000 -0.998908 0.046723
vn 0.000000 0.000000 1.000000
vn 0.000000 0.000000 1.000000
vn -0.992709 -0.120537 -0.000000
vn -0.992709 -0.120537 0.000000
vn -0.935016 -0.354605 0.000000
vn -0.935016 -0.354605 -0.000000
vn -0.822984 -0.568065 0.000000
vn -0.822984 -0.568065 -0.000000
vn -0.663123 -0.748511 0.000000
vn -0.663123 -0.748511 -0.000000
vn -0.464723 -0.885456 0.000000
vn -0.464723 -0.885456 -0.000000
vn -0.239316 -0.970942 0.000000
vn -0.239316 -0.970942 -0.000000
vn 0.000000 -1.000000 0.000000
vn 0.239316 -0.970942 0.000000
vn -0.000000 -1.000000 -0.000000
vn 0.239316 -0.970942 0.000000
vn 0.464723 -0.885456 0.000000
vn 0.464723 -0.885456 0.000000
vn 0.663123 -0.748511 0.000000
vn 0.663123 -0.748511 0.000000
vn 0.822984 -0.568065 0.000000
vn 0.822984 -0.568065 0.000000
vn 0.935016 -0.354605 0.000000
vn 0.935016 -0.354605 0.000000
vn 0.992709 -0.120537 0.000000
vn 0.992709 -0.120537 0.000000
vn 0.992709 0.120537 -0.000000
vn 0.992709 0.120537 0.000000
vn 0.935016 0.354605 0.000000
vn 0.935016 0.354605 0.000000
vn 0.822984 0.568065 0.000000
vn 0.822984 0.568065 0.000000
vn 0.663123 0.748511 0.000000
vn 0.663123 0.748511 0.000000
vn 0.464723 0.885456 0.000000
vn 0.464723 0.885456 0.000000
vn 0.239316 0.970942 0.000000
vn 0.239316 0.970942 0.000000
vn 0.000000 1.000000 0.000000
vn -0.000000 1.000000 0.000000
vn -0.239316 0.970942 0.000000
vn -0.239316 0.970942 0.000000
vn -0.464723 0.885456 0.000000
vn -0.464723 0.885456 0.000000
vn -0.663123 0.748511 0.000000
vn -0.663123 0.748511 0.000000
vn -0.822984 0.568065 0.000000
vn -0.935016 0.354605 0.000000
vn -0.822984 0.568065 0.000000
vn -0.935016 0.354605 0.000000
vn -0.992709 0.120537 0.000000
vn -0.992709 0.120537 0.000000
vn 0.000000 -0.707106 0.707107
vn 0.000000 -0.707106 0.707107
vn 0.000000 -0.993020 -0.117948
vn 0.000114 -0.936825 -0.349799
vn -0.000114 -0.992709 -0.120537
vn 0.000103 -0.829835 -0.558009
vn -0.000110 -0.935016 -0.354605
vn 0.000352 -0.685894 -0.727702
vn -0.000393 -0.822984 -0.568065
vn 0.000753 -0.503659 -0.863902
vn -0.000769 -0.663124 -0.748509
vn 0.000760 -0.291491 -0.956573
vn -0.000824 -0.464723 -0.885456
vn 0.000843 -0.076078 -0.997102
vn -0.001004 -0.239316 -0.970941
vn 0.000982 0.134941 -0.990853
vn -0.001238 -0.000000 -0.999999
vn 0.000880 0.334684 -0.942330
vn -0.001322 0.239316 -0.970941
vn -0.001171 0.464723 -0.885455
vn 0.000432 0.512172 -0.858883
vn -0.000555 0.661565 -0.749888
vn -0.000634 0.663124 -0.748509
vn 0.000414 0.781527 -0.623872
vn -0.001322 0.822983 -0.568064
vn 0.000555 0.873819 -0.486251
vn -0.000969 0.935016 -0.354605
vn -0.000453 0.940274 -0.340417
vn 0.000317 0.981945 -0.189168
vn -0.001345 0.992708 -0.120536
vn 0.000440 0.999382 -0.035147
vn -0.000770 0.992843 0.119428
vn -0.000811 0.992709 0.120537
vn 0.000463 0.962258 0.272140
vn -0.001342 0.935015 0.354604
vn 0.000373 0.907157 0.420793
vn -0.000568 0.826668 0.562690
vn -0.000804 0.822984 0.568065
vn 0.000527 0.719752 0.694231
vn -0.001328 0.663122 0.748511
vn 0.000758 0.583823 0.811880
vn 0.000450 0.418329 0.908296
vn -0.001129 0.464724 0.885455
vn -0.000568 0.239315 0.970942
vn -0.000108 0.227683 0.973735
vn 0.000106 0.019707 0.999806
vn 0.000532 -0.189914 0.981801
vn -0.000635 0.000000 1.000000
vn 0.000805 -0.384431 0.923153
vn -0.001065 -0.239314 0.970942
vn 0.000786 -0.554951 0.831882
vn -0.001317 -0.464724 0.885455
vn 0.000187 -0.696409 0.717645
vn -0.000205 -0.808635 0.588311
vn -0.001168 -0.663122 0.748511
vn 0.000568 -0.893985 0.448096
vn -0.001025 -0.822983 0.568065
vn 0.000199 -0.953764 0.300556
vn -0.000180 -0.985617 0.168996
vn -0.001305 -0.935015 0.354604
vn 0.000000 -0.998403 0.056485
vn -0.001346 -0.992708 0.120537
vn -1.000000 0.000000 0.000000
vn -1.000000 0.000000 0.000000
vn 1.000000 0.000000 0.000000
vn 1.000000 0.000000 0.000000
vn 0.000000 0.000000 -1.000000
vn 0.000000 0.000000 -1.000000
vn -1.000000 0.000000 0.000000
vn -1.000000 0.000000 0.000000
vn 1.000000 0.000000 0.000000
vn 1.000000 0.000000 0.000000
vn 0.000000 0.000000 -1.000000
vn 0.000000 0.000000 -1.000000
vn 0.707106 0.000000 -0.707107
vn 0.707106 0.000000 -0.707107
vn 0.577350 -0.577350 -0.577351
vn 0.707107 -0.707107 0.000000
vn 0.707107 -0.707107 0.000000
vn -0.000000 -1.000000 0.000000
vn 0.000000 -1.000000 -0.000000
vn -0.000000 -1.000000 0.000000
vn 0.000000 -1.000000 -0.000000
vn 0.707106 0.000000 0.707107
vn 0.707106 0.000000 0.707107
vn 0.577350 -0.577350 0.577351
f 1//1 2//1 3//1
f 4//2 2//2 1//2
f 5//3 3//3 2//3
f 6//4 3//4 5//4
f 7//5 8//5 9//5
f 7//6 9//6 10//6
f 11//7 7//7 10//7
f 12//8 4//8 13//8
f 12//9 8//9 4//9
f 14//10 15//10 6//10
f 14//11 6//11 5//11
f 14//12 16//12 15//12
f 7//13 2//13 4//13
f 7//14 4//14 8//14
f 10//15 15//15 16//15
f 10//16 16//16 17//16
f 10//17 17//17 18//17
f 10//18 18//18 11//18
f 19//19 20//19 21//19
f 22//20 19//20 21//20
f 23//21 19//21 22//21
f 9//22 8//22 23//22
f 10//23 23//23 22//23
f 10//24 9//24 23//24
f 12//25 23//25 8//25
f 24//26 23//26 12//26
f 25//27 26//27 22//27
f 27//28 22//28 26//28
f 28//29 25//29 22//29
f 29//30 22//30 27//30
f 30//31 28//31 22//31
f 31//32 10//32 22//32
f 31//33 22//33 29//33
f 32//34 30//34 22//34
f 33//35 10//35 31//35
f 34//36 10//36 33//36
f 35//37 10//37 34//37
f 36//38 10//38 35//38
f 37//39 10//39 36//39
f 38//40 10//40 37//40
f 39//41 40//41 41//41
f 39//42 41//42 42//42
f 39//43 42//43 43//43
f 39//44 43//44 44//44
f 39//45 44//45 45//45
f 39//46 45//46 32//46
f 39//47 32//47 22//47
f 15//48 46//48 47//48
f 15//49 47//49 48//49
f 15//50 48//50 49//50
f 15//51 49//51 50//51
f 15//52 50//52 51//52
f 15//53 51//53 40//53
f 15//54 40//54 39//54
f 15//55 10//55 46//55
f 46//56 10//56 38//56
f 13//57 52//57 12//57
f 53//58 52//58 13//58
f 54//59 39//59 55//59
f 56//60 55//60 39//60
f 57//61 39//61 54//61
f 58//62 56//62 39//62
f 59//63 39//63 57//63
f 60//64 58//64 39//64
f 61//65 15//65 39//65
f 61//66 39//66 59//66
f 62//67 15//67 61//67
f 63//68 15//68 62//68
f 64//69 15//69 63//69
f 65//70 15//70 64//70
f 66//71 15//71 65//71
f 67//72 68//72 69//72
f 67//73 69//73 70//73
f 67//74 70//74 71//74
f 67//75 71//75 72//75
f 67//76 72//76 73//76
f 67//77 73//77 74//77
f 67//78 74//78 60//78
f 67//79 60//79 39//79
f 6//80 75//80 76//80
f 6//81 76//81 77//81
f 6//82 77//82 78//82
f 6//83 78//83 79//83
f 6//84 79//84 68//84
f 6//85 68//85 67//85
f 6//86 15//86 80//86
f 80//87 15//87 66//87
f 6//88 80//88 75//88
f 81//89 13//89 4//89
f 81//90 82//90 13//90
f 83//91 84//91 67//91
f 85//92 67//92 84//92
f 86//93 83//93 67//93
f 87//94 67//94 85//94
f 88//95 86//95 67//95
f 89//96 6//96 67//96
f 89//97 67//97 87//97
f 90//98 6//98 89//98
f 91//99 6//99 90//99
f 92//100 6//100 91//100
f 93//101 6//101 92//101
f 94//102 6//102 93//102
f 95//103 6//103 94//103
f 96//104 97//104 98//104
f 96//105 98//105 99//105
f 96//106 99//106 100//106
f 96//107 100//107 101//107
f 96//108 101//108 102//108
f 96//109 102//109 103//109
f 96//110 103//110 88//110
f 96//111 88//111 67//111
f 3//112 104//112 105//112
f 3//113 105//113 106//113
f 3//114 106//114 107//114
f 3//115 107//115 108//115
f 3//116 108//116 109//116
f 3//117 109//117 97//117
f 3//118 97//118 96//118
f 3//119 6//119 95//119
f 3//120 95//120 104//120
f 110//121 96//121 111//121
f 110//122 111//122 112//122
f 81//123 3//123 96//123
f 81//124 96//124 110//124
f 1//125 3//125 81//125
f 4//126 1//126 81//126
f 7//127 113//127 2//127
f 2//128 113//128 114//128
f 114//129 113//129 115//129
f 114//130 116//130 117//130
f 115//131 116//131 114//131
f 116//132 118//132 117//132
f 119//133 120//133 121//133
f 122//134 120//134 119//134
f 123//135 120//135 122//135
f 113//136 120//136 123//136
f 7//137 120//137 113//137
f 118//138 124//138 117//138
f 124//139 125//139 117//139
f 125//140 126//140 117//140
f 125//141 127//141 126//141
f 128//142 129//142 130//142
f 131//143 129//143 128//143
f 132//144 129//144 131//144
f 121//145 129//145 132//145
f 120//146 129//146 121//146
f 127//147 133//147 126//147
f 133//148 134//148 126//148
f 134//149 135//149 126//149
f 134//150 136//150 135//150
f 136//151 137//151 135//151
f 138//152 139//152 140//152
f 141//153 139//153 138//153
f 130//154 139//154 141//154
f 129//155 139//155 130//155
f 137//156 142//156 135//156
f 142//157 143//157 135//157
f 143//158 144//158 135//158
f 143//159 145//159 144//159
f 145//160 146//160 144//160
f 146//161 147//161 144//161
f 147//162 148//162 144//162
f 139//163 149//163 140//163
f 150//164 149//164 151//164
f 152//165 149//165 150//165
f 153//166 149//166 152//166
f 140//167 149//167 153//167
f 148//168 154//168 144//168
f 149//169 155//169 151//169
f 156//170 155//170 148//170
f 157//171 155//171 156//171
f 151//172 155//172 157//172
f 155//173 158//173 148//173
f 148//174 158//174 154//174
f 139//175 159//175 149//175
f 149//176 159//176 155//176
f 155//177 159//177 158//177
f 7//178 11//178 120//178
f 120//179 11//179 129//179
f 129//180 11//180 139//180
f 139//181 11//181 159//181
f 11//182 18//182 160//182
f 11//183 160//183 161//183
f 162//184 163//184 164//184
f 164//185 165//185 162//185
f 163//186 166//186 164//186
f 164//187 167//187 165//187
f 166//188 168//188 164//188
f 164//189 169//189 167//189
f 170//190 171//190 172//190
f 172//191 171//191 168//191
f 168//192 171//192 164//192
f 170//193 173//193 171//193
f 173//194 174//194 171//194
f 174//195 175//195 171//195
f 169//196 18//196 176//196
f 176//197 18//197 177//197
f 177//198 18//198 178//198
f 178//199 18//199 179//199
f 164//200 18//200 169//200
f 18//201 180//201 179//201
f 175//202 181//202 171//202
f 18//203 182//203 180//203
f 181//204 183//204 171//204
f 182//205 17//205 184//205
f 184//206 17//206 185//206
f 185//207 17//207 186//207
f 186//208 17//208 187//208
f 187//209 17//209 188//209
f 188//210 17//210 189//210
f 189//211 17//211 183//211
f 18//212 17//212 182//212
f 183//213 17//213 171//213
f 17//214 16//214 190//214
f 17//215 190//215 191//215
f 192//216 193//216 194//216
f 192//217 195//217 193//217
f 16//218 196//218 192//218
f 192//219 196//219 195//219
f 16//220 197//220 196//220
f 16//221 198//221 197//221
f 16//222 14//222 198//222
f 199//223 200//223 154//223
f 201//224 144//224 154//224
f 201//225 154//225 200//225
f 202//226 199//226 154//226
f 203//227 135//227 144//227
f 203//228 144//228 201//228
f 204//229 202//229 154//229
f 205//230 117//230 126//230
f 205//231 126//231 135//231
f 205//232 135//232 203//232
f 206//233 204//233 154//233
f 207//234 114//234 117//234
f 207//235 117//235 205//235
f 208//236 2//236 114//236
f 208//237 114//237 207//237
f 209//238 2//238 208//238
f 210//239 2//239 209//239
f 211//240 2//240 210//240
f 212//241 2//241 211//241
f 213//242 214//242 206//242
f 213//243 215//243 214//243
f 213//244 216//244 215//244
f 213//245 217//245 216//245
f 213//246 206//246 154//246
f 218//247 219//247 217//247
f 218//248 217//248 213//248
f 220//249 219//249 218//249
f 220//250 221//250 219//250
f 222//251 221//251 220//251
f 223//252 221//252 222//252
f 223//253 224//253 221//253
f 225//254 224//254 223//254
f 225//255 226//255 224//255
f 5//256 226//256 225//256
f 5//257 227//257 226//257
f 5//258 228//258 227//258
f 5//259 229//259 228//259
f 5//260 230//260 229//260
f 5//261 2//261 212//261
f 5//262 212//262 230//262
f 194//263 231//263 213//263
f 213//264 231//264 218//264
f 218//265 231//265 232//265
f 232//266 233//266 218//266
f 218//267 234//267 220//267
f 233//268 234//268 218//268
f 234//269 235//269 220//269
f 231//270 193//270 236//270
f 236//271 193//271 237//271
f 237//272 193//272 238//272
f 194//273 193//273 231//273
f 235//274 239//274 220//274
f 239//275 240//275 220//275
f 220//276 241//276 222//276
f 240//277 241//277 220//277
f 241//278 242//278 222//278
f 238//279 195//279 243//279
f 243//280 195//280 244//280
f 244//281 195//281 245//281
f 245//282 195//282 246//282
f 193//283 195//283 238//283
f 242//284 247//284 222//284
f 247//285 248//285 222//285
f 222//286 248//286 223//286
f 248//287 249//287 223//287
f 246//288 196//288 250//288
f 250//289 196//289 251//289
f 251//290 196//290 252//290
f 195//291 196//291 246//291
f 249//292 253//292 223//292
f 223//293 254//293 225//293
f 253//294 254//294 223//294
f 254//295 255//295 225//295
f 255//296 256//296 225//296
f 196//297 197//297 252//297
f 252//298 197//298 257//298
f 257//299 197//299 258//299
f 258//300 197//300 259//300
f 259//301 197//301 260//301
f 256//302 5//302 225//302
f 197//303 198//303 260//303
f 260//304 198//304 261//304
f 261//305 198//305 262//305
f 262//306 198//306 263//306
f 263//307 198//307 256//307
f 256//308 14//308 5//308
f 198//309 14//309 256//309
f 23//310 24//310 264//310
f 23//311 264//311 19//311
f 19//312 265//312 20//312
f 19//313 264//313 265//313
f 154//314 111//314 96//314
f 154//315 112//315 111//315
f 96//316 213//316 154//316
f 96//317 67//317 213//317
f 20//318 158//318 21//318
f 21//319 158//319 22//319
f 158//320 159//320 22//320
f 112//321 265//321 266//321
f 20//322 265//322 112//322
f 39//323 194//323 67//323
f 67//324 194//324 213//324
f 192//325 194//325 39//325
f 154//326 158//326 112//326
f 112//327 158//327 20//327
f 39//328 22//328 192//328
f 192//329 22//329 171//329
f 171//330 22//330 164//330
f 164//331 22//331 159//331
f 24//332 12//332 52//332
f 189//333 183//333 40//333
f 189//334 40//334 51//334
f 188//335 51//335 50//335
f 188//336 189//336 51//336
f 187//337 50//337 49//337
f 187//338 188//338 50//338
f 186//339 49//339 48//339
f 186//340 187//340 49//340
f 185//341 48//341 47//341
f 185//342 186//342 48//342
f 184//343 47//343 46//343
f 184//344 185//344 47//344
f 182//345 46//345 38//345
f 182//346 184//346 46//346
f 180//347 38//347 37//347
f 180//348 182//348 38//348
f 179//349 37//349 36//349
f 179//350 180//350 37//350
f 178//351 36//351 35//351
f 178//352 179//352 36//352
f 177//353 178//353 35//353
f 177//354 35//354 34//354
f 176//355 177//355 34//355
f 176//356 33//356 31//356
f 176//357 34//357 33//357
f 169//358 176//358 31//358
f 169//359 31//359 29//359
f 167//360 169//360 29//360
f 165//361 167//361 29//361
f 165//362 29//362 27//362
f 162//363 165//363 27//363
f 162//364 27//364 26//364
f 163//365 162//365 26//365
f 163//366 26//366 25//366
f 166//367 163//367 25//367
f 166//368 25//368 28//368
f 168//369 28//369 30//369
f 168//370 166//370 28//370
f 172//371 30//371 32//371
f 172//372 168//372 30//372
f 170//373 32//373 45//373
f 170//374 172//374 32//374
f 173//375 45//375 44//375
f 173//376 170//376 45//376
f 174//377 44//377 43//377
f 174//378 173//378 44//378
f 175//379 43//379 42//379
f 175//380 174//380 43//380
f 181//381 42//381 41//381
f 181//382 175//382 42//382
f 183//383 41//383 40//383
f 183//384 181//384 41//384
f 53//385 13//385 82//385
f 267//386 268//386 269//386
f 270//387 269//387 268//387
f 271//388 268//388 267//388
f 272//389 270//389 268//389
f 273//390 268//390 271//390
f 274//391 272//391 268//391
f 275//392 268//392 273//392
f 276//393 277//393 274//393
f 276//394 278//394 277//394
f 276//395 274//395 268//395
f 279//396 278//396 276//396
f 280//397 279//397 276//397
f 53//398 281//398 282//398
f 53//399 283//399 281//399
f 53//400 275//400 283//400
f 53//401 268//401 275//401
f 284//402 53//402 282//402
f 285//403 280//403 276//403
f 286//404 53//404 284//404
f 287//405 285//405 276//405
f 288//406 53//406 286//406
f 289//407 287//407 276//407
f 52//408 290//408 289//408
f 52//409 291//409 290//409
f 52//410 292//410 291//410
f 52//411 293//411 292//411
f 52//412 294//412 293//412
f 52//413 288//413 294//413
f 52//414 289//414 276//414
f 52//415 53//415 288//415
f 80//416 256//416 75//416
f 75//417 255//417 76//417
f 256//418 255//418 75//418
f 76//419 254//419 77//419
f 255//420 254//420 76//420
f 254//421 253//421 77//421
f 77//422 249//422 78//422
f 253//423 249//423 77//423
f 78//424 248//424 79//424
f 249//425 248//425 78//425
f 79//426 247//426 68//426
f 248//427 247//427 79//427
f 68//428 242//428 69//428
f 247//429 242//429 68//429
f 69//430 241//430 70//430
f 242//431 241//431 69//431
f 70//432 240//432 71//432
f 241//433 240//433 70//433
f 240//434 239//434 71//434
f 71//435 239//435 72//435
f 239//436 235//436 72//436
f 235//437 234//437 72//437
f 72//438 234//438 73//438
f 234//439 233//439 73//439
f 73//440 233//440 74//440
f 233//441 232//441 74//441
f 74//442 232//442 60//442
f 232//443 231//443 60//443
f 60//444 236//444 58//444
f 231//445 236//445 60//445
f 58//446 237//446 56//446
f 236//447 237//447 58//447
f 56//448 238//448 55//448
f 237//449 238//449 56//449
f 238//450 243//450 55//450
f 55//451 244//451 54//451
f 243//452 244//452 55//452
f 54//453 245//453 57//453
f 244//454 245//454 54//454
f 57//455 246//455 59//455
f 245//456 246//456 57//456
f 246//457 250//457 59//457
f 59//458 251//458 61//458
f 250//459 251//459 59//459
f 61//460 252//460 62//460
f 251//461 252//461 61//461
f 62//462 257//462 63//462
f 252//463 257//463 62//463
f 63//464 258//464 64//464
f 257//465 258//465 63//465
f 258//466 259//466 64//466
f 64//467 260//467 65//467
f 259//468 260//468 64//468
f 65//469 261//469 66//469
f 260//470 261//470 65//470
f 261//471 262//471 66//471
f 66//472 263//472 80//472
f 262//473 263//473 66//473
f 263//474 256//474 80//474
f 82//475 81//475 110//475
f 82//476 110//476 295//476
f 221//477 224//477 89//477
f 89//478 224//478 90//478
f 90//479 226//479 91//479
f 224//480 226//480 90//480
f 91//481 227//481 92//481
f 226//482 227//482 91//482
f 92//483 228//483 93//483
f 227//484 228//484 92//484
f 93//485 229//485 94//485
f 228//486 229//486 93//486
f 94//487 230//487 95//487
f 229//488 230//488 94//488
f 95//489 212//489 104//489
f 104//490 212//490 105//490
f 230//491 212//491 95//491
f 212//492 211//492 105//492
f 105//493 210//493 106//493
f 211//494 210//494 105//494
f 106//495 209//495 107//495
f 210//496 209//496 106//496
f 107//497 208//497 108//497
f 209//498 208//498 107//498
f 208//499 207//499 108//499
f 108//500 207//500 109//500
f 207//501 205//501 109//501
f 109//502 205//502 97//502
f 97//503 205//503 98//503
f 205//504 203//504 98//504
f 203//505 201//505 98//505
f 98//506 201//506 99//506
f 201//507 200//507 99//507
f 99//508 200//508 100//508
f 200//509 199//509 100//509
f 100//510 199//510 101//510
f 199//511 202//511 101//511
f 101//512 202//512 102//512
f 202//513 204//513 102//513
f 102//514 204//514 103//514
f 103//515 204//515 88//515
f 204//516 206//516 88//516
f 206//517 214//517 88//517
f 88//518 214//518 86//518
f 214//519 215//519 86//519
f 86//520 215//520 83//520
f 215//521 216//521 83//521
f 83//522 216//522 84//522
f 84//523 217//523 85//523
f 85//524 217//524 87//524
f 216//525 217//525 84//525
f 217//526 219//526 87//526
f 87//527 221//527 89//527
f 219//528 221//528 87//528
f 266//529 110//529 112//529
f 295//530 110//530 266//530
f 113//531 288//531 115//531
f 115//532 286//532 116//532
f 288//533 286//533 115//533
f 116//534 284//534 118//534
f 286//535 284//535 116//535
f 118//536 282//536 124//536
f 284//537 282//537 118//537
f 124//538 281//538 125//538
f 282//539 281//539 124//539
f 125//540 283//540 127//540
f 281//541 283//541 125//541
f 127//542 275//542 133//542
f 283//543 275//543 127//543
f 133//544 273//544 134//544
f 275//545 273//545 133//545
f 134//546 271//546 136//546
f 273//547 271//547 134//547
f 271//548 267//548 136//548
f 136//549 267//549 137//549
f 137//550 267//550 142//550
f 267//551 269//551 142//551
f 142//552 269//552 143//552
f 269//553 270//553 143//553
f 143//554 270//554 145//554
f 270//555 272//555 145//555
f 145//556 272//556 146//556
f 146//557 272//557 147//557
f 272//558 274//558 147//558
f 147//559 274//559 148//559
f 148//560 274//560 156//560
f 274//561 277//561 156//561
f 156//562 277//562 157//562
f 277//563 278//563 157//563
f 157//564 278//564 151//564
f 151//565 278//565 150//565
f 278//566 279//566 150//566
f 150//567 279//567 152//567
f 279//568 280//568 152//568
f 152//569 280//569 153//569
f 153//570 285//570 140//570
f 280//571 285//571 153//571
f 285//572 287//572 140//572
f 140//573 287//573 138//573
f 138//574 287//574 141//574
f 141//575 289//575 130//575
f 287//576 289//576 141//576
f 130//577 290//577 128//577
f 289//578 290//578 130//578
f 128//579 291//579 131//579
f 290//580 291//580 128//580
f 131//581 292//581 132//581
f 132//582 292//582 121//582
f 291//583 292//583 131//583
f 121//584 293//584 119//584
f 292//585 293//585 121//585
f 119//586 294//586 122//586
f 122//587 294//587 123//587
f 293//588 294//588 119//588
f 123//589 288//589 113//589
f 294//590 288//590 123//590
f 159//591 11//591 161//591
f 159//592 161//592 296//592
f 18//593 164//593 297//593
f 18//594 297//594 160//594
f 296//595 161//595 297//595
f 161//596 160//596 297//596
f 171//597 17//597 191//597
f 171//598 191//598 298//598
f 16//599 192//599 299//599
f 16//600 299//600 190//600
f 298//601 190//601 299//601
f 191//602 190//602 298//602
f 52//603 276//603 24//603
f 24//604 276//604 264//604
f 265//605 264//605 276//605
f 276//606 266//606 265//606
f 276//607 268//607 266//607
f 164//608 159//608 296//608
f 164//609 296//609 297//609
f 192//610 171//610 298//610
f 192//611 298//611 299//611
f 82//612 268//612 53//612
f 82//613 295//613 268//613
f 266//614 268//614 295//614
