%TF.GenerationSoftware,KiCad,Pcbnew,9.0.1*%
%TF.CreationDate,2025-05-12T19:07:41+03:00*%
%TF.ProjectId,pcb,7063622e-6b69-4636-9164-5f7063625858,rev?*%
%TF.SameCoordinates,Original*%
%TF.FileFunction,Legend,Top*%
%TF.FilePolarity,Positive*%
%FSLAX46Y46*%
G04 Gerber Fmt 4.6, Leading zero omitted, Abs format (unit mm)*
G04 Created by KiCad (PCBNEW 9.0.1) date 2025-05-12 19:07:41*
%MOMM*%
%LPD*%
G01*
G04 APERTURE LIST*
%ADD10C,0.100000*%
%ADD11C,0.150000*%
%ADD12C,0.300000*%
%ADD13C,0.400000*%
%ADD14C,0.000000*%
%ADD15C,0.120000*%
%ADD16C,1.600000*%
%ADD17C,2.700000*%
%ADD18O,1.600000X1.600000*%
%ADD19R,1.600000X1.600000*%
G04 APERTURE END LIST*
D10*
D11*
X177002200Y-166007200D02*
X285002200Y-166007200D01*
X285002200Y-198007200D01*
X177002200Y-198007200D01*
X177002200Y-166007200D01*
D10*
D11*
X10000000Y-10000000D02*
X287002200Y-10000000D01*
X287002200Y-200007200D01*
X10000000Y-200007200D01*
X10000000Y-10000000D01*
D10*
D11*
X12000000Y-12000000D02*
X285002200Y-12000000D01*
X285002200Y-198007200D01*
X12000000Y-198007200D01*
X12000000Y-12000000D01*
D10*
D11*
X60000000Y-12000000D02*
X60000000Y-10000000D01*
D10*
D11*
X110000000Y-12000000D02*
X110000000Y-10000000D01*
D10*
D11*
X160000000Y-12000000D02*
X160000000Y-10000000D01*
D10*
D11*
X210000000Y-12000000D02*
X210000000Y-10000000D01*
D10*
D11*
X260000000Y-12000000D02*
X260000000Y-10000000D01*
D10*
D11*
X36089160Y-11593604D02*
X35346303Y-11593604D01*
X35717731Y-11593604D02*
X35717731Y-10293604D01*
X35717731Y-10293604D02*
X35593922Y-10479319D01*
X35593922Y-10479319D02*
X35470112Y-10603128D01*
X35470112Y-10603128D02*
X35346303Y-10665033D01*
D10*
D11*
X85346303Y-10417414D02*
X85408207Y-10355509D01*
X85408207Y-10355509D02*
X85532017Y-10293604D01*
X85532017Y-10293604D02*
X85841541Y-10293604D01*
X85841541Y-10293604D02*
X85965350Y-10355509D01*
X85965350Y-10355509D02*
X86027255Y-10417414D01*
X86027255Y-10417414D02*
X86089160Y-10541223D01*
X86089160Y-10541223D02*
X86089160Y-10665033D01*
X86089160Y-10665033D02*
X86027255Y-10850747D01*
X86027255Y-10850747D02*
X85284398Y-11593604D01*
X85284398Y-11593604D02*
X86089160Y-11593604D01*
D10*
D11*
X135284398Y-10293604D02*
X136089160Y-10293604D01*
X136089160Y-10293604D02*
X135655826Y-10788842D01*
X135655826Y-10788842D02*
X135841541Y-10788842D01*
X135841541Y-10788842D02*
X135965350Y-10850747D01*
X135965350Y-10850747D02*
X136027255Y-10912652D01*
X136027255Y-10912652D02*
X136089160Y-11036461D01*
X136089160Y-11036461D02*
X136089160Y-11345985D01*
X136089160Y-11345985D02*
X136027255Y-11469795D01*
X136027255Y-11469795D02*
X135965350Y-11531700D01*
X135965350Y-11531700D02*
X135841541Y-11593604D01*
X135841541Y-11593604D02*
X135470112Y-11593604D01*
X135470112Y-11593604D02*
X135346303Y-11531700D01*
X135346303Y-11531700D02*
X135284398Y-11469795D01*
D10*
D11*
X185965350Y-10726938D02*
X185965350Y-11593604D01*
X185655826Y-10231700D02*
X185346303Y-11160271D01*
X185346303Y-11160271D02*
X186151064Y-11160271D01*
D10*
D11*
X236027255Y-10293604D02*
X235408207Y-10293604D01*
X235408207Y-10293604D02*
X235346303Y-10912652D01*
X235346303Y-10912652D02*
X235408207Y-10850747D01*
X235408207Y-10850747D02*
X235532017Y-10788842D01*
X235532017Y-10788842D02*
X235841541Y-10788842D01*
X235841541Y-10788842D02*
X235965350Y-10850747D01*
X235965350Y-10850747D02*
X236027255Y-10912652D01*
X236027255Y-10912652D02*
X236089160Y-11036461D01*
X236089160Y-11036461D02*
X236089160Y-11345985D01*
X236089160Y-11345985D02*
X236027255Y-11469795D01*
X236027255Y-11469795D02*
X235965350Y-11531700D01*
X235965350Y-11531700D02*
X235841541Y-11593604D01*
X235841541Y-11593604D02*
X235532017Y-11593604D01*
X235532017Y-11593604D02*
X235408207Y-11531700D01*
X235408207Y-11531700D02*
X235346303Y-11469795D01*
D10*
D11*
X285965350Y-10293604D02*
X285717731Y-10293604D01*
X285717731Y-10293604D02*
X285593922Y-10355509D01*
X285593922Y-10355509D02*
X285532017Y-10417414D01*
X285532017Y-10417414D02*
X285408207Y-10603128D01*
X285408207Y-10603128D02*
X285346303Y-10850747D01*
X285346303Y-10850747D02*
X285346303Y-11345985D01*
X285346303Y-11345985D02*
X285408207Y-11469795D01*
X285408207Y-11469795D02*
X285470112Y-11531700D01*
X285470112Y-11531700D02*
X285593922Y-11593604D01*
X285593922Y-11593604D02*
X285841541Y-11593604D01*
X285841541Y-11593604D02*
X285965350Y-11531700D01*
X285965350Y-11531700D02*
X286027255Y-11469795D01*
X286027255Y-11469795D02*
X286089160Y-11345985D01*
X286089160Y-11345985D02*
X286089160Y-11036461D01*
X286089160Y-11036461D02*
X286027255Y-10912652D01*
X286027255Y-10912652D02*
X285965350Y-10850747D01*
X285965350Y-10850747D02*
X285841541Y-10788842D01*
X285841541Y-10788842D02*
X285593922Y-10788842D01*
X285593922Y-10788842D02*
X285470112Y-10850747D01*
X285470112Y-10850747D02*
X285408207Y-10912652D01*
X285408207Y-10912652D02*
X285346303Y-11036461D01*
D10*
D11*
X60000000Y-198007200D02*
X60000000Y-200007200D01*
D10*
D11*
X110000000Y-198007200D02*
X110000000Y-200007200D01*
D10*
D11*
X160000000Y-198007200D02*
X160000000Y-200007200D01*
D10*
D11*
X210000000Y-198007200D02*
X210000000Y-200007200D01*
D10*
D11*
X260000000Y-198007200D02*
X260000000Y-200007200D01*
D10*
D11*
X36089160Y-199600804D02*
X35346303Y-199600804D01*
X35717731Y-199600804D02*
X35717731Y-198300804D01*
X35717731Y-198300804D02*
X35593922Y-198486519D01*
X35593922Y-198486519D02*
X35470112Y-198610328D01*
X35470112Y-198610328D02*
X35346303Y-198672233D01*
D10*
D11*
X85346303Y-198424614D02*
X85408207Y-198362709D01*
X85408207Y-198362709D02*
X85532017Y-198300804D01*
X85532017Y-198300804D02*
X85841541Y-198300804D01*
X85841541Y-198300804D02*
X85965350Y-198362709D01*
X85965350Y-198362709D02*
X86027255Y-198424614D01*
X86027255Y-198424614D02*
X86089160Y-198548423D01*
X86089160Y-198548423D02*
X86089160Y-198672233D01*
X86089160Y-198672233D02*
X86027255Y-198857947D01*
X86027255Y-198857947D02*
X85284398Y-199600804D01*
X85284398Y-199600804D02*
X86089160Y-199600804D01*
D10*
D11*
X135284398Y-198300804D02*
X136089160Y-198300804D01*
X136089160Y-198300804D02*
X135655826Y-198796042D01*
X135655826Y-198796042D02*
X135841541Y-198796042D01*
X135841541Y-198796042D02*
X135965350Y-198857947D01*
X135965350Y-198857947D02*
X136027255Y-198919852D01*
X136027255Y-198919852D02*
X136089160Y-199043661D01*
X136089160Y-199043661D02*
X136089160Y-199353185D01*
X136089160Y-199353185D02*
X136027255Y-199476995D01*
X136027255Y-199476995D02*
X135965350Y-199538900D01*
X135965350Y-199538900D02*
X135841541Y-199600804D01*
X135841541Y-199600804D02*
X135470112Y-199600804D01*
X135470112Y-199600804D02*
X135346303Y-199538900D01*
X135346303Y-199538900D02*
X135284398Y-199476995D01*
D10*
D11*
X185965350Y-198734138D02*
X185965350Y-199600804D01*
X185655826Y-198238900D02*
X185346303Y-199167471D01*
X185346303Y-199167471D02*
X186151064Y-199167471D01*
D10*
D11*
X236027255Y-198300804D02*
X235408207Y-198300804D01*
X235408207Y-198300804D02*
X235346303Y-198919852D01*
X235346303Y-198919852D02*
X235408207Y-198857947D01*
X235408207Y-198857947D02*
X235532017Y-198796042D01*
X235532017Y-198796042D02*
X235841541Y-198796042D01*
X235841541Y-198796042D02*
X235965350Y-198857947D01*
X235965350Y-198857947D02*
X236027255Y-198919852D01*
X236027255Y-198919852D02*
X236089160Y-199043661D01*
X236089160Y-199043661D02*
X236089160Y-199353185D01*
X236089160Y-199353185D02*
X236027255Y-199476995D01*
X236027255Y-199476995D02*
X235965350Y-199538900D01*
X235965350Y-199538900D02*
X235841541Y-199600804D01*
X235841541Y-199600804D02*
X235532017Y-199600804D01*
X235532017Y-199600804D02*
X235408207Y-199538900D01*
X235408207Y-199538900D02*
X235346303Y-199476995D01*
D10*
D11*
X285965350Y-198300804D02*
X285717731Y-198300804D01*
X285717731Y-198300804D02*
X285593922Y-198362709D01*
X285593922Y-198362709D02*
X285532017Y-198424614D01*
X285532017Y-198424614D02*
X285408207Y-198610328D01*
X285408207Y-198610328D02*
X285346303Y-198857947D01*
X285346303Y-198857947D02*
X285346303Y-199353185D01*
X285346303Y-199353185D02*
X285408207Y-199476995D01*
X285408207Y-199476995D02*
X285470112Y-199538900D01*
X285470112Y-199538900D02*
X285593922Y-199600804D01*
X285593922Y-199600804D02*
X285841541Y-199600804D01*
X285841541Y-199600804D02*
X285965350Y-199538900D01*
X285965350Y-199538900D02*
X286027255Y-199476995D01*
X286027255Y-199476995D02*
X286089160Y-199353185D01*
X286089160Y-199353185D02*
X286089160Y-199043661D01*
X286089160Y-199043661D02*
X286027255Y-198919852D01*
X286027255Y-198919852D02*
X285965350Y-198857947D01*
X285965350Y-198857947D02*
X285841541Y-198796042D01*
X285841541Y-198796042D02*
X285593922Y-198796042D01*
X285593922Y-198796042D02*
X285470112Y-198857947D01*
X285470112Y-198857947D02*
X285408207Y-198919852D01*
X285408207Y-198919852D02*
X285346303Y-199043661D01*
D10*
D11*
X10000000Y-60000000D02*
X12000000Y-60000000D01*
D10*
D11*
X10000000Y-110000000D02*
X12000000Y-110000000D01*
D10*
D11*
X10000000Y-160000000D02*
X12000000Y-160000000D01*
D10*
D11*
X10690476Y-35222176D02*
X11309523Y-35222176D01*
X10566666Y-35593604D02*
X10999999Y-34293604D01*
X10999999Y-34293604D02*
X11433333Y-35593604D01*
D10*
D11*
X11092857Y-84912652D02*
X11278571Y-84974557D01*
X11278571Y-84974557D02*
X11340476Y-85036461D01*
X11340476Y-85036461D02*
X11402380Y-85160271D01*
X11402380Y-85160271D02*
X11402380Y-85345985D01*
X11402380Y-85345985D02*
X11340476Y-85469795D01*
X11340476Y-85469795D02*
X11278571Y-85531700D01*
X11278571Y-85531700D02*
X11154761Y-85593604D01*
X11154761Y-85593604D02*
X10659523Y-85593604D01*
X10659523Y-85593604D02*
X10659523Y-84293604D01*
X10659523Y-84293604D02*
X11092857Y-84293604D01*
X11092857Y-84293604D02*
X11216666Y-84355509D01*
X11216666Y-84355509D02*
X11278571Y-84417414D01*
X11278571Y-84417414D02*
X11340476Y-84541223D01*
X11340476Y-84541223D02*
X11340476Y-84665033D01*
X11340476Y-84665033D02*
X11278571Y-84788842D01*
X11278571Y-84788842D02*
X11216666Y-84850747D01*
X11216666Y-84850747D02*
X11092857Y-84912652D01*
X11092857Y-84912652D02*
X10659523Y-84912652D01*
D10*
D11*
X11402380Y-135469795D02*
X11340476Y-135531700D01*
X11340476Y-135531700D02*
X11154761Y-135593604D01*
X11154761Y-135593604D02*
X11030952Y-135593604D01*
X11030952Y-135593604D02*
X10845238Y-135531700D01*
X10845238Y-135531700D02*
X10721428Y-135407890D01*
X10721428Y-135407890D02*
X10659523Y-135284080D01*
X10659523Y-135284080D02*
X10597619Y-135036461D01*
X10597619Y-135036461D02*
X10597619Y-134850747D01*
X10597619Y-134850747D02*
X10659523Y-134603128D01*
X10659523Y-134603128D02*
X10721428Y-134479319D01*
X10721428Y-134479319D02*
X10845238Y-134355509D01*
X10845238Y-134355509D02*
X11030952Y-134293604D01*
X11030952Y-134293604D02*
X11154761Y-134293604D01*
X11154761Y-134293604D02*
X11340476Y-134355509D01*
X11340476Y-134355509D02*
X11402380Y-134417414D01*
D10*
D11*
X10659523Y-185593604D02*
X10659523Y-184293604D01*
X10659523Y-184293604D02*
X10969047Y-184293604D01*
X10969047Y-184293604D02*
X11154761Y-184355509D01*
X11154761Y-184355509D02*
X11278571Y-184479319D01*
X11278571Y-184479319D02*
X11340476Y-184603128D01*
X11340476Y-184603128D02*
X11402380Y-184850747D01*
X11402380Y-184850747D02*
X11402380Y-185036461D01*
X11402380Y-185036461D02*
X11340476Y-185284080D01*
X11340476Y-185284080D02*
X11278571Y-185407890D01*
X11278571Y-185407890D02*
X11154761Y-185531700D01*
X11154761Y-185531700D02*
X10969047Y-185593604D01*
X10969047Y-185593604D02*
X10659523Y-185593604D01*
D10*
D11*
X287002200Y-60000000D02*
X285002200Y-60000000D01*
D10*
D11*
X287002200Y-110000000D02*
X285002200Y-110000000D01*
D10*
D11*
X287002200Y-160000000D02*
X285002200Y-160000000D01*
D10*
D11*
X285692676Y-35222176D02*
X286311723Y-35222176D01*
X285568866Y-35593604D02*
X286002199Y-34293604D01*
X286002199Y-34293604D02*
X286435533Y-35593604D01*
D10*
D11*
X286095057Y-84912652D02*
X286280771Y-84974557D01*
X286280771Y-84974557D02*
X286342676Y-85036461D01*
X286342676Y-85036461D02*
X286404580Y-85160271D01*
X286404580Y-85160271D02*
X286404580Y-85345985D01*
X286404580Y-85345985D02*
X286342676Y-85469795D01*
X286342676Y-85469795D02*
X286280771Y-85531700D01*
X286280771Y-85531700D02*
X286156961Y-85593604D01*
X286156961Y-85593604D02*
X285661723Y-85593604D01*
X285661723Y-85593604D02*
X285661723Y-84293604D01*
X285661723Y-84293604D02*
X286095057Y-84293604D01*
X286095057Y-84293604D02*
X286218866Y-84355509D01*
X286218866Y-84355509D02*
X286280771Y-84417414D01*
X286280771Y-84417414D02*
X286342676Y-84541223D01*
X286342676Y-84541223D02*
X286342676Y-84665033D01*
X286342676Y-84665033D02*
X286280771Y-84788842D01*
X286280771Y-84788842D02*
X286218866Y-84850747D01*
X286218866Y-84850747D02*
X286095057Y-84912652D01*
X286095057Y-84912652D02*
X285661723Y-84912652D01*
D10*
D11*
X286404580Y-135469795D02*
X286342676Y-135531700D01*
X286342676Y-135531700D02*
X286156961Y-135593604D01*
X286156961Y-135593604D02*
X286033152Y-135593604D01*
X286033152Y-135593604D02*
X285847438Y-135531700D01*
X285847438Y-135531700D02*
X285723628Y-135407890D01*
X285723628Y-135407890D02*
X285661723Y-135284080D01*
X285661723Y-135284080D02*
X285599819Y-135036461D01*
X285599819Y-135036461D02*
X285599819Y-134850747D01*
X285599819Y-134850747D02*
X285661723Y-134603128D01*
X285661723Y-134603128D02*
X285723628Y-134479319D01*
X285723628Y-134479319D02*
X285847438Y-134355509D01*
X285847438Y-134355509D02*
X286033152Y-134293604D01*
X286033152Y-134293604D02*
X286156961Y-134293604D01*
X286156961Y-134293604D02*
X286342676Y-134355509D01*
X286342676Y-134355509D02*
X286404580Y-134417414D01*
D10*
D11*
X285661723Y-185593604D02*
X285661723Y-184293604D01*
X285661723Y-184293604D02*
X285971247Y-184293604D01*
X285971247Y-184293604D02*
X286156961Y-184355509D01*
X286156961Y-184355509D02*
X286280771Y-184479319D01*
X286280771Y-184479319D02*
X286342676Y-184603128D01*
X286342676Y-184603128D02*
X286404580Y-184850747D01*
X286404580Y-184850747D02*
X286404580Y-185036461D01*
X286404580Y-185036461D02*
X286342676Y-185284080D01*
X286342676Y-185284080D02*
X286280771Y-185407890D01*
X286280771Y-185407890D02*
X286156961Y-185531700D01*
X286156961Y-185531700D02*
X285971247Y-185593604D01*
X285971247Y-185593604D02*
X285661723Y-185593604D01*
D10*
D11*
X200458026Y-193793328D02*
X200458026Y-192293328D01*
X200458026Y-192293328D02*
X200815169Y-192293328D01*
X200815169Y-192293328D02*
X201029455Y-192364757D01*
X201029455Y-192364757D02*
X201172312Y-192507614D01*
X201172312Y-192507614D02*
X201243741Y-192650471D01*
X201243741Y-192650471D02*
X201315169Y-192936185D01*
X201315169Y-192936185D02*
X201315169Y-193150471D01*
X201315169Y-193150471D02*
X201243741Y-193436185D01*
X201243741Y-193436185D02*
X201172312Y-193579042D01*
X201172312Y-193579042D02*
X201029455Y-193721900D01*
X201029455Y-193721900D02*
X200815169Y-193793328D01*
X200815169Y-193793328D02*
X200458026Y-193793328D01*
X202600884Y-193793328D02*
X202600884Y-193007614D01*
X202600884Y-193007614D02*
X202529455Y-192864757D01*
X202529455Y-192864757D02*
X202386598Y-192793328D01*
X202386598Y-192793328D02*
X202100884Y-192793328D01*
X202100884Y-192793328D02*
X201958026Y-192864757D01*
X202600884Y-193721900D02*
X202458026Y-193793328D01*
X202458026Y-193793328D02*
X202100884Y-193793328D01*
X202100884Y-193793328D02*
X201958026Y-193721900D01*
X201958026Y-193721900D02*
X201886598Y-193579042D01*
X201886598Y-193579042D02*
X201886598Y-193436185D01*
X201886598Y-193436185D02*
X201958026Y-193293328D01*
X201958026Y-193293328D02*
X202100884Y-193221900D01*
X202100884Y-193221900D02*
X202458026Y-193221900D01*
X202458026Y-193221900D02*
X202600884Y-193150471D01*
X203100884Y-192793328D02*
X203672312Y-192793328D01*
X203315169Y-192293328D02*
X203315169Y-193579042D01*
X203315169Y-193579042D02*
X203386598Y-193721900D01*
X203386598Y-193721900D02*
X203529455Y-193793328D01*
X203529455Y-193793328D02*
X203672312Y-193793328D01*
X204743741Y-193721900D02*
X204600884Y-193793328D01*
X204600884Y-193793328D02*
X204315170Y-193793328D01*
X204315170Y-193793328D02*
X204172312Y-193721900D01*
X204172312Y-193721900D02*
X204100884Y-193579042D01*
X204100884Y-193579042D02*
X204100884Y-193007614D01*
X204100884Y-193007614D02*
X204172312Y-192864757D01*
X204172312Y-192864757D02*
X204315170Y-192793328D01*
X204315170Y-192793328D02*
X204600884Y-192793328D01*
X204600884Y-192793328D02*
X204743741Y-192864757D01*
X204743741Y-192864757D02*
X204815170Y-193007614D01*
X204815170Y-193007614D02*
X204815170Y-193150471D01*
X204815170Y-193150471D02*
X204100884Y-193293328D01*
X205458026Y-193650471D02*
X205529455Y-193721900D01*
X205529455Y-193721900D02*
X205458026Y-193793328D01*
X205458026Y-193793328D02*
X205386598Y-193721900D01*
X205386598Y-193721900D02*
X205458026Y-193650471D01*
X205458026Y-193650471D02*
X205458026Y-193793328D01*
X205458026Y-192864757D02*
X205529455Y-192936185D01*
X205529455Y-192936185D02*
X205458026Y-193007614D01*
X205458026Y-193007614D02*
X205386598Y-192936185D01*
X205386598Y-192936185D02*
X205458026Y-192864757D01*
X205458026Y-192864757D02*
X205458026Y-193007614D01*
D10*
D11*
X177002200Y-194507200D02*
X285002200Y-194507200D01*
D10*
D11*
X178458026Y-196593328D02*
X178458026Y-195093328D01*
X179315169Y-196593328D02*
X178672312Y-195736185D01*
X179315169Y-195093328D02*
X178458026Y-195950471D01*
X179958026Y-196593328D02*
X179958026Y-195593328D01*
X179958026Y-195093328D02*
X179886598Y-195164757D01*
X179886598Y-195164757D02*
X179958026Y-195236185D01*
X179958026Y-195236185D02*
X180029455Y-195164757D01*
X180029455Y-195164757D02*
X179958026Y-195093328D01*
X179958026Y-195093328D02*
X179958026Y-195236185D01*
X181529455Y-196450471D02*
X181458027Y-196521900D01*
X181458027Y-196521900D02*
X181243741Y-196593328D01*
X181243741Y-196593328D02*
X181100884Y-196593328D01*
X181100884Y-196593328D02*
X180886598Y-196521900D01*
X180886598Y-196521900D02*
X180743741Y-196379042D01*
X180743741Y-196379042D02*
X180672312Y-196236185D01*
X180672312Y-196236185D02*
X180600884Y-195950471D01*
X180600884Y-195950471D02*
X180600884Y-195736185D01*
X180600884Y-195736185D02*
X180672312Y-195450471D01*
X180672312Y-195450471D02*
X180743741Y-195307614D01*
X180743741Y-195307614D02*
X180886598Y-195164757D01*
X180886598Y-195164757D02*
X181100884Y-195093328D01*
X181100884Y-195093328D02*
X181243741Y-195093328D01*
X181243741Y-195093328D02*
X181458027Y-195164757D01*
X181458027Y-195164757D02*
X181529455Y-195236185D01*
X182815170Y-196593328D02*
X182815170Y-195807614D01*
X182815170Y-195807614D02*
X182743741Y-195664757D01*
X182743741Y-195664757D02*
X182600884Y-195593328D01*
X182600884Y-195593328D02*
X182315170Y-195593328D01*
X182315170Y-195593328D02*
X182172312Y-195664757D01*
X182815170Y-196521900D02*
X182672312Y-196593328D01*
X182672312Y-196593328D02*
X182315170Y-196593328D01*
X182315170Y-196593328D02*
X182172312Y-196521900D01*
X182172312Y-196521900D02*
X182100884Y-196379042D01*
X182100884Y-196379042D02*
X182100884Y-196236185D01*
X182100884Y-196236185D02*
X182172312Y-196093328D01*
X182172312Y-196093328D02*
X182315170Y-196021900D01*
X182315170Y-196021900D02*
X182672312Y-196021900D01*
X182672312Y-196021900D02*
X182815170Y-195950471D01*
X184172313Y-196593328D02*
X184172313Y-195093328D01*
X184172313Y-196521900D02*
X184029455Y-196593328D01*
X184029455Y-196593328D02*
X183743741Y-196593328D01*
X183743741Y-196593328D02*
X183600884Y-196521900D01*
X183600884Y-196521900D02*
X183529455Y-196450471D01*
X183529455Y-196450471D02*
X183458027Y-196307614D01*
X183458027Y-196307614D02*
X183458027Y-195879042D01*
X183458027Y-195879042D02*
X183529455Y-195736185D01*
X183529455Y-195736185D02*
X183600884Y-195664757D01*
X183600884Y-195664757D02*
X183743741Y-195593328D01*
X183743741Y-195593328D02*
X184029455Y-195593328D01*
X184029455Y-195593328D02*
X184172313Y-195664757D01*
X186029455Y-195807614D02*
X186529455Y-195807614D01*
X186743741Y-196593328D02*
X186029455Y-196593328D01*
X186029455Y-196593328D02*
X186029455Y-195093328D01*
X186029455Y-195093328D02*
X186743741Y-195093328D01*
X187386598Y-196450471D02*
X187458027Y-196521900D01*
X187458027Y-196521900D02*
X187386598Y-196593328D01*
X187386598Y-196593328D02*
X187315170Y-196521900D01*
X187315170Y-196521900D02*
X187386598Y-196450471D01*
X187386598Y-196450471D02*
X187386598Y-196593328D01*
X188100884Y-196593328D02*
X188100884Y-195093328D01*
X188100884Y-195093328D02*
X188458027Y-195093328D01*
X188458027Y-195093328D02*
X188672313Y-195164757D01*
X188672313Y-195164757D02*
X188815170Y-195307614D01*
X188815170Y-195307614D02*
X188886599Y-195450471D01*
X188886599Y-195450471D02*
X188958027Y-195736185D01*
X188958027Y-195736185D02*
X188958027Y-195950471D01*
X188958027Y-195950471D02*
X188886599Y-196236185D01*
X188886599Y-196236185D02*
X188815170Y-196379042D01*
X188815170Y-196379042D02*
X188672313Y-196521900D01*
X188672313Y-196521900D02*
X188458027Y-196593328D01*
X188458027Y-196593328D02*
X188100884Y-196593328D01*
X189600884Y-196450471D02*
X189672313Y-196521900D01*
X189672313Y-196521900D02*
X189600884Y-196593328D01*
X189600884Y-196593328D02*
X189529456Y-196521900D01*
X189529456Y-196521900D02*
X189600884Y-196450471D01*
X189600884Y-196450471D02*
X189600884Y-196593328D01*
X190243742Y-196164757D02*
X190958028Y-196164757D01*
X190100885Y-196593328D02*
X190600885Y-195093328D01*
X190600885Y-195093328D02*
X191100885Y-196593328D01*
X191600884Y-196450471D02*
X191672313Y-196521900D01*
X191672313Y-196521900D02*
X191600884Y-196593328D01*
X191600884Y-196593328D02*
X191529456Y-196521900D01*
X191529456Y-196521900D02*
X191600884Y-196450471D01*
X191600884Y-196450471D02*
X191600884Y-196593328D01*
X193529456Y-196593328D02*
X193815170Y-196593328D01*
X193815170Y-196593328D02*
X193958027Y-196521900D01*
X193958027Y-196521900D02*
X194029456Y-196450471D01*
X194029456Y-196450471D02*
X194172313Y-196236185D01*
X194172313Y-196236185D02*
X194243742Y-195950471D01*
X194243742Y-195950471D02*
X194243742Y-195379042D01*
X194243742Y-195379042D02*
X194172313Y-195236185D01*
X194172313Y-195236185D02*
X194100885Y-195164757D01*
X194100885Y-195164757D02*
X193958027Y-195093328D01*
X193958027Y-195093328D02*
X193672313Y-195093328D01*
X193672313Y-195093328D02*
X193529456Y-195164757D01*
X193529456Y-195164757D02*
X193458027Y-195236185D01*
X193458027Y-195236185D02*
X193386599Y-195379042D01*
X193386599Y-195379042D02*
X193386599Y-195736185D01*
X193386599Y-195736185D02*
X193458027Y-195879042D01*
X193458027Y-195879042D02*
X193529456Y-195950471D01*
X193529456Y-195950471D02*
X193672313Y-196021900D01*
X193672313Y-196021900D02*
X193958027Y-196021900D01*
X193958027Y-196021900D02*
X194100885Y-195950471D01*
X194100885Y-195950471D02*
X194172313Y-195879042D01*
X194172313Y-195879042D02*
X194243742Y-195736185D01*
X194886598Y-196450471D02*
X194958027Y-196521900D01*
X194958027Y-196521900D02*
X194886598Y-196593328D01*
X194886598Y-196593328D02*
X194815170Y-196521900D01*
X194815170Y-196521900D02*
X194886598Y-196450471D01*
X194886598Y-196450471D02*
X194886598Y-196593328D01*
X195886599Y-195093328D02*
X196029456Y-195093328D01*
X196029456Y-195093328D02*
X196172313Y-195164757D01*
X196172313Y-195164757D02*
X196243742Y-195236185D01*
X196243742Y-195236185D02*
X196315170Y-195379042D01*
X196315170Y-195379042D02*
X196386599Y-195664757D01*
X196386599Y-195664757D02*
X196386599Y-196021900D01*
X196386599Y-196021900D02*
X196315170Y-196307614D01*
X196315170Y-196307614D02*
X196243742Y-196450471D01*
X196243742Y-196450471D02*
X196172313Y-196521900D01*
X196172313Y-196521900D02*
X196029456Y-196593328D01*
X196029456Y-196593328D02*
X195886599Y-196593328D01*
X195886599Y-196593328D02*
X195743742Y-196521900D01*
X195743742Y-196521900D02*
X195672313Y-196450471D01*
X195672313Y-196450471D02*
X195600884Y-196307614D01*
X195600884Y-196307614D02*
X195529456Y-196021900D01*
X195529456Y-196021900D02*
X195529456Y-195664757D01*
X195529456Y-195664757D02*
X195600884Y-195379042D01*
X195600884Y-195379042D02*
X195672313Y-195236185D01*
X195672313Y-195236185D02*
X195743742Y-195164757D01*
X195743742Y-195164757D02*
X195886599Y-195093328D01*
X197029455Y-196450471D02*
X197100884Y-196521900D01*
X197100884Y-196521900D02*
X197029455Y-196593328D01*
X197029455Y-196593328D02*
X196958027Y-196521900D01*
X196958027Y-196521900D02*
X197029455Y-196450471D01*
X197029455Y-196450471D02*
X197029455Y-196593328D01*
X198529456Y-196593328D02*
X197672313Y-196593328D01*
X198100884Y-196593328D02*
X198100884Y-195093328D01*
X198100884Y-195093328D02*
X197958027Y-195307614D01*
X197958027Y-195307614D02*
X197815170Y-195450471D01*
X197815170Y-195450471D02*
X197672313Y-195521900D01*
D10*
D11*
X177002200Y-191507200D02*
X285002200Y-191507200D01*
D10*
D12*
X264413853Y-193785528D02*
X263913853Y-193071242D01*
X263556710Y-193785528D02*
X263556710Y-192285528D01*
X263556710Y-192285528D02*
X264128139Y-192285528D01*
X264128139Y-192285528D02*
X264270996Y-192356957D01*
X264270996Y-192356957D02*
X264342425Y-192428385D01*
X264342425Y-192428385D02*
X264413853Y-192571242D01*
X264413853Y-192571242D02*
X264413853Y-192785528D01*
X264413853Y-192785528D02*
X264342425Y-192928385D01*
X264342425Y-192928385D02*
X264270996Y-192999814D01*
X264270996Y-192999814D02*
X264128139Y-193071242D01*
X264128139Y-193071242D02*
X263556710Y-193071242D01*
X265628139Y-193714100D02*
X265485282Y-193785528D01*
X265485282Y-193785528D02*
X265199568Y-193785528D01*
X265199568Y-193785528D02*
X265056710Y-193714100D01*
X265056710Y-193714100D02*
X264985282Y-193571242D01*
X264985282Y-193571242D02*
X264985282Y-192999814D01*
X264985282Y-192999814D02*
X265056710Y-192856957D01*
X265056710Y-192856957D02*
X265199568Y-192785528D01*
X265199568Y-192785528D02*
X265485282Y-192785528D01*
X265485282Y-192785528D02*
X265628139Y-192856957D01*
X265628139Y-192856957D02*
X265699568Y-192999814D01*
X265699568Y-192999814D02*
X265699568Y-193142671D01*
X265699568Y-193142671D02*
X264985282Y-193285528D01*
X266199567Y-192785528D02*
X266556710Y-193785528D01*
X266556710Y-193785528D02*
X266913853Y-192785528D01*
X267485281Y-193642671D02*
X267556710Y-193714100D01*
X267556710Y-193714100D02*
X267485281Y-193785528D01*
X267485281Y-193785528D02*
X267413853Y-193714100D01*
X267413853Y-193714100D02*
X267485281Y-193642671D01*
X267485281Y-193642671D02*
X267485281Y-193785528D01*
X267485281Y-192856957D02*
X267556710Y-192928385D01*
X267556710Y-192928385D02*
X267485281Y-192999814D01*
X267485281Y-192999814D02*
X267413853Y-192928385D01*
X267413853Y-192928385D02*
X267485281Y-192856957D01*
X267485281Y-192856957D02*
X267485281Y-192999814D01*
D10*
D11*
X178386598Y-193721900D02*
X178600884Y-193793328D01*
X178600884Y-193793328D02*
X178958026Y-193793328D01*
X178958026Y-193793328D02*
X179100884Y-193721900D01*
X179100884Y-193721900D02*
X179172312Y-193650471D01*
X179172312Y-193650471D02*
X179243741Y-193507614D01*
X179243741Y-193507614D02*
X179243741Y-193364757D01*
X179243741Y-193364757D02*
X179172312Y-193221900D01*
X179172312Y-193221900D02*
X179100884Y-193150471D01*
X179100884Y-193150471D02*
X178958026Y-193079042D01*
X178958026Y-193079042D02*
X178672312Y-193007614D01*
X178672312Y-193007614D02*
X178529455Y-192936185D01*
X178529455Y-192936185D02*
X178458026Y-192864757D01*
X178458026Y-192864757D02*
X178386598Y-192721900D01*
X178386598Y-192721900D02*
X178386598Y-192579042D01*
X178386598Y-192579042D02*
X178458026Y-192436185D01*
X178458026Y-192436185D02*
X178529455Y-192364757D01*
X178529455Y-192364757D02*
X178672312Y-192293328D01*
X178672312Y-192293328D02*
X179029455Y-192293328D01*
X179029455Y-192293328D02*
X179243741Y-192364757D01*
X179886597Y-193793328D02*
X179886597Y-192793328D01*
X179886597Y-192293328D02*
X179815169Y-192364757D01*
X179815169Y-192364757D02*
X179886597Y-192436185D01*
X179886597Y-192436185D02*
X179958026Y-192364757D01*
X179958026Y-192364757D02*
X179886597Y-192293328D01*
X179886597Y-192293328D02*
X179886597Y-192436185D01*
X180458026Y-192793328D02*
X181243741Y-192793328D01*
X181243741Y-192793328D02*
X180458026Y-193793328D01*
X180458026Y-193793328D02*
X181243741Y-193793328D01*
X182386598Y-193721900D02*
X182243741Y-193793328D01*
X182243741Y-193793328D02*
X181958027Y-193793328D01*
X181958027Y-193793328D02*
X181815169Y-193721900D01*
X181815169Y-193721900D02*
X181743741Y-193579042D01*
X181743741Y-193579042D02*
X181743741Y-193007614D01*
X181743741Y-193007614D02*
X181815169Y-192864757D01*
X181815169Y-192864757D02*
X181958027Y-192793328D01*
X181958027Y-192793328D02*
X182243741Y-192793328D01*
X182243741Y-192793328D02*
X182386598Y-192864757D01*
X182386598Y-192864757D02*
X182458027Y-193007614D01*
X182458027Y-193007614D02*
X182458027Y-193150471D01*
X182458027Y-193150471D02*
X181743741Y-193293328D01*
X183100883Y-193650471D02*
X183172312Y-193721900D01*
X183172312Y-193721900D02*
X183100883Y-193793328D01*
X183100883Y-193793328D02*
X183029455Y-193721900D01*
X183029455Y-193721900D02*
X183100883Y-193650471D01*
X183100883Y-193650471D02*
X183100883Y-193793328D01*
X183100883Y-192864757D02*
X183172312Y-192936185D01*
X183172312Y-192936185D02*
X183100883Y-193007614D01*
X183100883Y-193007614D02*
X183029455Y-192936185D01*
X183029455Y-192936185D02*
X183100883Y-192864757D01*
X183100883Y-192864757D02*
X183100883Y-193007614D01*
X184886598Y-193364757D02*
X185600884Y-193364757D01*
X184743741Y-193793328D02*
X185243741Y-192293328D01*
X185243741Y-192293328D02*
X185743741Y-193793328D01*
X186886598Y-192793328D02*
X186886598Y-193793328D01*
X186529455Y-192221900D02*
X186172312Y-193293328D01*
X186172312Y-193293328D02*
X187100883Y-193293328D01*
D10*
D11*
X263458026Y-196593328D02*
X263458026Y-195093328D01*
X264815170Y-196593328D02*
X264815170Y-195093328D01*
X264815170Y-196521900D02*
X264672312Y-196593328D01*
X264672312Y-196593328D02*
X264386598Y-196593328D01*
X264386598Y-196593328D02*
X264243741Y-196521900D01*
X264243741Y-196521900D02*
X264172312Y-196450471D01*
X264172312Y-196450471D02*
X264100884Y-196307614D01*
X264100884Y-196307614D02*
X264100884Y-195879042D01*
X264100884Y-195879042D02*
X264172312Y-195736185D01*
X264172312Y-195736185D02*
X264243741Y-195664757D01*
X264243741Y-195664757D02*
X264386598Y-195593328D01*
X264386598Y-195593328D02*
X264672312Y-195593328D01*
X264672312Y-195593328D02*
X264815170Y-195664757D01*
X265529455Y-196450471D02*
X265600884Y-196521900D01*
X265600884Y-196521900D02*
X265529455Y-196593328D01*
X265529455Y-196593328D02*
X265458027Y-196521900D01*
X265458027Y-196521900D02*
X265529455Y-196450471D01*
X265529455Y-196450471D02*
X265529455Y-196593328D01*
X265529455Y-195664757D02*
X265600884Y-195736185D01*
X265600884Y-195736185D02*
X265529455Y-195807614D01*
X265529455Y-195807614D02*
X265458027Y-195736185D01*
X265458027Y-195736185D02*
X265529455Y-195664757D01*
X265529455Y-195664757D02*
X265529455Y-195807614D01*
X267243741Y-195093328D02*
X268172313Y-195093328D01*
X268172313Y-195093328D02*
X267672313Y-195664757D01*
X267672313Y-195664757D02*
X267886598Y-195664757D01*
X267886598Y-195664757D02*
X268029456Y-195736185D01*
X268029456Y-195736185D02*
X268100884Y-195807614D01*
X268100884Y-195807614D02*
X268172313Y-195950471D01*
X268172313Y-195950471D02*
X268172313Y-196307614D01*
X268172313Y-196307614D02*
X268100884Y-196450471D01*
X268100884Y-196450471D02*
X268029456Y-196521900D01*
X268029456Y-196521900D02*
X267886598Y-196593328D01*
X267886598Y-196593328D02*
X267458027Y-196593328D01*
X267458027Y-196593328D02*
X267315170Y-196521900D01*
X267315170Y-196521900D02*
X267243741Y-196450471D01*
X269886598Y-195021900D02*
X268600884Y-196950471D01*
X270243741Y-195093328D02*
X271243741Y-195093328D01*
X271243741Y-195093328D02*
X270600884Y-196593328D01*
D10*
D11*
X177002200Y-187507200D02*
X285002200Y-187507200D01*
D10*
D13*
X178693928Y-188211638D02*
X179836785Y-188211638D01*
X179015357Y-190211638D02*
X179265357Y-188211638D01*
X180253452Y-190211638D02*
X180420119Y-188878304D01*
X180503452Y-188211638D02*
X180396309Y-188306876D01*
X180396309Y-188306876D02*
X180479643Y-188402114D01*
X180479643Y-188402114D02*
X180586786Y-188306876D01*
X180586786Y-188306876D02*
X180503452Y-188211638D01*
X180503452Y-188211638D02*
X180479643Y-188402114D01*
X181086786Y-188878304D02*
X181848690Y-188878304D01*
X181455833Y-188211638D02*
X181241548Y-189925923D01*
X181241548Y-189925923D02*
X181312976Y-190116400D01*
X181312976Y-190116400D02*
X181491548Y-190211638D01*
X181491548Y-190211638D02*
X181682024Y-190211638D01*
X182634405Y-190211638D02*
X182455833Y-190116400D01*
X182455833Y-190116400D02*
X182384405Y-189925923D01*
X182384405Y-189925923D02*
X182598690Y-188211638D01*
X184170119Y-190116400D02*
X183967738Y-190211638D01*
X183967738Y-190211638D02*
X183586785Y-190211638D01*
X183586785Y-190211638D02*
X183408214Y-190116400D01*
X183408214Y-190116400D02*
X183336785Y-189925923D01*
X183336785Y-189925923D02*
X183432024Y-189164019D01*
X183432024Y-189164019D02*
X183551071Y-188973542D01*
X183551071Y-188973542D02*
X183753452Y-188878304D01*
X183753452Y-188878304D02*
X184134404Y-188878304D01*
X184134404Y-188878304D02*
X184312976Y-188973542D01*
X184312976Y-188973542D02*
X184384404Y-189164019D01*
X184384404Y-189164019D02*
X184360595Y-189354495D01*
X184360595Y-189354495D02*
X183384404Y-189544971D01*
X185134405Y-190021161D02*
X185217738Y-190116400D01*
X185217738Y-190116400D02*
X185110595Y-190211638D01*
X185110595Y-190211638D02*
X185027262Y-190116400D01*
X185027262Y-190116400D02*
X185134405Y-190021161D01*
X185134405Y-190021161D02*
X185110595Y-190211638D01*
X185265357Y-188973542D02*
X185348690Y-189068780D01*
X185348690Y-189068780D02*
X185241548Y-189164019D01*
X185241548Y-189164019D02*
X185158214Y-189068780D01*
X185158214Y-189068780D02*
X185265357Y-188973542D01*
X185265357Y-188973542D02*
X185241548Y-189164019D01*
D10*
D11*
X178958026Y-185607614D02*
X178458026Y-185607614D01*
X178458026Y-186393328D02*
X178458026Y-184893328D01*
X178458026Y-184893328D02*
X179172312Y-184893328D01*
X179743740Y-186393328D02*
X179743740Y-185393328D01*
X179743740Y-184893328D02*
X179672312Y-184964757D01*
X179672312Y-184964757D02*
X179743740Y-185036185D01*
X179743740Y-185036185D02*
X179815169Y-184964757D01*
X179815169Y-184964757D02*
X179743740Y-184893328D01*
X179743740Y-184893328D02*
X179743740Y-185036185D01*
X180672312Y-186393328D02*
X180529455Y-186321900D01*
X180529455Y-186321900D02*
X180458026Y-186179042D01*
X180458026Y-186179042D02*
X180458026Y-184893328D01*
X181815169Y-186321900D02*
X181672312Y-186393328D01*
X181672312Y-186393328D02*
X181386598Y-186393328D01*
X181386598Y-186393328D02*
X181243740Y-186321900D01*
X181243740Y-186321900D02*
X181172312Y-186179042D01*
X181172312Y-186179042D02*
X181172312Y-185607614D01*
X181172312Y-185607614D02*
X181243740Y-185464757D01*
X181243740Y-185464757D02*
X181386598Y-185393328D01*
X181386598Y-185393328D02*
X181672312Y-185393328D01*
X181672312Y-185393328D02*
X181815169Y-185464757D01*
X181815169Y-185464757D02*
X181886598Y-185607614D01*
X181886598Y-185607614D02*
X181886598Y-185750471D01*
X181886598Y-185750471D02*
X181172312Y-185893328D01*
X182529454Y-186250471D02*
X182600883Y-186321900D01*
X182600883Y-186321900D02*
X182529454Y-186393328D01*
X182529454Y-186393328D02*
X182458026Y-186321900D01*
X182458026Y-186321900D02*
X182529454Y-186250471D01*
X182529454Y-186250471D02*
X182529454Y-186393328D01*
X182529454Y-185464757D02*
X182600883Y-185536185D01*
X182600883Y-185536185D02*
X182529454Y-185607614D01*
X182529454Y-185607614D02*
X182458026Y-185536185D01*
X182458026Y-185536185D02*
X182529454Y-185464757D01*
X182529454Y-185464757D02*
X182529454Y-185607614D01*
X184386597Y-185393328D02*
X184386597Y-186893328D01*
X184386597Y-185464757D02*
X184529455Y-185393328D01*
X184529455Y-185393328D02*
X184815169Y-185393328D01*
X184815169Y-185393328D02*
X184958026Y-185464757D01*
X184958026Y-185464757D02*
X185029455Y-185536185D01*
X185029455Y-185536185D02*
X185100883Y-185679042D01*
X185100883Y-185679042D02*
X185100883Y-186107614D01*
X185100883Y-186107614D02*
X185029455Y-186250471D01*
X185029455Y-186250471D02*
X184958026Y-186321900D01*
X184958026Y-186321900D02*
X184815169Y-186393328D01*
X184815169Y-186393328D02*
X184529455Y-186393328D01*
X184529455Y-186393328D02*
X184386597Y-186321900D01*
X186386598Y-186321900D02*
X186243740Y-186393328D01*
X186243740Y-186393328D02*
X185958026Y-186393328D01*
X185958026Y-186393328D02*
X185815169Y-186321900D01*
X185815169Y-186321900D02*
X185743740Y-186250471D01*
X185743740Y-186250471D02*
X185672312Y-186107614D01*
X185672312Y-186107614D02*
X185672312Y-185679042D01*
X185672312Y-185679042D02*
X185743740Y-185536185D01*
X185743740Y-185536185D02*
X185815169Y-185464757D01*
X185815169Y-185464757D02*
X185958026Y-185393328D01*
X185958026Y-185393328D02*
X186243740Y-185393328D01*
X186243740Y-185393328D02*
X186386598Y-185464757D01*
X187029454Y-186393328D02*
X187029454Y-184893328D01*
X187029454Y-185464757D02*
X187172312Y-185393328D01*
X187172312Y-185393328D02*
X187458026Y-185393328D01*
X187458026Y-185393328D02*
X187600883Y-185464757D01*
X187600883Y-185464757D02*
X187672312Y-185536185D01*
X187672312Y-185536185D02*
X187743740Y-185679042D01*
X187743740Y-185679042D02*
X187743740Y-186107614D01*
X187743740Y-186107614D02*
X187672312Y-186250471D01*
X187672312Y-186250471D02*
X187600883Y-186321900D01*
X187600883Y-186321900D02*
X187458026Y-186393328D01*
X187458026Y-186393328D02*
X187172312Y-186393328D01*
X187172312Y-186393328D02*
X187029454Y-186321900D01*
X188386597Y-186250471D02*
X188458026Y-186321900D01*
X188458026Y-186321900D02*
X188386597Y-186393328D01*
X188386597Y-186393328D02*
X188315169Y-186321900D01*
X188315169Y-186321900D02*
X188386597Y-186250471D01*
X188386597Y-186250471D02*
X188386597Y-186393328D01*
X189100883Y-186393328D02*
X189100883Y-184893328D01*
X189243741Y-185821900D02*
X189672312Y-186393328D01*
X189672312Y-185393328D02*
X189100883Y-185964757D01*
X190315169Y-186393328D02*
X190315169Y-185393328D01*
X190315169Y-184893328D02*
X190243741Y-184964757D01*
X190243741Y-184964757D02*
X190315169Y-185036185D01*
X190315169Y-185036185D02*
X190386598Y-184964757D01*
X190386598Y-184964757D02*
X190315169Y-184893328D01*
X190315169Y-184893328D02*
X190315169Y-185036185D01*
X191672313Y-186321900D02*
X191529455Y-186393328D01*
X191529455Y-186393328D02*
X191243741Y-186393328D01*
X191243741Y-186393328D02*
X191100884Y-186321900D01*
X191100884Y-186321900D02*
X191029455Y-186250471D01*
X191029455Y-186250471D02*
X190958027Y-186107614D01*
X190958027Y-186107614D02*
X190958027Y-185679042D01*
X190958027Y-185679042D02*
X191029455Y-185536185D01*
X191029455Y-185536185D02*
X191100884Y-185464757D01*
X191100884Y-185464757D02*
X191243741Y-185393328D01*
X191243741Y-185393328D02*
X191529455Y-185393328D01*
X191529455Y-185393328D02*
X191672313Y-185464757D01*
X192958027Y-186393328D02*
X192958027Y-185607614D01*
X192958027Y-185607614D02*
X192886598Y-185464757D01*
X192886598Y-185464757D02*
X192743741Y-185393328D01*
X192743741Y-185393328D02*
X192458027Y-185393328D01*
X192458027Y-185393328D02*
X192315169Y-185464757D01*
X192958027Y-186321900D02*
X192815169Y-186393328D01*
X192815169Y-186393328D02*
X192458027Y-186393328D01*
X192458027Y-186393328D02*
X192315169Y-186321900D01*
X192315169Y-186321900D02*
X192243741Y-186179042D01*
X192243741Y-186179042D02*
X192243741Y-186036185D01*
X192243741Y-186036185D02*
X192315169Y-185893328D01*
X192315169Y-185893328D02*
X192458027Y-185821900D01*
X192458027Y-185821900D02*
X192815169Y-185821900D01*
X192815169Y-185821900D02*
X192958027Y-185750471D01*
X194315170Y-186393328D02*
X194315170Y-184893328D01*
X194315170Y-186321900D02*
X194172312Y-186393328D01*
X194172312Y-186393328D02*
X193886598Y-186393328D01*
X193886598Y-186393328D02*
X193743741Y-186321900D01*
X193743741Y-186321900D02*
X193672312Y-186250471D01*
X193672312Y-186250471D02*
X193600884Y-186107614D01*
X193600884Y-186107614D02*
X193600884Y-185679042D01*
X193600884Y-185679042D02*
X193672312Y-185536185D01*
X193672312Y-185536185D02*
X193743741Y-185464757D01*
X193743741Y-185464757D02*
X193886598Y-185393328D01*
X193886598Y-185393328D02*
X194172312Y-185393328D01*
X194172312Y-185393328D02*
X194315170Y-185464757D01*
X194672313Y-186536185D02*
X195815170Y-186536185D01*
X196172312Y-185393328D02*
X196172312Y-186893328D01*
X196172312Y-185464757D02*
X196315170Y-185393328D01*
X196315170Y-185393328D02*
X196600884Y-185393328D01*
X196600884Y-185393328D02*
X196743741Y-185464757D01*
X196743741Y-185464757D02*
X196815170Y-185536185D01*
X196815170Y-185536185D02*
X196886598Y-185679042D01*
X196886598Y-185679042D02*
X196886598Y-186107614D01*
X196886598Y-186107614D02*
X196815170Y-186250471D01*
X196815170Y-186250471D02*
X196743741Y-186321900D01*
X196743741Y-186321900D02*
X196600884Y-186393328D01*
X196600884Y-186393328D02*
X196315170Y-186393328D01*
X196315170Y-186393328D02*
X196172312Y-186321900D01*
X198172313Y-186321900D02*
X198029455Y-186393328D01*
X198029455Y-186393328D02*
X197743741Y-186393328D01*
X197743741Y-186393328D02*
X197600884Y-186321900D01*
X197600884Y-186321900D02*
X197529455Y-186250471D01*
X197529455Y-186250471D02*
X197458027Y-186107614D01*
X197458027Y-186107614D02*
X197458027Y-185679042D01*
X197458027Y-185679042D02*
X197529455Y-185536185D01*
X197529455Y-185536185D02*
X197600884Y-185464757D01*
X197600884Y-185464757D02*
X197743741Y-185393328D01*
X197743741Y-185393328D02*
X198029455Y-185393328D01*
X198029455Y-185393328D02*
X198172313Y-185464757D01*
X198815169Y-186393328D02*
X198815169Y-184893328D01*
X198815169Y-185464757D02*
X198958027Y-185393328D01*
X198958027Y-185393328D02*
X199243741Y-185393328D01*
X199243741Y-185393328D02*
X199386598Y-185464757D01*
X199386598Y-185464757D02*
X199458027Y-185536185D01*
X199458027Y-185536185D02*
X199529455Y-185679042D01*
X199529455Y-185679042D02*
X199529455Y-186107614D01*
X199529455Y-186107614D02*
X199458027Y-186250471D01*
X199458027Y-186250471D02*
X199386598Y-186321900D01*
X199386598Y-186321900D02*
X199243741Y-186393328D01*
X199243741Y-186393328D02*
X198958027Y-186393328D01*
X198958027Y-186393328D02*
X198815169Y-186321900D01*
D10*
D11*
X177002200Y-181507200D02*
X285002200Y-181507200D01*
D10*
D11*
X178386598Y-183621900D02*
X178600884Y-183693328D01*
X178600884Y-183693328D02*
X178958026Y-183693328D01*
X178958026Y-183693328D02*
X179100884Y-183621900D01*
X179100884Y-183621900D02*
X179172312Y-183550471D01*
X179172312Y-183550471D02*
X179243741Y-183407614D01*
X179243741Y-183407614D02*
X179243741Y-183264757D01*
X179243741Y-183264757D02*
X179172312Y-183121900D01*
X179172312Y-183121900D02*
X179100884Y-183050471D01*
X179100884Y-183050471D02*
X178958026Y-182979042D01*
X178958026Y-182979042D02*
X178672312Y-182907614D01*
X178672312Y-182907614D02*
X178529455Y-182836185D01*
X178529455Y-182836185D02*
X178458026Y-182764757D01*
X178458026Y-182764757D02*
X178386598Y-182621900D01*
X178386598Y-182621900D02*
X178386598Y-182479042D01*
X178386598Y-182479042D02*
X178458026Y-182336185D01*
X178458026Y-182336185D02*
X178529455Y-182264757D01*
X178529455Y-182264757D02*
X178672312Y-182193328D01*
X178672312Y-182193328D02*
X179029455Y-182193328D01*
X179029455Y-182193328D02*
X179243741Y-182264757D01*
X179886597Y-183693328D02*
X179886597Y-182193328D01*
X180529455Y-183693328D02*
X180529455Y-182907614D01*
X180529455Y-182907614D02*
X180458026Y-182764757D01*
X180458026Y-182764757D02*
X180315169Y-182693328D01*
X180315169Y-182693328D02*
X180100883Y-182693328D01*
X180100883Y-182693328D02*
X179958026Y-182764757D01*
X179958026Y-182764757D02*
X179886597Y-182836185D01*
X181815169Y-183621900D02*
X181672312Y-183693328D01*
X181672312Y-183693328D02*
X181386598Y-183693328D01*
X181386598Y-183693328D02*
X181243740Y-183621900D01*
X181243740Y-183621900D02*
X181172312Y-183479042D01*
X181172312Y-183479042D02*
X181172312Y-182907614D01*
X181172312Y-182907614D02*
X181243740Y-182764757D01*
X181243740Y-182764757D02*
X181386598Y-182693328D01*
X181386598Y-182693328D02*
X181672312Y-182693328D01*
X181672312Y-182693328D02*
X181815169Y-182764757D01*
X181815169Y-182764757D02*
X181886598Y-182907614D01*
X181886598Y-182907614D02*
X181886598Y-183050471D01*
X181886598Y-183050471D02*
X181172312Y-183193328D01*
X183100883Y-183621900D02*
X182958026Y-183693328D01*
X182958026Y-183693328D02*
X182672312Y-183693328D01*
X182672312Y-183693328D02*
X182529454Y-183621900D01*
X182529454Y-183621900D02*
X182458026Y-183479042D01*
X182458026Y-183479042D02*
X182458026Y-182907614D01*
X182458026Y-182907614D02*
X182529454Y-182764757D01*
X182529454Y-182764757D02*
X182672312Y-182693328D01*
X182672312Y-182693328D02*
X182958026Y-182693328D01*
X182958026Y-182693328D02*
X183100883Y-182764757D01*
X183100883Y-182764757D02*
X183172312Y-182907614D01*
X183172312Y-182907614D02*
X183172312Y-183050471D01*
X183172312Y-183050471D02*
X182458026Y-183193328D01*
X183600883Y-182693328D02*
X184172311Y-182693328D01*
X183815168Y-182193328D02*
X183815168Y-183479042D01*
X183815168Y-183479042D02*
X183886597Y-183621900D01*
X183886597Y-183621900D02*
X184029454Y-183693328D01*
X184029454Y-183693328D02*
X184172311Y-183693328D01*
X184672311Y-183550471D02*
X184743740Y-183621900D01*
X184743740Y-183621900D02*
X184672311Y-183693328D01*
X184672311Y-183693328D02*
X184600883Y-183621900D01*
X184600883Y-183621900D02*
X184672311Y-183550471D01*
X184672311Y-183550471D02*
X184672311Y-183693328D01*
X184672311Y-182764757D02*
X184743740Y-182836185D01*
X184743740Y-182836185D02*
X184672311Y-182907614D01*
X184672311Y-182907614D02*
X184600883Y-182836185D01*
X184600883Y-182836185D02*
X184672311Y-182764757D01*
X184672311Y-182764757D02*
X184672311Y-182907614D01*
D10*
D11*
X197002200Y-191507200D02*
X197002200Y-194507200D01*
D10*
D11*
X261002200Y-191507200D02*
X261002200Y-198007200D01*
X106741541Y-79094875D02*
X106979636Y-80094875D01*
X106979636Y-80094875D02*
X107170112Y-79380589D01*
X107170112Y-79380589D02*
X107360588Y-80094875D01*
X107360588Y-80094875D02*
X107598684Y-79094875D01*
X108551064Y-80094875D02*
X108217731Y-79618684D01*
X107979636Y-80094875D02*
X107979636Y-79094875D01*
X107979636Y-79094875D02*
X108360588Y-79094875D01*
X108360588Y-79094875D02*
X108455826Y-79142494D01*
X108455826Y-79142494D02*
X108503445Y-79190113D01*
X108503445Y-79190113D02*
X108551064Y-79285351D01*
X108551064Y-79285351D02*
X108551064Y-79428208D01*
X108551064Y-79428208D02*
X108503445Y-79523446D01*
X108503445Y-79523446D02*
X108455826Y-79571065D01*
X108455826Y-79571065D02*
X108360588Y-79618684D01*
X108360588Y-79618684D02*
X107979636Y-79618684D01*
X109170112Y-79094875D02*
X109360588Y-79094875D01*
X109360588Y-79094875D02*
X109455826Y-79142494D01*
X109455826Y-79142494D02*
X109551064Y-79237732D01*
X109551064Y-79237732D02*
X109598683Y-79428208D01*
X109598683Y-79428208D02*
X109598683Y-79761541D01*
X109598683Y-79761541D02*
X109551064Y-79952017D01*
X109551064Y-79952017D02*
X109455826Y-80047256D01*
X109455826Y-80047256D02*
X109360588Y-80094875D01*
X109360588Y-80094875D02*
X109170112Y-80094875D01*
X109170112Y-80094875D02*
X109074874Y-80047256D01*
X109074874Y-80047256D02*
X108979636Y-79952017D01*
X108979636Y-79952017D02*
X108932017Y-79761541D01*
X108932017Y-79761541D02*
X108932017Y-79428208D01*
X108932017Y-79428208D02*
X108979636Y-79237732D01*
X108979636Y-79237732D02*
X109074874Y-79142494D01*
X109074874Y-79142494D02*
X109170112Y-79094875D01*
X109979636Y-79190113D02*
X110027255Y-79142494D01*
X110027255Y-79142494D02*
X110122493Y-79094875D01*
X110122493Y-79094875D02*
X110360588Y-79094875D01*
X110360588Y-79094875D02*
X110455826Y-79142494D01*
X110455826Y-79142494D02*
X110503445Y-79190113D01*
X110503445Y-79190113D02*
X110551064Y-79285351D01*
X110551064Y-79285351D02*
X110551064Y-79380589D01*
X110551064Y-79380589D02*
X110503445Y-79523446D01*
X110503445Y-79523446D02*
X109932017Y-80094875D01*
X109932017Y-80094875D02*
X110551064Y-80094875D01*
X111170112Y-79094875D02*
X111265350Y-79094875D01*
X111265350Y-79094875D02*
X111360588Y-79142494D01*
X111360588Y-79142494D02*
X111408207Y-79190113D01*
X111408207Y-79190113D02*
X111455826Y-79285351D01*
X111455826Y-79285351D02*
X111503445Y-79475827D01*
X111503445Y-79475827D02*
X111503445Y-79713922D01*
X111503445Y-79713922D02*
X111455826Y-79904398D01*
X111455826Y-79904398D02*
X111408207Y-79999636D01*
X111408207Y-79999636D02*
X111360588Y-80047256D01*
X111360588Y-80047256D02*
X111265350Y-80094875D01*
X111265350Y-80094875D02*
X111170112Y-80094875D01*
X111170112Y-80094875D02*
X111074874Y-80047256D01*
X111074874Y-80047256D02*
X111027255Y-79999636D01*
X111027255Y-79999636D02*
X110979636Y-79904398D01*
X110979636Y-79904398D02*
X110932017Y-79713922D01*
X110932017Y-79713922D02*
X110932017Y-79475827D01*
X110932017Y-79475827D02*
X110979636Y-79285351D01*
X110979636Y-79285351D02*
X111027255Y-79190113D01*
X111027255Y-79190113D02*
X111074874Y-79142494D01*
X111074874Y-79142494D02*
X111170112Y-79094875D01*
X111884398Y-79190113D02*
X111932017Y-79142494D01*
X111932017Y-79142494D02*
X112027255Y-79094875D01*
X112027255Y-79094875D02*
X112265350Y-79094875D01*
X112265350Y-79094875D02*
X112360588Y-79142494D01*
X112360588Y-79142494D02*
X112408207Y-79190113D01*
X112408207Y-79190113D02*
X112455826Y-79285351D01*
X112455826Y-79285351D02*
X112455826Y-79380589D01*
X112455826Y-79380589D02*
X112408207Y-79523446D01*
X112408207Y-79523446D02*
X111836779Y-80094875D01*
X111836779Y-80094875D02*
X112455826Y-80094875D01*
X113360588Y-79094875D02*
X112884398Y-79094875D01*
X112884398Y-79094875D02*
X112836779Y-79571065D01*
X112836779Y-79571065D02*
X112884398Y-79523446D01*
X112884398Y-79523446D02*
X112979636Y-79475827D01*
X112979636Y-79475827D02*
X113217731Y-79475827D01*
X113217731Y-79475827D02*
X113312969Y-79523446D01*
X113312969Y-79523446D02*
X113360588Y-79571065D01*
X113360588Y-79571065D02*
X113408207Y-79666303D01*
X113408207Y-79666303D02*
X113408207Y-79904398D01*
X113408207Y-79904398D02*
X113360588Y-79999636D01*
X113360588Y-79999636D02*
X113312969Y-80047256D01*
X113312969Y-80047256D02*
X113217731Y-80094875D01*
X113217731Y-80094875D02*
X112979636Y-80094875D01*
X112979636Y-80094875D02*
X112884398Y-80047256D01*
X112884398Y-80047256D02*
X112836779Y-79999636D01*
X106693922Y-80704819D02*
X107265350Y-80704819D01*
X106979636Y-81704819D02*
X106979636Y-80704819D01*
X107598684Y-81704819D02*
X107598684Y-80704819D01*
X107598684Y-80704819D02*
X108170112Y-81704819D01*
X108170112Y-81704819D02*
X108170112Y-80704819D01*
X109217731Y-81609580D02*
X109170112Y-81657200D01*
X109170112Y-81657200D02*
X109027255Y-81704819D01*
X109027255Y-81704819D02*
X108932017Y-81704819D01*
X108932017Y-81704819D02*
X108789160Y-81657200D01*
X108789160Y-81657200D02*
X108693922Y-81561961D01*
X108693922Y-81561961D02*
X108646303Y-81466723D01*
X108646303Y-81466723D02*
X108598684Y-81276247D01*
X108598684Y-81276247D02*
X108598684Y-81133390D01*
X108598684Y-81133390D02*
X108646303Y-80942914D01*
X108646303Y-80942914D02*
X108693922Y-80847676D01*
X108693922Y-80847676D02*
X108789160Y-80752438D01*
X108789160Y-80752438D02*
X108932017Y-80704819D01*
X108932017Y-80704819D02*
X109027255Y-80704819D01*
X109027255Y-80704819D02*
X109170112Y-80752438D01*
X109170112Y-80752438D02*
X109217731Y-80800057D01*
X107408207Y-83314763D02*
X107074874Y-82838572D01*
X106836779Y-83314763D02*
X106836779Y-82314763D01*
X106836779Y-82314763D02*
X107217731Y-82314763D01*
X107217731Y-82314763D02*
X107312969Y-82362382D01*
X107312969Y-82362382D02*
X107360588Y-82410001D01*
X107360588Y-82410001D02*
X107408207Y-82505239D01*
X107408207Y-82505239D02*
X107408207Y-82648096D01*
X107408207Y-82648096D02*
X107360588Y-82743334D01*
X107360588Y-82743334D02*
X107312969Y-82790953D01*
X107312969Y-82790953D02*
X107217731Y-82838572D01*
X107217731Y-82838572D02*
X106836779Y-82838572D01*
X108217731Y-83267144D02*
X108122493Y-83314763D01*
X108122493Y-83314763D02*
X107932017Y-83314763D01*
X107932017Y-83314763D02*
X107836779Y-83267144D01*
X107836779Y-83267144D02*
X107789160Y-83171905D01*
X107789160Y-83171905D02*
X107789160Y-82790953D01*
X107789160Y-82790953D02*
X107836779Y-82695715D01*
X107836779Y-82695715D02*
X107932017Y-82648096D01*
X107932017Y-82648096D02*
X108122493Y-82648096D01*
X108122493Y-82648096D02*
X108217731Y-82695715D01*
X108217731Y-82695715D02*
X108265350Y-82790953D01*
X108265350Y-82790953D02*
X108265350Y-82886191D01*
X108265350Y-82886191D02*
X107789160Y-82981429D01*
X108598684Y-82648096D02*
X108836779Y-83314763D01*
X108836779Y-83314763D02*
X109074874Y-82648096D01*
X110741541Y-83314763D02*
X110170113Y-83314763D01*
X110455827Y-83314763D02*
X110455827Y-82314763D01*
X110455827Y-82314763D02*
X110360589Y-82457620D01*
X110360589Y-82457620D02*
X110265351Y-82552858D01*
X110265351Y-82552858D02*
X110170113Y-82600477D01*
X111170113Y-83219524D02*
X111217732Y-83267144D01*
X111217732Y-83267144D02*
X111170113Y-83314763D01*
X111170113Y-83314763D02*
X111122494Y-83267144D01*
X111122494Y-83267144D02*
X111170113Y-83219524D01*
X111170113Y-83219524D02*
X111170113Y-83314763D01*
X112170112Y-83314763D02*
X111598684Y-83314763D01*
X111884398Y-83314763D02*
X111884398Y-82314763D01*
X111884398Y-82314763D02*
X111789160Y-82457620D01*
X111789160Y-82457620D02*
X111693922Y-82552858D01*
X111693922Y-82552858D02*
X111598684Y-82600477D01*
D10*
X170338095Y-72207419D02*
X170338095Y-73016942D01*
X170338095Y-73016942D02*
X170385714Y-73112180D01*
X170385714Y-73112180D02*
X170433333Y-73159800D01*
X170433333Y-73159800D02*
X170528571Y-73207419D01*
X170528571Y-73207419D02*
X170719047Y-73207419D01*
X170719047Y-73207419D02*
X170814285Y-73159800D01*
X170814285Y-73159800D02*
X170861904Y-73112180D01*
X170861904Y-73112180D02*
X170909523Y-73016942D01*
X170909523Y-73016942D02*
X170909523Y-72207419D01*
X171814285Y-72540752D02*
X171814285Y-73207419D01*
X171576190Y-72159800D02*
X171338095Y-72874085D01*
X171338095Y-72874085D02*
X171957142Y-72874085D01*
X169449048Y-77991466D02*
X170210953Y-77991466D01*
X169830000Y-78372419D02*
X169830000Y-77610514D01*
X166909048Y-77991466D02*
X167670953Y-77991466D01*
X115434285Y-72683609D02*
X115577142Y-72731228D01*
X115577142Y-72731228D02*
X115624761Y-72778847D01*
X115624761Y-72778847D02*
X115672380Y-72874085D01*
X115672380Y-72874085D02*
X115672380Y-73016942D01*
X115672380Y-73016942D02*
X115624761Y-73112180D01*
X115624761Y-73112180D02*
X115577142Y-73159800D01*
X115577142Y-73159800D02*
X115481904Y-73207419D01*
X115481904Y-73207419D02*
X115100952Y-73207419D01*
X115100952Y-73207419D02*
X115100952Y-72207419D01*
X115100952Y-72207419D02*
X115434285Y-72207419D01*
X115434285Y-72207419D02*
X115529523Y-72255038D01*
X115529523Y-72255038D02*
X115577142Y-72302657D01*
X115577142Y-72302657D02*
X115624761Y-72397895D01*
X115624761Y-72397895D02*
X115624761Y-72493133D01*
X115624761Y-72493133D02*
X115577142Y-72588371D01*
X115577142Y-72588371D02*
X115529523Y-72635990D01*
X115529523Y-72635990D02*
X115434285Y-72683609D01*
X115434285Y-72683609D02*
X115100952Y-72683609D01*
X115958095Y-72207419D02*
X116529523Y-72207419D01*
X116243809Y-73207419D02*
X116243809Y-72207419D01*
X117386666Y-73207419D02*
X116815238Y-73207419D01*
X117100952Y-73207419D02*
X117100952Y-72207419D01*
X117100952Y-72207419D02*
X117005714Y-72350276D01*
X117005714Y-72350276D02*
X116910476Y-72445514D01*
X116910476Y-72445514D02*
X116815238Y-72493133D01*
X117089048Y-78041466D02*
X117850953Y-78041466D01*
X117470000Y-78422419D02*
X117470000Y-77660514D01*
X114549048Y-78041466D02*
X115310953Y-78041466D01*
X137928095Y-72207419D02*
X137928095Y-73016942D01*
X137928095Y-73016942D02*
X137975714Y-73112180D01*
X137975714Y-73112180D02*
X138023333Y-73159800D01*
X138023333Y-73159800D02*
X138118571Y-73207419D01*
X138118571Y-73207419D02*
X138309047Y-73207419D01*
X138309047Y-73207419D02*
X138404285Y-73159800D01*
X138404285Y-73159800D02*
X138451904Y-73112180D01*
X138451904Y-73112180D02*
X138499523Y-73016942D01*
X138499523Y-73016942D02*
X138499523Y-72207419D01*
X138880476Y-72207419D02*
X139499523Y-72207419D01*
X139499523Y-72207419D02*
X139166190Y-72588371D01*
X139166190Y-72588371D02*
X139309047Y-72588371D01*
X139309047Y-72588371D02*
X139404285Y-72635990D01*
X139404285Y-72635990D02*
X139451904Y-72683609D01*
X139451904Y-72683609D02*
X139499523Y-72778847D01*
X139499523Y-72778847D02*
X139499523Y-73016942D01*
X139499523Y-73016942D02*
X139451904Y-73112180D01*
X139451904Y-73112180D02*
X139404285Y-73159800D01*
X139404285Y-73159800D02*
X139309047Y-73207419D01*
X139309047Y-73207419D02*
X139023333Y-73207419D01*
X139023333Y-73207419D02*
X138928095Y-73159800D01*
X138928095Y-73159800D02*
X138880476Y-73112180D01*
X133189048Y-77991466D02*
X133950953Y-77991466D01*
X135729048Y-77991466D02*
X136490953Y-77991466D01*
X136110000Y-78372419D02*
X136110000Y-77610514D01*
X154690476Y-73207419D02*
X154690476Y-72207419D01*
X154690476Y-72207419D02*
X155023809Y-72921704D01*
X155023809Y-72921704D02*
X155357142Y-72207419D01*
X155357142Y-72207419D02*
X155357142Y-73207419D01*
X156357142Y-73207419D02*
X155785714Y-73207419D01*
X156071428Y-73207419D02*
X156071428Y-72207419D01*
X156071428Y-72207419D02*
X155976190Y-72350276D01*
X155976190Y-72350276D02*
X155880952Y-72445514D01*
X155880952Y-72445514D02*
X155785714Y-72493133D01*
X153849048Y-77991466D02*
X154610953Y-77991466D01*
X154230000Y-78372419D02*
X154230000Y-77610514D01*
X161469048Y-77991466D02*
X162230953Y-77991466D01*
X122968095Y-99457419D02*
X122968095Y-100266942D01*
X122968095Y-100266942D02*
X123015714Y-100362180D01*
X123015714Y-100362180D02*
X123063333Y-100409800D01*
X123063333Y-100409800D02*
X123158571Y-100457419D01*
X123158571Y-100457419D02*
X123349047Y-100457419D01*
X123349047Y-100457419D02*
X123444285Y-100409800D01*
X123444285Y-100409800D02*
X123491904Y-100362180D01*
X123491904Y-100362180D02*
X123539523Y-100266942D01*
X123539523Y-100266942D02*
X123539523Y-99457419D01*
X124539523Y-100457419D02*
X123968095Y-100457419D01*
X124253809Y-100457419D02*
X124253809Y-99457419D01*
X124253809Y-99457419D02*
X124158571Y-99600276D01*
X124158571Y-99600276D02*
X124063333Y-99695514D01*
X124063333Y-99695514D02*
X123968095Y-99743133D01*
X182340200Y-118206667D02*
X182292580Y-118349524D01*
X182292580Y-118349524D02*
X182292580Y-118587619D01*
X182292580Y-118587619D02*
X182340200Y-118682857D01*
X182340200Y-118682857D02*
X182387819Y-118730476D01*
X182387819Y-118730476D02*
X182483057Y-118778095D01*
X182483057Y-118778095D02*
X182578295Y-118778095D01*
X182578295Y-118778095D02*
X182673533Y-118730476D01*
X182673533Y-118730476D02*
X182721152Y-118682857D01*
X182721152Y-118682857D02*
X182768771Y-118587619D01*
X182768771Y-118587619D02*
X182816390Y-118397143D01*
X182816390Y-118397143D02*
X182864009Y-118301905D01*
X182864009Y-118301905D02*
X182911628Y-118254286D01*
X182911628Y-118254286D02*
X183006866Y-118206667D01*
X183006866Y-118206667D02*
X183102104Y-118206667D01*
X183102104Y-118206667D02*
X183197342Y-118254286D01*
X183197342Y-118254286D02*
X183244961Y-118301905D01*
X183244961Y-118301905D02*
X183292580Y-118397143D01*
X183292580Y-118397143D02*
X183292580Y-118635238D01*
X183292580Y-118635238D02*
X183244961Y-118778095D01*
X183292580Y-119111429D02*
X182292580Y-119349524D01*
X182292580Y-119349524D02*
X183006866Y-119540000D01*
X183006866Y-119540000D02*
X182292580Y-119730476D01*
X182292580Y-119730476D02*
X183292580Y-119968572D01*
X182292580Y-120873333D02*
X182292580Y-120301905D01*
X182292580Y-120587619D02*
X183292580Y-120587619D01*
X183292580Y-120587619D02*
X183149723Y-120492381D01*
X183149723Y-120492381D02*
X183054485Y-120397143D01*
X183054485Y-120397143D02*
X183006866Y-120301905D01*
X169095238Y-116933609D02*
X169238095Y-116981228D01*
X169238095Y-116981228D02*
X169285714Y-117028847D01*
X169285714Y-117028847D02*
X169333333Y-117124085D01*
X169333333Y-117124085D02*
X169333333Y-117266942D01*
X169333333Y-117266942D02*
X169285714Y-117362180D01*
X169285714Y-117362180D02*
X169238095Y-117409800D01*
X169238095Y-117409800D02*
X169142857Y-117457419D01*
X169142857Y-117457419D02*
X168761905Y-117457419D01*
X168761905Y-117457419D02*
X168761905Y-116457419D01*
X168761905Y-116457419D02*
X169095238Y-116457419D01*
X169095238Y-116457419D02*
X169190476Y-116505038D01*
X169190476Y-116505038D02*
X169238095Y-116552657D01*
X169238095Y-116552657D02*
X169285714Y-116647895D01*
X169285714Y-116647895D02*
X169285714Y-116743133D01*
X169285714Y-116743133D02*
X169238095Y-116838371D01*
X169238095Y-116838371D02*
X169190476Y-116885990D01*
X169190476Y-116885990D02*
X169095238Y-116933609D01*
X169095238Y-116933609D02*
X168761905Y-116933609D01*
X170285714Y-117457419D02*
X169714286Y-117457419D01*
X170000000Y-117457419D02*
X170000000Y-116457419D01*
X170000000Y-116457419D02*
X169904762Y-116600276D01*
X169904762Y-116600276D02*
X169809524Y-116695514D01*
X169809524Y-116695514D02*
X169714286Y-116743133D01*
X123563333Y-114362180D02*
X123515714Y-114409800D01*
X123515714Y-114409800D02*
X123372857Y-114457419D01*
X123372857Y-114457419D02*
X123277619Y-114457419D01*
X123277619Y-114457419D02*
X123134762Y-114409800D01*
X123134762Y-114409800D02*
X123039524Y-114314561D01*
X123039524Y-114314561D02*
X122991905Y-114219323D01*
X122991905Y-114219323D02*
X122944286Y-114028847D01*
X122944286Y-114028847D02*
X122944286Y-113885990D01*
X122944286Y-113885990D02*
X122991905Y-113695514D01*
X122991905Y-113695514D02*
X123039524Y-113600276D01*
X123039524Y-113600276D02*
X123134762Y-113505038D01*
X123134762Y-113505038D02*
X123277619Y-113457419D01*
X123277619Y-113457419D02*
X123372857Y-113457419D01*
X123372857Y-113457419D02*
X123515714Y-113505038D01*
X123515714Y-113505038D02*
X123563333Y-113552657D01*
X124515714Y-114457419D02*
X123944286Y-114457419D01*
X124230000Y-114457419D02*
X124230000Y-113457419D01*
X124230000Y-113457419D02*
X124134762Y-113600276D01*
X124134762Y-113600276D02*
X124039524Y-113695514D01*
X124039524Y-113695514D02*
X123944286Y-113743133D01*
X121753809Y-122957419D02*
X121420476Y-122481228D01*
X121182381Y-122957419D02*
X121182381Y-121957419D01*
X121182381Y-121957419D02*
X121563333Y-121957419D01*
X121563333Y-121957419D02*
X121658571Y-122005038D01*
X121658571Y-122005038D02*
X121706190Y-122052657D01*
X121706190Y-122052657D02*
X121753809Y-122147895D01*
X121753809Y-122147895D02*
X121753809Y-122290752D01*
X121753809Y-122290752D02*
X121706190Y-122385990D01*
X121706190Y-122385990D02*
X121658571Y-122433609D01*
X121658571Y-122433609D02*
X121563333Y-122481228D01*
X121563333Y-122481228D02*
X121182381Y-122481228D01*
X122039524Y-121957419D02*
X122610952Y-121957419D01*
X122325238Y-122957419D02*
X122325238Y-121957419D01*
X123468095Y-122957419D02*
X122896667Y-122957419D01*
X123182381Y-122957419D02*
X123182381Y-121957419D01*
X123182381Y-121957419D02*
X123087143Y-122100276D01*
X123087143Y-122100276D02*
X122991905Y-122195514D01*
X122991905Y-122195514D02*
X122896667Y-122243133D01*
X124087143Y-121957419D02*
X124182381Y-121957419D01*
X124182381Y-121957419D02*
X124277619Y-122005038D01*
X124277619Y-122005038D02*
X124325238Y-122052657D01*
X124325238Y-122052657D02*
X124372857Y-122147895D01*
X124372857Y-122147895D02*
X124420476Y-122338371D01*
X124420476Y-122338371D02*
X124420476Y-122576466D01*
X124420476Y-122576466D02*
X124372857Y-122766942D01*
X124372857Y-122766942D02*
X124325238Y-122862180D01*
X124325238Y-122862180D02*
X124277619Y-122909800D01*
X124277619Y-122909800D02*
X124182381Y-122957419D01*
X124182381Y-122957419D02*
X124087143Y-122957419D01*
X124087143Y-122957419D02*
X123991905Y-122909800D01*
X123991905Y-122909800D02*
X123944286Y-122862180D01*
X123944286Y-122862180D02*
X123896667Y-122766942D01*
X123896667Y-122766942D02*
X123849048Y-122576466D01*
X123849048Y-122576466D02*
X123849048Y-122338371D01*
X123849048Y-122338371D02*
X123896667Y-122147895D01*
X123896667Y-122147895D02*
X123944286Y-122052657D01*
X123944286Y-122052657D02*
X123991905Y-122005038D01*
X123991905Y-122005038D02*
X124087143Y-121957419D01*
X125277619Y-121957419D02*
X125087143Y-121957419D01*
X125087143Y-121957419D02*
X124991905Y-122005038D01*
X124991905Y-122005038D02*
X124944286Y-122052657D01*
X124944286Y-122052657D02*
X124849048Y-122195514D01*
X124849048Y-122195514D02*
X124801429Y-122385990D01*
X124801429Y-122385990D02*
X124801429Y-122766942D01*
X124801429Y-122766942D02*
X124849048Y-122862180D01*
X124849048Y-122862180D02*
X124896667Y-122909800D01*
X124896667Y-122909800D02*
X124991905Y-122957419D01*
X124991905Y-122957419D02*
X125182381Y-122957419D01*
X125182381Y-122957419D02*
X125277619Y-122909800D01*
X125277619Y-122909800D02*
X125325238Y-122862180D01*
X125325238Y-122862180D02*
X125372857Y-122766942D01*
X125372857Y-122766942D02*
X125372857Y-122528847D01*
X125372857Y-122528847D02*
X125325238Y-122433609D01*
X125325238Y-122433609D02*
X125277619Y-122385990D01*
X125277619Y-122385990D02*
X125182381Y-122338371D01*
X125182381Y-122338371D02*
X124991905Y-122338371D01*
X124991905Y-122338371D02*
X124896667Y-122385990D01*
X124896667Y-122385990D02*
X124849048Y-122433609D01*
X124849048Y-122433609D02*
X124801429Y-122528847D01*
X125753810Y-122052657D02*
X125801429Y-122005038D01*
X125801429Y-122005038D02*
X125896667Y-121957419D01*
X125896667Y-121957419D02*
X126134762Y-121957419D01*
X126134762Y-121957419D02*
X126230000Y-122005038D01*
X126230000Y-122005038D02*
X126277619Y-122052657D01*
X126277619Y-122052657D02*
X126325238Y-122147895D01*
X126325238Y-122147895D02*
X126325238Y-122243133D01*
X126325238Y-122243133D02*
X126277619Y-122385990D01*
X126277619Y-122385990D02*
X125706191Y-122957419D01*
X125706191Y-122957419D02*
X126325238Y-122957419D01*
X119301428Y-119957419D02*
X119491904Y-119957419D01*
X119491904Y-119957419D02*
X119587142Y-120005038D01*
X119587142Y-120005038D02*
X119682380Y-120100276D01*
X119682380Y-120100276D02*
X119729999Y-120290752D01*
X119729999Y-120290752D02*
X119729999Y-120624085D01*
X119729999Y-120624085D02*
X119682380Y-120814561D01*
X119682380Y-120814561D02*
X119587142Y-120909800D01*
X119587142Y-120909800D02*
X119491904Y-120957419D01*
X119491904Y-120957419D02*
X119301428Y-120957419D01*
X119301428Y-120957419D02*
X119206190Y-120909800D01*
X119206190Y-120909800D02*
X119110952Y-120814561D01*
X119110952Y-120814561D02*
X119063333Y-120624085D01*
X119063333Y-120624085D02*
X119063333Y-120290752D01*
X119063333Y-120290752D02*
X119110952Y-120100276D01*
X119110952Y-120100276D02*
X119206190Y-120005038D01*
X119206190Y-120005038D02*
X119301428Y-119957419D01*
X120158571Y-120290752D02*
X120158571Y-121290752D01*
X120158571Y-120338371D02*
X120253809Y-120290752D01*
X120253809Y-120290752D02*
X120444285Y-120290752D01*
X120444285Y-120290752D02*
X120539523Y-120338371D01*
X120539523Y-120338371D02*
X120587142Y-120385990D01*
X120587142Y-120385990D02*
X120634761Y-120481228D01*
X120634761Y-120481228D02*
X120634761Y-120766942D01*
X120634761Y-120766942D02*
X120587142Y-120862180D01*
X120587142Y-120862180D02*
X120539523Y-120909800D01*
X120539523Y-120909800D02*
X120444285Y-120957419D01*
X120444285Y-120957419D02*
X120253809Y-120957419D01*
X120253809Y-120957419D02*
X120158571Y-120909800D01*
X121444285Y-120909800D02*
X121349047Y-120957419D01*
X121349047Y-120957419D02*
X121158571Y-120957419D01*
X121158571Y-120957419D02*
X121063333Y-120909800D01*
X121063333Y-120909800D02*
X121015714Y-120814561D01*
X121015714Y-120814561D02*
X121015714Y-120433609D01*
X121015714Y-120433609D02*
X121063333Y-120338371D01*
X121063333Y-120338371D02*
X121158571Y-120290752D01*
X121158571Y-120290752D02*
X121349047Y-120290752D01*
X121349047Y-120290752D02*
X121444285Y-120338371D01*
X121444285Y-120338371D02*
X121491904Y-120433609D01*
X121491904Y-120433609D02*
X121491904Y-120528847D01*
X121491904Y-120528847D02*
X121015714Y-120624085D01*
X121920476Y-120290752D02*
X121920476Y-120957419D01*
X121920476Y-120385990D02*
X121968095Y-120338371D01*
X121968095Y-120338371D02*
X122063333Y-120290752D01*
X122063333Y-120290752D02*
X122206190Y-120290752D01*
X122206190Y-120290752D02*
X122301428Y-120338371D01*
X122301428Y-120338371D02*
X122349047Y-120433609D01*
X122349047Y-120433609D02*
X122349047Y-120957419D01*
X122825238Y-120957419D02*
X122825238Y-119957419D01*
X122825238Y-119957419D02*
X123158571Y-120671704D01*
X123158571Y-120671704D02*
X123491904Y-119957419D01*
X123491904Y-119957419D02*
X123491904Y-120957419D01*
X123825238Y-119957419D02*
X124158571Y-120957419D01*
X124158571Y-120957419D02*
X124491904Y-119957419D01*
X126158571Y-120862180D02*
X126110952Y-120909800D01*
X126110952Y-120909800D02*
X125968095Y-120957419D01*
X125968095Y-120957419D02*
X125872857Y-120957419D01*
X125872857Y-120957419D02*
X125730000Y-120909800D01*
X125730000Y-120909800D02*
X125634762Y-120814561D01*
X125634762Y-120814561D02*
X125587143Y-120719323D01*
X125587143Y-120719323D02*
X125539524Y-120528847D01*
X125539524Y-120528847D02*
X125539524Y-120385990D01*
X125539524Y-120385990D02*
X125587143Y-120195514D01*
X125587143Y-120195514D02*
X125634762Y-120100276D01*
X125634762Y-120100276D02*
X125730000Y-120005038D01*
X125730000Y-120005038D02*
X125872857Y-119957419D01*
X125872857Y-119957419D02*
X125968095Y-119957419D01*
X125968095Y-119957419D02*
X126110952Y-120005038D01*
X126110952Y-120005038D02*
X126158571Y-120052657D01*
X127015714Y-120957419D02*
X127015714Y-120433609D01*
X127015714Y-120433609D02*
X126968095Y-120338371D01*
X126968095Y-120338371D02*
X126872857Y-120290752D01*
X126872857Y-120290752D02*
X126682381Y-120290752D01*
X126682381Y-120290752D02*
X126587143Y-120338371D01*
X127015714Y-120909800D02*
X126920476Y-120957419D01*
X126920476Y-120957419D02*
X126682381Y-120957419D01*
X126682381Y-120957419D02*
X126587143Y-120909800D01*
X126587143Y-120909800D02*
X126539524Y-120814561D01*
X126539524Y-120814561D02*
X126539524Y-120719323D01*
X126539524Y-120719323D02*
X126587143Y-120624085D01*
X126587143Y-120624085D02*
X126682381Y-120576466D01*
X126682381Y-120576466D02*
X126920476Y-120576466D01*
X126920476Y-120576466D02*
X127015714Y-120528847D01*
X127491905Y-120957419D02*
X127491905Y-120290752D01*
X127491905Y-120385990D02*
X127539524Y-120338371D01*
X127539524Y-120338371D02*
X127634762Y-120290752D01*
X127634762Y-120290752D02*
X127777619Y-120290752D01*
X127777619Y-120290752D02*
X127872857Y-120338371D01*
X127872857Y-120338371D02*
X127920476Y-120433609D01*
X127920476Y-120433609D02*
X127920476Y-120957419D01*
X127920476Y-120433609D02*
X127968095Y-120338371D01*
X127968095Y-120338371D02*
X128063333Y-120290752D01*
X128063333Y-120290752D02*
X128206190Y-120290752D01*
X128206190Y-120290752D02*
X128301429Y-120338371D01*
X128301429Y-120338371D02*
X128349048Y-120433609D01*
X128349048Y-120433609D02*
X128349048Y-120957419D01*
X132164209Y-102957419D02*
X131830876Y-102481228D01*
X131592781Y-102957419D02*
X131592781Y-101957419D01*
X131592781Y-101957419D02*
X131973733Y-101957419D01*
X131973733Y-101957419D02*
X132068971Y-102005038D01*
X132068971Y-102005038D02*
X132116590Y-102052657D01*
X132116590Y-102052657D02*
X132164209Y-102147895D01*
X132164209Y-102147895D02*
X132164209Y-102290752D01*
X132164209Y-102290752D02*
X132116590Y-102385990D01*
X132116590Y-102385990D02*
X132068971Y-102433609D01*
X132068971Y-102433609D02*
X131973733Y-102481228D01*
X131973733Y-102481228D02*
X131592781Y-102481228D01*
X132592781Y-102957419D02*
X132592781Y-102290752D01*
X132592781Y-101957419D02*
X132545162Y-102005038D01*
X132545162Y-102005038D02*
X132592781Y-102052657D01*
X132592781Y-102052657D02*
X132640400Y-102005038D01*
X132640400Y-102005038D02*
X132592781Y-101957419D01*
X132592781Y-101957419D02*
X132592781Y-102052657D01*
X133497542Y-102290752D02*
X133497542Y-103100276D01*
X133497542Y-103100276D02*
X133449923Y-103195514D01*
X133449923Y-103195514D02*
X133402304Y-103243133D01*
X133402304Y-103243133D02*
X133307066Y-103290752D01*
X133307066Y-103290752D02*
X133164209Y-103290752D01*
X133164209Y-103290752D02*
X133068971Y-103243133D01*
X133497542Y-102909800D02*
X133402304Y-102957419D01*
X133402304Y-102957419D02*
X133211828Y-102957419D01*
X133211828Y-102957419D02*
X133116590Y-102909800D01*
X133116590Y-102909800D02*
X133068971Y-102862180D01*
X133068971Y-102862180D02*
X133021352Y-102766942D01*
X133021352Y-102766942D02*
X133021352Y-102481228D01*
X133021352Y-102481228D02*
X133068971Y-102385990D01*
X133068971Y-102385990D02*
X133116590Y-102338371D01*
X133116590Y-102338371D02*
X133211828Y-102290752D01*
X133211828Y-102290752D02*
X133402304Y-102290752D01*
X133402304Y-102290752D02*
X133497542Y-102338371D01*
X133973733Y-102957419D02*
X133973733Y-101957419D01*
X134402304Y-102957419D02*
X134402304Y-102433609D01*
X134402304Y-102433609D02*
X134354685Y-102338371D01*
X134354685Y-102338371D02*
X134259447Y-102290752D01*
X134259447Y-102290752D02*
X134116590Y-102290752D01*
X134116590Y-102290752D02*
X134021352Y-102338371D01*
X134021352Y-102338371D02*
X133973733Y-102385990D01*
X134735638Y-102290752D02*
X135116590Y-102290752D01*
X134878495Y-101957419D02*
X134878495Y-102814561D01*
X134878495Y-102814561D02*
X134926114Y-102909800D01*
X134926114Y-102909800D02*
X135021352Y-102957419D01*
X135021352Y-102957419D02*
X135116590Y-102957419D01*
X136211829Y-102957419D02*
X136211829Y-101957419D01*
X136211829Y-102433609D02*
X136783257Y-102433609D01*
X136783257Y-102957419D02*
X136783257Y-101957419D01*
X137640400Y-102909800D02*
X137545162Y-102957419D01*
X137545162Y-102957419D02*
X137354686Y-102957419D01*
X137354686Y-102957419D02*
X137259448Y-102909800D01*
X137259448Y-102909800D02*
X137211829Y-102814561D01*
X137211829Y-102814561D02*
X137211829Y-102433609D01*
X137211829Y-102433609D02*
X137259448Y-102338371D01*
X137259448Y-102338371D02*
X137354686Y-102290752D01*
X137354686Y-102290752D02*
X137545162Y-102290752D01*
X137545162Y-102290752D02*
X137640400Y-102338371D01*
X137640400Y-102338371D02*
X137688019Y-102433609D01*
X137688019Y-102433609D02*
X137688019Y-102528847D01*
X137688019Y-102528847D02*
X137211829Y-102624085D01*
X138545162Y-102957419D02*
X138545162Y-102433609D01*
X138545162Y-102433609D02*
X138497543Y-102338371D01*
X138497543Y-102338371D02*
X138402305Y-102290752D01*
X138402305Y-102290752D02*
X138211829Y-102290752D01*
X138211829Y-102290752D02*
X138116591Y-102338371D01*
X138545162Y-102909800D02*
X138449924Y-102957419D01*
X138449924Y-102957419D02*
X138211829Y-102957419D01*
X138211829Y-102957419D02*
X138116591Y-102909800D01*
X138116591Y-102909800D02*
X138068972Y-102814561D01*
X138068972Y-102814561D02*
X138068972Y-102719323D01*
X138068972Y-102719323D02*
X138116591Y-102624085D01*
X138116591Y-102624085D02*
X138211829Y-102576466D01*
X138211829Y-102576466D02*
X138449924Y-102576466D01*
X138449924Y-102576466D02*
X138545162Y-102528847D01*
X139449924Y-102957419D02*
X139449924Y-101957419D01*
X139449924Y-102909800D02*
X139354686Y-102957419D01*
X139354686Y-102957419D02*
X139164210Y-102957419D01*
X139164210Y-102957419D02*
X139068972Y-102909800D01*
X139068972Y-102909800D02*
X139021353Y-102862180D01*
X139021353Y-102862180D02*
X138973734Y-102766942D01*
X138973734Y-102766942D02*
X138973734Y-102481228D01*
X138973734Y-102481228D02*
X139021353Y-102385990D01*
X139021353Y-102385990D02*
X139068972Y-102338371D01*
X139068972Y-102338371D02*
X139164210Y-102290752D01*
X139164210Y-102290752D02*
X139354686Y-102290752D01*
X139354686Y-102290752D02*
X139449924Y-102338371D01*
X140307067Y-102909800D02*
X140211829Y-102957419D01*
X140211829Y-102957419D02*
X140021353Y-102957419D01*
X140021353Y-102957419D02*
X139926115Y-102909800D01*
X139926115Y-102909800D02*
X139878496Y-102814561D01*
X139878496Y-102814561D02*
X139878496Y-102433609D01*
X139878496Y-102433609D02*
X139926115Y-102338371D01*
X139926115Y-102338371D02*
X140021353Y-102290752D01*
X140021353Y-102290752D02*
X140211829Y-102290752D01*
X140211829Y-102290752D02*
X140307067Y-102338371D01*
X140307067Y-102338371D02*
X140354686Y-102433609D01*
X140354686Y-102433609D02*
X140354686Y-102528847D01*
X140354686Y-102528847D02*
X139878496Y-102624085D01*
X140783258Y-102957419D02*
X140783258Y-102290752D01*
X140783258Y-102481228D02*
X140830877Y-102385990D01*
X140830877Y-102385990D02*
X140878496Y-102338371D01*
X140878496Y-102338371D02*
X140973734Y-102290752D01*
X140973734Y-102290752D02*
X141068972Y-102290752D01*
X107010074Y-102957419D02*
X106533884Y-102957419D01*
X106533884Y-102957419D02*
X106533884Y-101957419D01*
X107724360Y-102909800D02*
X107629122Y-102957419D01*
X107629122Y-102957419D02*
X107438646Y-102957419D01*
X107438646Y-102957419D02*
X107343408Y-102909800D01*
X107343408Y-102909800D02*
X107295789Y-102814561D01*
X107295789Y-102814561D02*
X107295789Y-102433609D01*
X107295789Y-102433609D02*
X107343408Y-102338371D01*
X107343408Y-102338371D02*
X107438646Y-102290752D01*
X107438646Y-102290752D02*
X107629122Y-102290752D01*
X107629122Y-102290752D02*
X107724360Y-102338371D01*
X107724360Y-102338371D02*
X107771979Y-102433609D01*
X107771979Y-102433609D02*
X107771979Y-102528847D01*
X107771979Y-102528847D02*
X107295789Y-102624085D01*
X108057694Y-102290752D02*
X108438646Y-102290752D01*
X108200551Y-102957419D02*
X108200551Y-102100276D01*
X108200551Y-102100276D02*
X108248170Y-102005038D01*
X108248170Y-102005038D02*
X108343408Y-101957419D01*
X108343408Y-101957419D02*
X108438646Y-101957419D01*
X108629123Y-102290752D02*
X109010075Y-102290752D01*
X108771980Y-101957419D02*
X108771980Y-102814561D01*
X108771980Y-102814561D02*
X108819599Y-102909800D01*
X108819599Y-102909800D02*
X108914837Y-102957419D01*
X108914837Y-102957419D02*
X109010075Y-102957419D01*
X110105314Y-102957419D02*
X110105314Y-101957419D01*
X110105314Y-102433609D02*
X110676742Y-102433609D01*
X110676742Y-102957419D02*
X110676742Y-101957419D01*
X111533885Y-102909800D02*
X111438647Y-102957419D01*
X111438647Y-102957419D02*
X111248171Y-102957419D01*
X111248171Y-102957419D02*
X111152933Y-102909800D01*
X111152933Y-102909800D02*
X111105314Y-102814561D01*
X111105314Y-102814561D02*
X111105314Y-102433609D01*
X111105314Y-102433609D02*
X111152933Y-102338371D01*
X111152933Y-102338371D02*
X111248171Y-102290752D01*
X111248171Y-102290752D02*
X111438647Y-102290752D01*
X111438647Y-102290752D02*
X111533885Y-102338371D01*
X111533885Y-102338371D02*
X111581504Y-102433609D01*
X111581504Y-102433609D02*
X111581504Y-102528847D01*
X111581504Y-102528847D02*
X111105314Y-102624085D01*
X112438647Y-102957419D02*
X112438647Y-102433609D01*
X112438647Y-102433609D02*
X112391028Y-102338371D01*
X112391028Y-102338371D02*
X112295790Y-102290752D01*
X112295790Y-102290752D02*
X112105314Y-102290752D01*
X112105314Y-102290752D02*
X112010076Y-102338371D01*
X112438647Y-102909800D02*
X112343409Y-102957419D01*
X112343409Y-102957419D02*
X112105314Y-102957419D01*
X112105314Y-102957419D02*
X112010076Y-102909800D01*
X112010076Y-102909800D02*
X111962457Y-102814561D01*
X111962457Y-102814561D02*
X111962457Y-102719323D01*
X111962457Y-102719323D02*
X112010076Y-102624085D01*
X112010076Y-102624085D02*
X112105314Y-102576466D01*
X112105314Y-102576466D02*
X112343409Y-102576466D01*
X112343409Y-102576466D02*
X112438647Y-102528847D01*
X113343409Y-102957419D02*
X113343409Y-101957419D01*
X113343409Y-102909800D02*
X113248171Y-102957419D01*
X113248171Y-102957419D02*
X113057695Y-102957419D01*
X113057695Y-102957419D02*
X112962457Y-102909800D01*
X112962457Y-102909800D02*
X112914838Y-102862180D01*
X112914838Y-102862180D02*
X112867219Y-102766942D01*
X112867219Y-102766942D02*
X112867219Y-102481228D01*
X112867219Y-102481228D02*
X112914838Y-102385990D01*
X112914838Y-102385990D02*
X112962457Y-102338371D01*
X112962457Y-102338371D02*
X113057695Y-102290752D01*
X113057695Y-102290752D02*
X113248171Y-102290752D01*
X113248171Y-102290752D02*
X113343409Y-102338371D01*
X114200552Y-102909800D02*
X114105314Y-102957419D01*
X114105314Y-102957419D02*
X113914838Y-102957419D01*
X113914838Y-102957419D02*
X113819600Y-102909800D01*
X113819600Y-102909800D02*
X113771981Y-102814561D01*
X113771981Y-102814561D02*
X113771981Y-102433609D01*
X113771981Y-102433609D02*
X113819600Y-102338371D01*
X113819600Y-102338371D02*
X113914838Y-102290752D01*
X113914838Y-102290752D02*
X114105314Y-102290752D01*
X114105314Y-102290752D02*
X114200552Y-102338371D01*
X114200552Y-102338371D02*
X114248171Y-102433609D01*
X114248171Y-102433609D02*
X114248171Y-102528847D01*
X114248171Y-102528847D02*
X113771981Y-102624085D01*
X114676743Y-102957419D02*
X114676743Y-102290752D01*
X114676743Y-102481228D02*
X114724362Y-102385990D01*
X114724362Y-102385990D02*
X114771981Y-102338371D01*
X114771981Y-102338371D02*
X114867219Y-102290752D01*
X114867219Y-102290752D02*
X114962457Y-102290752D01*
X173738095Y-97457419D02*
X173738095Y-98266942D01*
X173738095Y-98266942D02*
X173785714Y-98362180D01*
X173785714Y-98362180D02*
X173833333Y-98409800D01*
X173833333Y-98409800D02*
X173928571Y-98457419D01*
X173928571Y-98457419D02*
X174119047Y-98457419D01*
X174119047Y-98457419D02*
X174214285Y-98409800D01*
X174214285Y-98409800D02*
X174261904Y-98362180D01*
X174261904Y-98362180D02*
X174309523Y-98266942D01*
X174309523Y-98266942D02*
X174309523Y-97457419D01*
X174738095Y-97552657D02*
X174785714Y-97505038D01*
X174785714Y-97505038D02*
X174880952Y-97457419D01*
X174880952Y-97457419D02*
X175119047Y-97457419D01*
X175119047Y-97457419D02*
X175214285Y-97505038D01*
X175214285Y-97505038D02*
X175261904Y-97552657D01*
X175261904Y-97552657D02*
X175309523Y-97647895D01*
X175309523Y-97647895D02*
X175309523Y-97743133D01*
X175309523Y-97743133D02*
X175261904Y-97885990D01*
X175261904Y-97885990D02*
X174690476Y-98457419D01*
X174690476Y-98457419D02*
X175309523Y-98457419D01*
X170119047Y-89567419D02*
X170119047Y-88567419D01*
X170119047Y-88567419D02*
X170452380Y-89281704D01*
X170452380Y-89281704D02*
X170785713Y-88567419D01*
X170785713Y-88567419D02*
X170785713Y-89567419D01*
X171404761Y-89567419D02*
X171309523Y-89519800D01*
X171309523Y-89519800D02*
X171261904Y-89472180D01*
X171261904Y-89472180D02*
X171214285Y-89376942D01*
X171214285Y-89376942D02*
X171214285Y-89091228D01*
X171214285Y-89091228D02*
X171261904Y-88995990D01*
X171261904Y-88995990D02*
X171309523Y-88948371D01*
X171309523Y-88948371D02*
X171404761Y-88900752D01*
X171404761Y-88900752D02*
X171547618Y-88900752D01*
X171547618Y-88900752D02*
X171642856Y-88948371D01*
X171642856Y-88948371D02*
X171690475Y-88995990D01*
X171690475Y-88995990D02*
X171738094Y-89091228D01*
X171738094Y-89091228D02*
X171738094Y-89376942D01*
X171738094Y-89376942D02*
X171690475Y-89472180D01*
X171690475Y-89472180D02*
X171642856Y-89519800D01*
X171642856Y-89519800D02*
X171547618Y-89567419D01*
X171547618Y-89567419D02*
X171404761Y-89567419D01*
X172023809Y-88900752D02*
X172404761Y-88900752D01*
X172166666Y-88567419D02*
X172166666Y-89424561D01*
X172166666Y-89424561D02*
X172214285Y-89519800D01*
X172214285Y-89519800D02*
X172309523Y-89567419D01*
X172309523Y-89567419D02*
X172404761Y-89567419D01*
X172880952Y-89567419D02*
X172785714Y-89519800D01*
X172785714Y-89519800D02*
X172738095Y-89472180D01*
X172738095Y-89472180D02*
X172690476Y-89376942D01*
X172690476Y-89376942D02*
X172690476Y-89091228D01*
X172690476Y-89091228D02*
X172738095Y-88995990D01*
X172738095Y-88995990D02*
X172785714Y-88948371D01*
X172785714Y-88948371D02*
X172880952Y-88900752D01*
X172880952Y-88900752D02*
X173023809Y-88900752D01*
X173023809Y-88900752D02*
X173119047Y-88948371D01*
X173119047Y-88948371D02*
X173166666Y-88995990D01*
X173166666Y-88995990D02*
X173214285Y-89091228D01*
X173214285Y-89091228D02*
X173214285Y-89376942D01*
X173214285Y-89376942D02*
X173166666Y-89472180D01*
X173166666Y-89472180D02*
X173119047Y-89519800D01*
X173119047Y-89519800D02*
X173023809Y-89567419D01*
X173023809Y-89567419D02*
X172880952Y-89567419D01*
X173642857Y-89567419D02*
X173642857Y-88900752D01*
X173642857Y-89091228D02*
X173690476Y-88995990D01*
X173690476Y-88995990D02*
X173738095Y-88948371D01*
X173738095Y-88948371D02*
X173833333Y-88900752D01*
X173833333Y-88900752D02*
X173928571Y-88900752D01*
X175023810Y-89567419D02*
X175023810Y-88567419D01*
X175023810Y-88567419D02*
X175261905Y-88567419D01*
X175261905Y-88567419D02*
X175404762Y-88615038D01*
X175404762Y-88615038D02*
X175500000Y-88710276D01*
X175500000Y-88710276D02*
X175547619Y-88805514D01*
X175547619Y-88805514D02*
X175595238Y-88995990D01*
X175595238Y-88995990D02*
X175595238Y-89138847D01*
X175595238Y-89138847D02*
X175547619Y-89329323D01*
X175547619Y-89329323D02*
X175500000Y-89424561D01*
X175500000Y-89424561D02*
X175404762Y-89519800D01*
X175404762Y-89519800D02*
X175261905Y-89567419D01*
X175261905Y-89567419D02*
X175023810Y-89567419D01*
X176023810Y-89567419D02*
X176023810Y-88900752D01*
X176023810Y-89091228D02*
X176071429Y-88995990D01*
X176071429Y-88995990D02*
X176119048Y-88948371D01*
X176119048Y-88948371D02*
X176214286Y-88900752D01*
X176214286Y-88900752D02*
X176309524Y-88900752D01*
X176642858Y-89567419D02*
X176642858Y-88900752D01*
X176642858Y-88567419D02*
X176595239Y-88615038D01*
X176595239Y-88615038D02*
X176642858Y-88662657D01*
X176642858Y-88662657D02*
X176690477Y-88615038D01*
X176690477Y-88615038D02*
X176642858Y-88567419D01*
X176642858Y-88567419D02*
X176642858Y-88662657D01*
X177023810Y-88900752D02*
X177261905Y-89567419D01*
X177261905Y-89567419D02*
X177500000Y-88900752D01*
X178261905Y-89519800D02*
X178166667Y-89567419D01*
X178166667Y-89567419D02*
X177976191Y-89567419D01*
X177976191Y-89567419D02*
X177880953Y-89519800D01*
X177880953Y-89519800D02*
X177833334Y-89424561D01*
X177833334Y-89424561D02*
X177833334Y-89043609D01*
X177833334Y-89043609D02*
X177880953Y-88948371D01*
X177880953Y-88948371D02*
X177976191Y-88900752D01*
X177976191Y-88900752D02*
X178166667Y-88900752D01*
X178166667Y-88900752D02*
X178261905Y-88948371D01*
X178261905Y-88948371D02*
X178309524Y-89043609D01*
X178309524Y-89043609D02*
X178309524Y-89138847D01*
X178309524Y-89138847D02*
X177833334Y-89234085D01*
X178738096Y-89567419D02*
X178738096Y-88900752D01*
X178738096Y-89091228D02*
X178785715Y-88995990D01*
X178785715Y-88995990D02*
X178833334Y-88948371D01*
X178833334Y-88948371D02*
X178928572Y-88900752D01*
X178928572Y-88900752D02*
X179023810Y-88900752D01*
X181667619Y-86726109D02*
X181834285Y-87226109D01*
X181834285Y-87226109D02*
X182000952Y-86726109D01*
X182167618Y-87226109D02*
X182167618Y-86726109D01*
X182167618Y-86726109D02*
X182334285Y-87083252D01*
X182334285Y-87083252D02*
X182500951Y-86726109D01*
X182500951Y-86726109D02*
X182500951Y-87226109D01*
D11*
X152155714Y-101639104D02*
X152631904Y-101639104D01*
X152060476Y-101924819D02*
X152393809Y-100924819D01*
X152393809Y-100924819D02*
X152727142Y-101924819D01*
X153584285Y-101924819D02*
X153012857Y-101924819D01*
X153298571Y-101924819D02*
X153298571Y-100924819D01*
X153298571Y-100924819D02*
X153203333Y-101067676D01*
X153203333Y-101067676D02*
X153108095Y-101162914D01*
X153108095Y-101162914D02*
X153012857Y-101210533D01*
X151618095Y-117434819D02*
X151618095Y-118244342D01*
X151618095Y-118244342D02*
X151665714Y-118339580D01*
X151665714Y-118339580D02*
X151713333Y-118387200D01*
X151713333Y-118387200D02*
X151808571Y-118434819D01*
X151808571Y-118434819D02*
X151999047Y-118434819D01*
X151999047Y-118434819D02*
X152094285Y-118387200D01*
X152094285Y-118387200D02*
X152141904Y-118339580D01*
X152141904Y-118339580D02*
X152189523Y-118244342D01*
X152189523Y-118244342D02*
X152189523Y-117434819D01*
X152618095Y-118387200D02*
X152760952Y-118434819D01*
X152760952Y-118434819D02*
X152999047Y-118434819D01*
X152999047Y-118434819D02*
X153094285Y-118387200D01*
X153094285Y-118387200D02*
X153141904Y-118339580D01*
X153141904Y-118339580D02*
X153189523Y-118244342D01*
X153189523Y-118244342D02*
X153189523Y-118149104D01*
X153189523Y-118149104D02*
X153141904Y-118053866D01*
X153141904Y-118053866D02*
X153094285Y-118006247D01*
X153094285Y-118006247D02*
X152999047Y-117958628D01*
X152999047Y-117958628D02*
X152808571Y-117911009D01*
X152808571Y-117911009D02*
X152713333Y-117863390D01*
X152713333Y-117863390D02*
X152665714Y-117815771D01*
X152665714Y-117815771D02*
X152618095Y-117720533D01*
X152618095Y-117720533D02*
X152618095Y-117625295D01*
X152618095Y-117625295D02*
X152665714Y-117530057D01*
X152665714Y-117530057D02*
X152713333Y-117482438D01*
X152713333Y-117482438D02*
X152808571Y-117434819D01*
X152808571Y-117434819D02*
X153046666Y-117434819D01*
X153046666Y-117434819D02*
X153189523Y-117482438D01*
X153951428Y-117911009D02*
X154094285Y-117958628D01*
X154094285Y-117958628D02*
X154141904Y-118006247D01*
X154141904Y-118006247D02*
X154189523Y-118101485D01*
X154189523Y-118101485D02*
X154189523Y-118244342D01*
X154189523Y-118244342D02*
X154141904Y-118339580D01*
X154141904Y-118339580D02*
X154094285Y-118387200D01*
X154094285Y-118387200D02*
X153999047Y-118434819D01*
X153999047Y-118434819D02*
X153618095Y-118434819D01*
X153618095Y-118434819D02*
X153618095Y-117434819D01*
X153618095Y-117434819D02*
X153951428Y-117434819D01*
X153951428Y-117434819D02*
X154046666Y-117482438D01*
X154046666Y-117482438D02*
X154094285Y-117530057D01*
X154094285Y-117530057D02*
X154141904Y-117625295D01*
X154141904Y-117625295D02*
X154141904Y-117720533D01*
X154141904Y-117720533D02*
X154094285Y-117815771D01*
X154094285Y-117815771D02*
X154046666Y-117863390D01*
X154046666Y-117863390D02*
X153951428Y-117911009D01*
X153951428Y-117911009D02*
X153618095Y-117911009D01*
D10*
X124780476Y-73207419D02*
X124780476Y-72207419D01*
X124780476Y-72207419D02*
X125113809Y-72921704D01*
X125113809Y-72921704D02*
X125447142Y-72207419D01*
X125447142Y-72207419D02*
X125447142Y-73207419D01*
X125875714Y-72302657D02*
X125923333Y-72255038D01*
X125923333Y-72255038D02*
X126018571Y-72207419D01*
X126018571Y-72207419D02*
X126256666Y-72207419D01*
X126256666Y-72207419D02*
X126351904Y-72255038D01*
X126351904Y-72255038D02*
X126399523Y-72302657D01*
X126399523Y-72302657D02*
X126447142Y-72397895D01*
X126447142Y-72397895D02*
X126447142Y-72493133D01*
X126447142Y-72493133D02*
X126399523Y-72635990D01*
X126399523Y-72635990D02*
X125828095Y-73207419D01*
X125828095Y-73207419D02*
X126447142Y-73207419D01*
X127709048Y-77991466D02*
X128470953Y-77991466D01*
X125169048Y-77991466D02*
X125930953Y-77991466D01*
X125550000Y-78372419D02*
X125550000Y-77610514D01*
X170338095Y-79057419D02*
X170338095Y-79866942D01*
X170338095Y-79866942D02*
X170385714Y-79962180D01*
X170385714Y-79962180D02*
X170433333Y-80009800D01*
X170433333Y-80009800D02*
X170528571Y-80057419D01*
X170528571Y-80057419D02*
X170719047Y-80057419D01*
X170719047Y-80057419D02*
X170814285Y-80009800D01*
X170814285Y-80009800D02*
X170861904Y-79962180D01*
X170861904Y-79962180D02*
X170909523Y-79866942D01*
X170909523Y-79866942D02*
X170909523Y-79057419D01*
X171861904Y-79057419D02*
X171385714Y-79057419D01*
X171385714Y-79057419D02*
X171338095Y-79533609D01*
X171338095Y-79533609D02*
X171385714Y-79485990D01*
X171385714Y-79485990D02*
X171480952Y-79438371D01*
X171480952Y-79438371D02*
X171719047Y-79438371D01*
X171719047Y-79438371D02*
X171814285Y-79485990D01*
X171814285Y-79485990D02*
X171861904Y-79533609D01*
X171861904Y-79533609D02*
X171909523Y-79628847D01*
X171909523Y-79628847D02*
X171909523Y-79866942D01*
X171909523Y-79866942D02*
X171861904Y-79962180D01*
X171861904Y-79962180D02*
X171814285Y-80009800D01*
X171814285Y-80009800D02*
X171719047Y-80057419D01*
X171719047Y-80057419D02*
X171480952Y-80057419D01*
X171480952Y-80057419D02*
X171385714Y-80009800D01*
X171385714Y-80009800D02*
X171338095Y-79962180D01*
X166909048Y-85251466D02*
X167670953Y-85251466D01*
X169449048Y-85251466D02*
X170210953Y-85251466D01*
X169830000Y-85632419D02*
X169830000Y-84870514D01*
%TO.C,U4*%
X164850000Y-71550000D02*
X177350000Y-71550000D01*
X177350000Y-77350000D01*
X164850000Y-77350000D01*
X164850000Y-71550000D01*
%TO.C,BT1*%
X112450000Y-71550000D02*
X119950000Y-71550000D01*
X119950000Y-77350000D01*
X112450000Y-77350000D01*
X112450000Y-71550000D01*
%TO.C,U3*%
X131150000Y-71550000D02*
X146150000Y-71550000D01*
X146150000Y-77350000D01*
X131150000Y-77350000D01*
X131150000Y-71550000D01*
%TO.C,M1*%
X146750000Y-71550000D02*
X164250000Y-71550000D01*
X164250000Y-77350000D01*
X146750000Y-77350000D01*
X146750000Y-71550000D01*
%TO.C,U1*%
X118650000Y-92000000D02*
X128810000Y-92000000D01*
X128810000Y-108000000D01*
X118650000Y-108000000D01*
X118650000Y-92000000D01*
%TO.C,SW1*%
X183540000Y-114460000D02*
X178460000Y-114460000D01*
X178460000Y-124620000D01*
X183540000Y-124620000D01*
X183540000Y-114460000D01*
%TO.C,B1*%
X172040000Y-110650000D02*
X172040000Y-111920000D01*
X172040000Y-111920000D02*
X166960000Y-111920000D01*
X166960000Y-111920000D02*
X166960000Y-110650000D01*
X172040000Y-122080000D02*
X166960000Y-122080000D01*
X166960000Y-122080000D02*
X166960000Y-123350000D01*
X172040000Y-123350000D02*
X172040000Y-122080000D01*
X175500000Y-109380000D02*
X163500000Y-109380000D01*
X163500000Y-124620000D01*
X175500000Y-124620000D01*
X175500000Y-109380000D01*
D14*
%TO.C,G\u002A\u002A\u002A*%
G36*
X121425574Y-125580637D02*
G01*
X121446266Y-125595935D01*
X121499154Y-125658432D01*
X121513326Y-125735915D01*
X121498252Y-125809756D01*
X121460695Y-125876267D01*
X121412151Y-125918371D01*
X121386071Y-125924950D01*
X121372954Y-125948449D01*
X121363911Y-126011255D01*
X121360620Y-126099827D01*
X121360620Y-126274705D01*
X121481512Y-126290978D01*
X121648405Y-126333686D01*
X121818448Y-126412371D01*
X121976034Y-126517533D01*
X122105555Y-126639673D01*
X122151142Y-126698546D01*
X122206831Y-126762452D01*
X122252983Y-126776860D01*
X122255272Y-126776219D01*
X122301434Y-126782775D01*
X122359093Y-126816391D01*
X122366619Y-126822593D01*
X122423239Y-126899485D01*
X122432736Y-126985468D01*
X122394225Y-127069651D01*
X122387364Y-127077939D01*
X122351412Y-127147962D01*
X122352958Y-127219183D01*
X122390033Y-127274613D01*
X122411626Y-127287399D01*
X122461939Y-127330827D01*
X122475025Y-127388892D01*
X122448751Y-127443083D01*
X122431168Y-127456905D01*
X122407629Y-127476018D01*
X122392369Y-127504817D01*
X122383627Y-127553447D01*
X122379644Y-127632054D01*
X122378659Y-127750783D01*
X122378657Y-127759592D01*
X122377419Y-127884223D01*
X122372683Y-127968282D01*
X122362912Y-128022062D01*
X122346573Y-128055855D01*
X122332113Y-128071606D01*
X122287443Y-128104452D01*
X122262123Y-128114384D01*
X122236374Y-128134236D01*
X122193573Y-128185038D01*
X122153687Y-128240352D01*
X122089847Y-128323416D01*
X122019273Y-128399159D01*
X121981523Y-128432155D01*
X121806212Y-128539447D01*
X121611984Y-128612840D01*
X121409812Y-128650747D01*
X121210665Y-128651586D01*
X121025514Y-128613770D01*
X120945630Y-128581804D01*
X120892136Y-128558522D01*
X120851178Y-128549632D01*
X120821089Y-128560279D01*
X120800198Y-128595607D01*
X120786838Y-128660760D01*
X120779339Y-128760882D01*
X120776034Y-128901117D01*
X120775253Y-129086610D01*
X120775250Y-129107054D01*
X120775250Y-129610581D01*
X120970617Y-129691912D01*
X121103909Y-129742236D01*
X121254091Y-129790628D01*
X121407850Y-129833593D01*
X121551872Y-129867637D01*
X121672842Y-129889268D01*
X121745647Y-129895291D01*
X121809561Y-129892009D01*
X121837446Y-129874521D01*
X121844102Y-129831358D01*
X121844188Y-129818938D01*
X121848921Y-129768180D01*
X121873288Y-129746956D01*
X121932535Y-129742589D01*
X121936025Y-129742585D01*
X121995995Y-129739266D01*
X122017537Y-129722796D01*
X122013008Y-129683410D01*
X122012663Y-129682027D01*
X122013682Y-129667648D01*
X122100232Y-129667648D01*
X122116737Y-129701241D01*
X122161719Y-129716284D01*
X122212228Y-129699129D01*
X122244403Y-129659135D01*
X122246385Y-129650384D01*
X122233830Y-129598655D01*
X122188470Y-129573927D01*
X122136873Y-129580676D01*
X122105436Y-129615452D01*
X122100232Y-129667648D01*
X122013682Y-129667648D01*
X122017796Y-129609569D01*
X122059390Y-129542806D01*
X122124092Y-129497897D01*
X122172952Y-129488076D01*
X122253940Y-129508577D01*
X122307941Y-129561244D01*
X122330945Y-129632818D01*
X122318940Y-129710046D01*
X122267915Y-129779669D01*
X122262522Y-129784121D01*
X122190927Y-129841209D01*
X122316605Y-129849161D01*
X122442284Y-129857114D01*
X122455009Y-129993639D01*
X122467735Y-130130163D01*
X122630238Y-129980450D01*
X122792741Y-129830738D01*
X122914874Y-128596832D01*
X122939132Y-128351960D01*
X122961856Y-128122988D01*
X122982557Y-127914807D01*
X123000747Y-127732309D01*
X123015938Y-127580386D01*
X123027641Y-127463929D01*
X123035367Y-127387829D01*
X123038629Y-127356978D01*
X123038693Y-127356563D01*
X123063395Y-127354605D01*
X123131248Y-127352892D01*
X123234503Y-127351522D01*
X123365410Y-127350593D01*
X123516218Y-127350206D01*
X123536823Y-127350200D01*
X124033266Y-127350200D01*
X124026753Y-129405361D01*
X124020240Y-131460521D01*
X122811322Y-131467578D01*
X122566283Y-131468715D01*
X122335499Y-131469222D01*
X122124232Y-131469128D01*
X121937741Y-131468461D01*
X121781289Y-131467249D01*
X121660134Y-131465521D01*
X121579538Y-131463306D01*
X121545139Y-131460730D01*
X121517808Y-131450837D01*
X121500909Y-131430396D01*
X121491950Y-131388948D01*
X121488438Y-131316037D01*
X121488240Y-131282365D01*
X121564228Y-131282365D01*
X121564228Y-131371443D01*
X122760420Y-131371443D01*
X123956612Y-131371443D01*
X123956612Y-129398998D01*
X123956612Y-127426553D01*
X123778456Y-127426553D01*
X123600300Y-127426553D01*
X123600300Y-129309920D01*
X123600300Y-131193287D01*
X122582264Y-131193287D01*
X121564228Y-131193287D01*
X121564228Y-131282365D01*
X121488240Y-131282365D01*
X121487875Y-131220440D01*
X121487875Y-131193287D01*
X121487875Y-131080533D01*
X121564228Y-131080533D01*
X121570428Y-131089938D01*
X121591994Y-131097618D01*
X121633373Y-131103737D01*
X121699012Y-131108461D01*
X121793357Y-131111955D01*
X121920857Y-131114384D01*
X122085959Y-131115913D01*
X122293108Y-131116708D01*
X122544087Y-131116934D01*
X123523947Y-131116934D01*
X123523947Y-129271743D01*
X123523947Y-127426553D01*
X123322728Y-127426553D01*
X123121509Y-127426553D01*
X123106021Y-127547445D01*
X123100301Y-127598547D01*
X123090397Y-127694286D01*
X123076903Y-127828623D01*
X123060415Y-127995517D01*
X123041527Y-128188928D01*
X123020836Y-128402817D01*
X122998934Y-128631144D01*
X122988816Y-128737274D01*
X122966767Y-128966847D01*
X122945719Y-129181914D01*
X122926247Y-129376918D01*
X122908921Y-129546296D01*
X122894316Y-129684488D01*
X122883005Y-129785935D01*
X122875559Y-129845076D01*
X122873446Y-129857114D01*
X122849109Y-129894462D01*
X122794373Y-129954560D01*
X122718281Y-130027981D01*
X122659066Y-130080611D01*
X122566827Y-130164707D01*
X122496997Y-130237953D01*
X122456883Y-130292336D01*
X122450312Y-130309505D01*
X122421115Y-130360112D01*
X122373629Y-130378694D01*
X122333998Y-130398873D01*
X122266076Y-130446579D01*
X122177066Y-130515568D01*
X122074170Y-130599593D01*
X121964589Y-130692411D01*
X121855526Y-130787777D01*
X121754183Y-130879445D01*
X121667760Y-130961171D01*
X121603461Y-131026711D01*
X121568487Y-131069818D01*
X121564228Y-131080533D01*
X121487875Y-131080533D01*
X121487875Y-130994054D01*
X121806011Y-130709719D01*
X121911499Y-130614118D01*
X122002203Y-130529390D01*
X122071845Y-130461607D01*
X122114143Y-130416843D01*
X122124147Y-130402121D01*
X122101133Y-130389381D01*
X122041766Y-130380931D01*
X121984168Y-130378858D01*
X121903986Y-130377189D01*
X121862235Y-130368440D01*
X121846465Y-130346995D01*
X121844188Y-130315715D01*
X121828838Y-130262105D01*
X121786923Y-130241904D01*
X121737177Y-130232876D01*
X121651970Y-130217645D01*
X121545976Y-130198827D01*
X121491656Y-130189224D01*
X121352271Y-130159576D01*
X121194753Y-130118386D01*
X121048078Y-130073388D01*
X121015937Y-130062249D01*
X120778220Y-129977286D01*
X120770372Y-130466352D01*
X120767481Y-130635599D01*
X120764289Y-130762136D01*
X120759715Y-130854145D01*
X120752676Y-130919813D01*
X120742090Y-130967324D01*
X120726874Y-131004863D01*
X120705946Y-131040613D01*
X120691516Y-131062621D01*
X120611673Y-131163134D01*
X120523770Y-131226734D01*
X120414471Y-131260009D01*
X120272594Y-131269544D01*
X120088075Y-131269639D01*
X120088075Y-131343910D01*
X120087391Y-131398903D01*
X120080722Y-131439037D01*
X120061146Y-131466651D01*
X120021740Y-131484084D01*
X119955580Y-131493675D01*
X119855744Y-131497764D01*
X119715308Y-131498690D01*
X119629959Y-131498697D01*
X119470390Y-131498105D01*
X119354604Y-131495899D01*
X119275493Y-131491431D01*
X119225949Y-131484055D01*
X119198862Y-131473125D01*
X119187291Y-131458439D01*
X119175779Y-131403565D01*
X119175339Y-131396894D01*
X119680861Y-131396894D01*
X119833566Y-131396894D01*
X119986272Y-131396894D01*
X119986272Y-131320541D01*
X119986272Y-131244188D01*
X119833566Y-131244188D01*
X119680861Y-131244188D01*
X119680861Y-131320541D01*
X119680861Y-131396894D01*
X119175339Y-131396894D01*
X119171843Y-131343910D01*
X119171843Y-131269639D01*
X118987324Y-131269544D01*
X118843827Y-131259743D01*
X118734922Y-131226120D01*
X118647306Y-131162090D01*
X118568403Y-131062170D01*
X118537806Y-131013074D01*
X118517688Y-130968457D01*
X118508191Y-130926008D01*
X118591084Y-130926008D01*
X118603076Y-130954739D01*
X118626209Y-130991014D01*
X118644244Y-131017729D01*
X118732050Y-131111520D01*
X118848352Y-131168961D01*
X118998446Y-131192413D01*
X119038226Y-131193247D01*
X119197294Y-131193287D01*
X119197294Y-131114813D01*
X119205899Y-131057906D01*
X119229107Y-131046843D01*
X119249410Y-131078351D01*
X119263645Y-131152473D01*
X119268498Y-131214395D01*
X119276075Y-131371443D01*
X119440292Y-131371443D01*
X119604508Y-131371443D01*
X119604508Y-131320541D01*
X119604508Y-131269639D01*
X119604508Y-131199383D01*
X120126252Y-131199383D01*
X120297223Y-131188818D01*
X120400440Y-131178575D01*
X120469591Y-131159970D01*
X120521407Y-131127865D01*
X120535062Y-131115780D01*
X120594296Y-131048789D01*
X120643308Y-130973300D01*
X120670904Y-130907645D01*
X120673446Y-130889140D01*
X120649865Y-130874079D01*
X120586325Y-130864655D01*
X120521258Y-130862425D01*
X120369070Y-130862425D01*
X120315494Y-130967443D01*
X120265994Y-131048584D01*
X120208934Y-131120891D01*
X120194085Y-131135922D01*
X120126252Y-131199383D01*
X119604508Y-131199383D01*
X119604508Y-131167836D01*
X119793620Y-131167836D01*
X119890832Y-131166639D01*
X119948335Y-131160961D01*
X119977301Y-131147671D01*
X119988904Y-131123638D01*
X119990864Y-131112565D01*
X120008497Y-131067868D01*
X120035775Y-131045903D01*
X120057932Y-131054063D01*
X120062624Y-131076637D01*
X120073386Y-131112267D01*
X120106472Y-131104754D01*
X120163089Y-131053616D01*
X120187242Y-131026970D01*
X120225295Y-130983548D01*
X120252531Y-130948521D01*
X120264785Y-130920986D01*
X120257891Y-130900045D01*
X120227686Y-130884796D01*
X120170004Y-130874338D01*
X120080680Y-130867771D01*
X119955550Y-130864194D01*
X119790449Y-130862706D01*
X119581212Y-130862408D01*
X119426352Y-130862425D01*
X119190178Y-130862395D01*
X119000486Y-130862890D01*
X118852860Y-130864787D01*
X118742881Y-130868963D01*
X118666132Y-130876296D01*
X118618194Y-130887663D01*
X118594651Y-130903941D01*
X118591084Y-130926008D01*
X118508191Y-130926008D01*
X118506008Y-130916250D01*
X118500725Y-130844381D01*
X118500203Y-130786072D01*
X118556970Y-130786072D01*
X119627933Y-130786072D01*
X120698897Y-130786072D01*
X120698481Y-130359769D01*
X120698064Y-129933467D01*
X120464954Y-129812336D01*
X120231844Y-129691206D01*
X120173813Y-129745723D01*
X120115782Y-129800241D01*
X119981037Y-129714178D01*
X119823006Y-129602848D01*
X119711419Y-129498471D01*
X119643202Y-129396202D01*
X119615282Y-129291195D01*
X119617942Y-129259018D01*
X119706312Y-129259018D01*
X119719389Y-129351839D01*
X119763021Y-129433822D01*
X119843806Y-129514308D01*
X119932512Y-129579152D01*
X120030896Y-129640864D01*
X120095290Y-129670170D01*
X120129877Y-129668338D01*
X120138977Y-129641689D01*
X120119837Y-129617871D01*
X120109514Y-129608723D01*
X120276592Y-129608723D01*
X120300781Y-129624060D01*
X120356672Y-129656871D01*
X120432199Y-129700312D01*
X120515296Y-129747534D01*
X120593896Y-129791691D01*
X120655933Y-129825938D01*
X120689343Y-129843427D01*
X120691918Y-129844389D01*
X120696580Y-129822015D01*
X120697479Y-129800331D01*
X120775250Y-129800331D01*
X120777936Y-129843260D01*
X120792624Y-129873596D01*
X120829256Y-129899576D01*
X120897776Y-129929437D01*
X120959769Y-129953186D01*
X121168007Y-130023507D01*
X121384789Y-130082202D01*
X121588953Y-130123875D01*
X121679079Y-130136573D01*
X121791428Y-130150724D01*
X121862393Y-130164776D01*
X121901326Y-130182756D01*
X121917576Y-130208692D01*
X121920540Y-130240593D01*
X121926382Y-130280528D01*
X121953403Y-130298275D01*
X122015842Y-130302493D01*
X122022344Y-130302505D01*
X122124147Y-130302505D01*
X122124147Y-130127108D01*
X122124110Y-130124349D01*
X122122903Y-130034287D01*
X122116455Y-129980110D01*
X122100732Y-129952330D01*
X122087638Y-129946192D01*
X122200500Y-129946192D01*
X122200500Y-130124349D01*
X122204155Y-130228323D01*
X122217291Y-130285948D01*
X122243162Y-130301395D01*
X122285022Y-130278835D01*
X122306662Y-130260384D01*
X122337737Y-130213042D01*
X122351626Y-130136081D01*
X122353206Y-130082228D01*
X122351817Y-130003637D01*
X122342896Y-129963239D01*
X122319311Y-129948327D01*
X122276853Y-129946192D01*
X122200500Y-129946192D01*
X122087638Y-129946192D01*
X122071662Y-129938703D01*
X122060520Y-129935741D01*
X122007931Y-129904477D01*
X121996893Y-129869355D01*
X121980865Y-129828283D01*
X121958717Y-129818938D01*
X122098697Y-129818938D01*
X122108009Y-129839887D01*
X122115664Y-129835905D01*
X122118710Y-129805701D01*
X122115664Y-129801971D01*
X122100533Y-129805464D01*
X122098697Y-129818938D01*
X121958717Y-129818938D01*
X121930481Y-129838254D01*
X121920609Y-129899903D01*
X121920540Y-129908016D01*
X121916353Y-129967825D01*
X121894669Y-129992358D01*
X121841823Y-129997094D01*
X121747717Y-129989203D01*
X121619199Y-129967660D01*
X121469886Y-129935664D01*
X121313398Y-129896409D01*
X121163354Y-129853094D01*
X121033373Y-129808916D01*
X121022531Y-129804778D01*
X120923901Y-129767071D01*
X120844650Y-129737498D01*
X120795663Y-129720081D01*
X120785421Y-129717134D01*
X120778508Y-129739436D01*
X120775281Y-129793786D01*
X120775250Y-129800331D01*
X120697479Y-129800331D01*
X120698854Y-129767184D01*
X120698897Y-129757501D01*
X120695436Y-129711185D01*
X120678753Y-129675848D01*
X120639395Y-129641351D01*
X120567909Y-129597551D01*
X120529729Y-129576009D01*
X120360561Y-129481405D01*
X120315137Y-129541625D01*
X120285042Y-129586236D01*
X120276592Y-129608723D01*
X120109514Y-129608723D01*
X120068681Y-129572539D01*
X119994900Y-129513780D01*
X119958668Y-129486480D01*
X119874043Y-129419016D01*
X119804834Y-129355105D01*
X119762294Y-129305462D01*
X119755691Y-129293189D01*
X119748764Y-129233805D01*
X119846292Y-129233805D01*
X119856958Y-129274777D01*
X119893527Y-129322023D01*
X119962855Y-129383137D01*
X120023261Y-129429795D01*
X120200230Y-129562617D01*
X120244356Y-129495352D01*
X120288481Y-129428087D01*
X120106385Y-129291851D01*
X119998222Y-129216030D01*
X119922008Y-129175631D01*
X119873973Y-129169815D01*
X119850346Y-129197738D01*
X119846292Y-129233805D01*
X119748764Y-129233805D01*
X119746961Y-129218353D01*
X119768845Y-129146874D01*
X119814263Y-129100021D01*
X119820973Y-129097058D01*
X119884152Y-129082924D01*
X119949628Y-129093326D01*
X120027680Y-129132116D01*
X120128584Y-129203144D01*
X120151703Y-129221004D01*
X120329859Y-129360045D01*
X120373832Y-129303169D01*
X120406522Y-129251665D01*
X120418371Y-129217468D01*
X120398723Y-129190638D01*
X120346275Y-129146125D01*
X120271662Y-129092794D01*
X120258095Y-129083851D01*
X120146623Y-129018718D01*
X120058502Y-128985675D01*
X120002322Y-128979058D01*
X119877263Y-128999293D01*
X119783241Y-129057142D01*
X119724786Y-129148320D01*
X119706312Y-129259018D01*
X119617942Y-129259018D01*
X119624589Y-129178604D01*
X119629333Y-129159539D01*
X119682623Y-129050385D01*
X119770873Y-128962191D01*
X119881202Y-128902740D01*
X120000725Y-128879813D01*
X120078157Y-128888410D01*
X120120875Y-128907341D01*
X120193224Y-128947110D01*
X120282669Y-129000044D01*
X120376673Y-129058471D01*
X120462700Y-129114718D01*
X120528213Y-129161112D01*
X120543553Y-129173250D01*
X120536629Y-129197179D01*
X120507870Y-129249190D01*
X120483056Y-129288292D01*
X120446287Y-129347741D01*
X120433860Y-129389959D01*
X120450965Y-129424765D01*
X120502794Y-129461977D01*
X120594538Y-129511415D01*
X120603456Y-129516037D01*
X120698897Y-129565463D01*
X120698897Y-129100078D01*
X120698897Y-128634693D01*
X120573205Y-128590051D01*
X120451899Y-128524079D01*
X120343081Y-128423683D01*
X120262373Y-128304786D01*
X120239562Y-128250014D01*
X120221994Y-128207269D01*
X120197954Y-128183152D01*
X120159037Y-128178082D01*
X120096836Y-128192478D01*
X120002943Y-128226758D01*
X119904363Y-128266719D01*
X119651846Y-128398005D01*
X119422629Y-128573297D01*
X119217703Y-128790847D01*
X119038056Y-129048910D01*
X118884680Y-129345739D01*
X118758563Y-129679587D01*
X118660697Y-130048709D01*
X118592071Y-130451356D01*
X118573720Y-130614279D01*
X118556970Y-130786072D01*
X118500203Y-130786072D01*
X118499798Y-130740780D01*
X118500463Y-130660325D01*
X118526802Y-130300254D01*
X118598835Y-129926256D01*
X118691701Y-129608993D01*
X118828646Y-129264341D01*
X118994856Y-128960615D01*
X119189982Y-128698174D01*
X119413672Y-128477376D01*
X119665576Y-128298583D01*
X119945345Y-128162152D01*
X120004559Y-128142846D01*
X120292532Y-128142846D01*
X120331321Y-128236453D01*
X120408635Y-128363612D01*
X120518167Y-128461309D01*
X120611802Y-128507424D01*
X120697010Y-128529298D01*
X120741379Y-128521788D01*
X120745048Y-128484437D01*
X120708160Y-128416789D01*
X120659381Y-128352516D01*
X120603177Y-128281250D01*
X120562405Y-128225242D01*
X120545457Y-128196055D01*
X120545382Y-128195452D01*
X120530926Y-128162935D01*
X120508909Y-128130280D01*
X120478519Y-128100915D01*
X120439332Y-128097399D01*
X120382888Y-128113025D01*
X120292532Y-128142846D01*
X120004559Y-128142846D01*
X120173272Y-128087839D01*
X120270693Y-128060271D01*
X120346048Y-128035458D01*
X120388253Y-128017218D01*
X120393486Y-128012013D01*
X120376597Y-127983625D01*
X120342584Y-127948297D01*
X120301131Y-127878798D01*
X120295559Y-127796679D01*
X120374376Y-127796679D01*
X120384533Y-127863076D01*
X120426377Y-127918335D01*
X120456784Y-127935446D01*
X120507575Y-127972613D01*
X120557244Y-128035903D01*
X120568274Y-128055437D01*
X120687902Y-128245187D01*
X120830706Y-128397749D01*
X120991369Y-128507941D01*
X121067935Y-128542270D01*
X121163116Y-128562162D01*
X121289584Y-128566833D01*
X121430503Y-128557649D01*
X121569039Y-128535977D01*
X121688356Y-128503185D01*
X121723033Y-128489073D01*
X121893548Y-128388573D01*
X122033992Y-128260009D01*
X122126692Y-128126902D01*
X122179914Y-128046536D01*
X122229619Y-128010036D01*
X122238633Y-128008458D01*
X122273021Y-128004898D01*
X122258676Y-127999071D01*
X122235801Y-127994419D01*
X122179306Y-127958764D01*
X122140852Y-127882747D01*
X122124456Y-127774937D01*
X122124147Y-127756217D01*
X122124147Y-127689546D01*
X122225951Y-127689546D01*
X122229561Y-127760965D01*
X122238623Y-127808903D01*
X122242918Y-127816800D01*
X122275054Y-127833378D01*
X122294449Y-127804210D01*
X122302097Y-127727455D01*
X122302304Y-127706513D01*
X122298217Y-127626487D01*
X122284067Y-127587402D01*
X122264127Y-127579258D01*
X122238533Y-127594794D01*
X122227208Y-127647226D01*
X122225951Y-127689546D01*
X122124147Y-127689546D01*
X122124147Y-127655611D01*
X121493750Y-127655611D01*
X120863352Y-127655611D01*
X120779766Y-127807654D01*
X120734745Y-127886150D01*
X120697290Y-127945381D01*
X120675640Y-127972392D01*
X120654099Y-127959344D01*
X120623228Y-127911723D01*
X120608261Y-127881214D01*
X120565344Y-127807061D01*
X120515517Y-127749009D01*
X120501378Y-127738000D01*
X120454445Y-127712790D01*
X120422857Y-127719489D01*
X120401385Y-127738608D01*
X120374376Y-127796679D01*
X120295559Y-127796679D01*
X120294872Y-127786546D01*
X120320364Y-127696862D01*
X120329387Y-127655611D01*
X120568176Y-127655611D01*
X120624676Y-127734958D01*
X120681176Y-127814305D01*
X120714586Y-127754046D01*
X120739826Y-127702648D01*
X120748897Y-127674699D01*
X120727112Y-127662186D01*
X120672253Y-127655816D01*
X120658988Y-127655611D01*
X120568176Y-127655611D01*
X120329387Y-127655611D01*
X120338432Y-127614256D01*
X120320539Y-127541792D01*
X120319804Y-127541082D01*
X120418937Y-127541082D01*
X120428610Y-127560783D01*
X120463677Y-127572554D01*
X120533212Y-127578117D01*
X120619821Y-127579258D01*
X120727426Y-127576903D01*
X120793514Y-127568747D01*
X120827300Y-127553160D01*
X120831111Y-127547445D01*
X120934303Y-127547445D01*
X120941463Y-127557927D01*
X120973980Y-127565989D01*
X121036644Y-127571888D01*
X121134247Y-127575884D01*
X121271580Y-127578236D01*
X121453434Y-127579200D01*
X121523930Y-127579258D01*
X121716121Y-127578897D01*
X121863191Y-127577563D01*
X121970919Y-127574885D01*
X122045081Y-127570492D01*
X122091457Y-127564011D01*
X122115824Y-127555069D01*
X122123960Y-127543296D01*
X122124147Y-127540613D01*
X122118730Y-127528219D01*
X122098576Y-127518947D01*
X122057835Y-127512482D01*
X121990654Y-127508508D01*
X121891183Y-127506709D01*
X121753569Y-127506770D01*
X121571962Y-127508375D01*
X121534520Y-127508799D01*
X121333663Y-127511839D01*
X121179165Y-127515926D01*
X121066490Y-127521351D01*
X120991100Y-127528408D01*
X120948459Y-127537389D01*
X120934303Y-127547445D01*
X120831111Y-127547445D01*
X120835355Y-127541082D01*
X120835172Y-127522294D01*
X120811331Y-127510755D01*
X120755313Y-127504845D01*
X120658602Y-127502947D01*
X120634471Y-127502906D01*
X120526545Y-127504545D01*
X120460567Y-127510513D01*
X120427659Y-127522380D01*
X120418937Y-127541082D01*
X120319804Y-127541082D01*
X120271555Y-127494467D01*
X120252447Y-127487640D01*
X120184449Y-127451121D01*
X120152634Y-127392486D01*
X120155532Y-127375651D01*
X120240781Y-127375651D01*
X120260148Y-127400363D01*
X120266232Y-127401102D01*
X120290943Y-127381735D01*
X120291683Y-127375651D01*
X122353206Y-127375651D01*
X122362518Y-127396600D01*
X122370173Y-127392619D01*
X122373219Y-127362414D01*
X122370173Y-127358684D01*
X122355042Y-127362178D01*
X122353206Y-127375651D01*
X120291683Y-127375651D01*
X120272315Y-127350940D01*
X120266232Y-127350200D01*
X120241520Y-127369568D01*
X120240781Y-127375651D01*
X120155532Y-127375651D01*
X120164232Y-127325117D01*
X120164428Y-127324749D01*
X120203888Y-127284079D01*
X120235853Y-127273848D01*
X120363561Y-127273848D01*
X121322930Y-127273848D01*
X121570271Y-127273683D01*
X121771307Y-127273060D01*
X121930634Y-127271781D01*
X122052847Y-127269651D01*
X122142542Y-127266474D01*
X122204315Y-127262053D01*
X122242762Y-127256193D01*
X122262479Y-127248698D01*
X122268062Y-127239371D01*
X122266850Y-127233590D01*
X122253207Y-127187942D01*
X122251402Y-127174370D01*
X122229772Y-127163946D01*
X122180456Y-127165822D01*
X122095972Y-127157523D01*
X122032773Y-127113551D01*
X121995822Y-127046443D01*
X121994244Y-127025081D01*
X122078815Y-127025081D01*
X122103787Y-127065150D01*
X122132048Y-127090896D01*
X122156841Y-127091027D01*
X122185693Y-127080243D01*
X122217482Y-127060760D01*
X122222926Y-127027238D01*
X122203856Y-126964607D01*
X122200741Y-126956344D01*
X122176904Y-126911215D01*
X122146263Y-126907307D01*
X122124388Y-126917406D01*
X122080835Y-126964553D01*
X122078815Y-127025081D01*
X121994244Y-127025081D01*
X121990083Y-126968741D01*
X122018841Y-126897156D01*
X122269029Y-126897156D01*
X122283923Y-126941077D01*
X122313730Y-126988914D01*
X122340804Y-126992329D01*
X122352024Y-126954184D01*
X122348937Y-126926893D01*
X122321273Y-126883290D01*
X122297273Y-126871735D01*
X122270420Y-126872166D01*
X122269029Y-126897156D01*
X122018841Y-126897156D01*
X122020517Y-126892983D01*
X122057222Y-126854459D01*
X122126034Y-126799590D01*
X122023216Y-126682783D01*
X121871256Y-126543734D01*
X121692771Y-126444043D01*
X121481977Y-126380620D01*
X121444434Y-126373556D01*
X121362816Y-126359327D01*
X121355355Y-126542990D01*
X121348494Y-126632310D01*
X121337311Y-126697635D01*
X121324079Y-126726283D01*
X121322444Y-126726653D01*
X121309089Y-126703323D01*
X121297525Y-126641808D01*
X121290041Y-126554824D01*
X121289551Y-126543909D01*
X121282109Y-126361166D01*
X121187748Y-126375709D01*
X120988875Y-126430366D01*
X120806142Y-126526706D01*
X120646548Y-126657880D01*
X120517091Y-126817043D01*
X120424772Y-126997347D01*
X120380172Y-127165681D01*
X120363561Y-127273848D01*
X120235853Y-127273848D01*
X120264160Y-127261082D01*
X120286434Y-127216683D01*
X120307061Y-127131493D01*
X120309068Y-127121085D01*
X120366902Y-126918880D01*
X120462179Y-126740517D01*
X120562359Y-126613672D01*
X120677778Y-126509961D01*
X120822557Y-126415982D01*
X120978505Y-126341561D01*
X121127429Y-126296522D01*
X121159282Y-126291285D01*
X121284268Y-126274705D01*
X121284268Y-126107146D01*
X121281897Y-126012831D01*
X121271825Y-125953738D01*
X121249610Y-125914293D01*
X121221702Y-125887730D01*
X121155948Y-125810628D01*
X121140905Y-125731328D01*
X121233366Y-125731328D01*
X121241183Y-125791480D01*
X121258974Y-125806557D01*
X121278249Y-125774692D01*
X121285435Y-125742797D01*
X121287111Y-125730009D01*
X121355332Y-125730009D01*
X121355790Y-125734068D01*
X121371427Y-125801154D01*
X121395619Y-125822556D01*
X121425142Y-125796249D01*
X121433315Y-125750518D01*
X121421414Y-125695362D01*
X121396621Y-125653814D01*
X121377972Y-125644990D01*
X121356127Y-125665739D01*
X121355332Y-125730009D01*
X121287111Y-125730009D01*
X121293278Y-125682959D01*
X121293960Y-125649952D01*
X121293491Y-125648804D01*
X121272232Y-125646094D01*
X121248369Y-125675447D01*
X121234038Y-125720204D01*
X121233366Y-125731328D01*
X121140905Y-125731328D01*
X121140874Y-125731164D01*
X121176570Y-125650661D01*
X121203359Y-125620180D01*
X121280160Y-125560457D01*
X121350657Y-125547633D01*
X121425574Y-125580637D01*
G37*
G36*
X130030217Y-128051701D02*
G01*
X130123092Y-128057083D01*
X130190931Y-128068456D01*
X130246640Y-128087682D01*
X130283571Y-128105865D01*
X130424851Y-128206975D01*
X130527596Y-128339096D01*
X130592345Y-128503430D01*
X130619638Y-128701180D01*
X130617369Y-128850958D01*
X130607641Y-128960358D01*
X130594415Y-129058018D01*
X130580147Y-129126718D01*
X130576413Y-129138126D01*
X130549656Y-129208116D01*
X129952083Y-129208116D01*
X129354510Y-129208116D01*
X129337594Y-129298287D01*
X129337160Y-129417177D01*
X129376984Y-129524177D01*
X129451067Y-129605597D01*
X129480090Y-129623522D01*
X129518370Y-129640927D01*
X129561398Y-129652700D01*
X129618207Y-129659388D01*
X129697830Y-129661536D01*
X129809299Y-129659689D01*
X129961649Y-129654394D01*
X129979595Y-129653691D01*
X130118900Y-129649452D01*
X130239609Y-129648152D01*
X130332906Y-129649697D01*
X130389971Y-129653991D01*
X130403487Y-129658257D01*
X130406405Y-129694815D01*
X130398845Y-129762601D01*
X130384201Y-129843871D01*
X130365869Y-129920877D01*
X130347241Y-129975874D01*
X130340472Y-129987731D01*
X130295986Y-130012584D01*
X130210611Y-130033481D01*
X130094234Y-130050031D01*
X129956743Y-130061843D01*
X129808025Y-130068525D01*
X129657968Y-130069687D01*
X129516458Y-130064938D01*
X129393385Y-130053887D01*
X129298634Y-130036142D01*
X129278028Y-130029745D01*
X129195415Y-129988190D01*
X129105653Y-129924775D01*
X129057018Y-129881404D01*
X128965546Y-129765520D01*
X128905071Y-129628928D01*
X128874818Y-129466534D01*
X128874012Y-129273245D01*
X128901879Y-129043964D01*
X128916975Y-128960872D01*
X128937612Y-128877254D01*
X129406659Y-128877254D01*
X129773435Y-128877254D01*
X130140212Y-128877254D01*
X130156760Y-128811322D01*
X130159122Y-128721548D01*
X130133236Y-128620560D01*
X130086782Y-128533201D01*
X130062377Y-128505997D01*
X130012897Y-128475767D01*
X129940654Y-128460731D01*
X129852187Y-128457315D01*
X129706643Y-128475335D01*
X129591529Y-128531297D01*
X129503365Y-128628054D01*
X129438669Y-128768461D01*
X129427158Y-128805778D01*
X129406659Y-128877254D01*
X128937612Y-128877254D01*
X128976861Y-128718218D01*
X129055283Y-128519290D01*
X129155346Y-128359313D01*
X129280150Y-128233508D01*
X129432798Y-128137097D01*
X129460434Y-128123886D01*
X129536885Y-128090898D01*
X129603704Y-128069582D01*
X129675959Y-128057416D01*
X129768721Y-128051880D01*
X129897060Y-128050452D01*
X129899398Y-128050449D01*
X130030217Y-128051701D01*
G37*
G36*
X134019520Y-127349244D02*
G01*
X134106552Y-127354778D01*
X134171686Y-127365801D01*
X134200358Y-127382014D01*
X134198184Y-127412644D01*
X134187816Y-127488480D01*
X134170059Y-127604625D01*
X134145712Y-127756184D01*
X134115579Y-127938260D01*
X134080461Y-128145959D01*
X134041160Y-128374384D01*
X133998477Y-128618640D01*
X133989291Y-128670742D01*
X133938266Y-128958599D01*
X133894914Y-129200303D01*
X133858381Y-129399882D01*
X133827816Y-129561366D01*
X133802367Y-129688785D01*
X133781184Y-129786166D01*
X133763413Y-129857541D01*
X133748203Y-129906938D01*
X133734703Y-129938386D01*
X133722060Y-129955915D01*
X133716734Y-129960138D01*
X133647555Y-129988460D01*
X133539093Y-130014119D01*
X133402942Y-130036114D01*
X133250692Y-130053443D01*
X133093937Y-130065104D01*
X132944268Y-130070096D01*
X132813278Y-130067417D01*
X132712560Y-130056064D01*
X132684785Y-130049314D01*
X132531602Y-129979897D01*
X132400905Y-129875822D01*
X132303212Y-129746862D01*
X132263546Y-129657844D01*
X132239814Y-129538035D01*
X132233594Y-129400183D01*
X132693072Y-129400183D01*
X132696511Y-129458391D01*
X132707520Y-129509402D01*
X132709311Y-129515513D01*
X132753831Y-129600741D01*
X132829907Y-129657456D01*
X132941067Y-129686760D01*
X133090833Y-129689753D01*
X133224070Y-129676299D01*
X133336308Y-129660916D01*
X133441436Y-129059115D01*
X133470389Y-128890748D01*
X133495484Y-128739709D01*
X133515631Y-128612995D01*
X133529740Y-128517604D01*
X133536718Y-128460534D01*
X133536823Y-128447175D01*
X133508799Y-128442531D01*
X133441571Y-128438411D01*
X133346838Y-128435411D01*
X133286844Y-128434450D01*
X133168638Y-128434748D01*
X133088368Y-128440080D01*
X133033154Y-128452531D01*
X132990116Y-128474187D01*
X132974605Y-128485020D01*
X132909007Y-128545567D01*
X132855717Y-128624910D01*
X132811553Y-128730870D01*
X132773331Y-128871270D01*
X132737865Y-129053933D01*
X132734220Y-129075594D01*
X132711321Y-129219464D01*
X132697807Y-129324101D01*
X132693072Y-129400183D01*
X132233594Y-129400183D01*
X132232834Y-129383331D01*
X132241129Y-129206364D01*
X132263223Y-129019764D01*
X132297636Y-128836162D01*
X132342893Y-128668189D01*
X132395026Y-128533667D01*
X132487534Y-128373569D01*
X132598987Y-128251472D01*
X132741419Y-128154944D01*
X132782031Y-128133964D01*
X132854716Y-128099393D01*
X132915706Y-128075686D01*
X132977732Y-128060565D01*
X133053525Y-128051752D01*
X133155813Y-128046970D01*
X133283780Y-128044180D01*
X133615230Y-128038260D01*
X133672569Y-127726044D01*
X133695463Y-127603895D01*
X133716033Y-127498749D01*
X133732098Y-127421441D01*
X133741481Y-127382803D01*
X133741760Y-127382014D01*
X133771711Y-127365586D01*
X133837633Y-127354648D01*
X133925058Y-127349201D01*
X134019520Y-127349244D01*
G37*
G36*
X136092599Y-128071457D02*
G01*
X136144610Y-128079705D01*
X136153693Y-128084195D01*
X136148883Y-128111814D01*
X136124995Y-128179294D01*
X136084783Y-128280516D01*
X136031006Y-128409360D01*
X135966417Y-128559707D01*
X135893773Y-128725438D01*
X135815831Y-128900433D01*
X135735346Y-129078572D01*
X135655074Y-129253737D01*
X135577772Y-129419807D01*
X135506194Y-129570663D01*
X135443098Y-129700185D01*
X135391239Y-129802255D01*
X135353373Y-129870752D01*
X135339661Y-129891698D01*
X135246041Y-129978455D01*
X135123285Y-130039279D01*
X134986096Y-130071146D01*
X134849177Y-130071034D01*
X134727228Y-130035919D01*
X134702927Y-130022624D01*
X134635574Y-129965176D01*
X134584415Y-129894188D01*
X134581982Y-129889102D01*
X134568962Y-129841385D01*
X134553026Y-129752525D01*
X134534906Y-129629708D01*
X134515334Y-129480120D01*
X134495045Y-129310947D01*
X134474769Y-129129375D01*
X134455241Y-128942592D01*
X134437193Y-128757782D01*
X134421358Y-128582132D01*
X134408469Y-128422828D01*
X134399258Y-128287056D01*
X134394459Y-128182003D01*
X134394803Y-128114855D01*
X134398893Y-128093673D01*
X134434499Y-128075746D01*
X134508871Y-128067441D01*
X134627681Y-128068134D01*
X134630183Y-128068222D01*
X134835598Y-128075551D01*
X134852095Y-128177355D01*
X134857733Y-128229912D01*
X134865091Y-128325350D01*
X134873672Y-128455698D01*
X134882976Y-128612985D01*
X134892506Y-128789238D01*
X134900886Y-128957953D01*
X134910310Y-129139967D01*
X134920367Y-129306081D01*
X134930515Y-129449260D01*
X134940211Y-129562469D01*
X134948912Y-129638674D01*
X134955884Y-129670579D01*
X134969837Y-129683801D01*
X134986538Y-129681514D01*
X135007901Y-129659868D01*
X135035840Y-129615010D01*
X135072269Y-129543090D01*
X135119101Y-129440257D01*
X135178250Y-129302660D01*
X135251631Y-129126447D01*
X135341157Y-128907767D01*
X135369103Y-128839078D01*
X135679447Y-128075551D01*
X135904836Y-128068139D01*
X136008320Y-128067321D01*
X136092599Y-128071457D01*
G37*
G36*
X137499304Y-128042078D02*
G01*
X137678301Y-128063081D01*
X137841719Y-128094560D01*
X137922795Y-128116939D01*
X137986945Y-128150462D01*
X138005510Y-128193785D01*
X138001168Y-128235979D01*
X137988963Y-128319379D01*
X137970128Y-128437097D01*
X137945897Y-128582245D01*
X137917504Y-128747936D01*
X137886181Y-128927283D01*
X137853162Y-129113397D01*
X137819681Y-129299391D01*
X137786969Y-129478378D01*
X137756262Y-129643470D01*
X137728792Y-129787779D01*
X137705792Y-129904417D01*
X137688496Y-129986498D01*
X137678137Y-130027133D01*
X137676694Y-130030101D01*
X137643284Y-130038990D01*
X137573365Y-130043677D01*
X137481219Y-130043287D01*
X137468575Y-130042827D01*
X137372014Y-130037954D01*
X137315110Y-130030197D01*
X137286634Y-130015392D01*
X137275357Y-129989377D01*
X137272578Y-129970169D01*
X137264996Y-129905067D01*
X137097720Y-129989257D01*
X136994214Y-130036886D01*
X136908621Y-130062395D01*
X136816464Y-130071845D01*
X136761715Y-130072451D01*
X136657979Y-130065942D01*
X136560972Y-130050074D01*
X136503907Y-130032870D01*
X136364829Y-129945996D01*
X136257914Y-129822189D01*
X136186605Y-129666540D01*
X136157267Y-129520203D01*
X136156723Y-129478254D01*
X136633403Y-129478254D01*
X136648956Y-129555762D01*
X136681246Y-129612311D01*
X136731028Y-129654917D01*
X136745691Y-129663863D01*
X136818574Y-129682494D01*
X136922592Y-129678487D01*
X137044139Y-129653484D01*
X137157863Y-129614141D01*
X137241809Y-129572944D01*
X137287451Y-129532449D01*
X137304695Y-129491630D01*
X137313524Y-129446125D01*
X137329382Y-129359514D01*
X137350647Y-129240854D01*
X137375697Y-129099199D01*
X137402909Y-128943606D01*
X137404403Y-128935015D01*
X137489490Y-128445582D01*
X137403386Y-128429429D01*
X137330333Y-128422271D01*
X137231807Y-128420686D01*
X137157658Y-128423440D01*
X137034283Y-128440954D01*
X136935135Y-128479698D01*
X136856055Y-128545120D01*
X136792886Y-128642667D01*
X136741471Y-128777786D01*
X136697653Y-128955926D01*
X136679620Y-129049829D01*
X136649489Y-129232302D01*
X136633832Y-129372772D01*
X136633403Y-129478254D01*
X136156723Y-129478254D01*
X136155921Y-129416371D01*
X136167137Y-129278213D01*
X136188563Y-129120068D01*
X136217848Y-128956277D01*
X136252640Y-128801181D01*
X136290587Y-128669121D01*
X136302231Y-128636152D01*
X136400322Y-128442250D01*
X136537029Y-128281473D01*
X136712169Y-128153999D01*
X136886504Y-128073644D01*
X136998328Y-128047334D01*
X137146369Y-128033663D01*
X137317677Y-128032092D01*
X137499304Y-128042078D01*
G37*
G36*
X141571448Y-128042078D02*
G01*
X141750445Y-128063081D01*
X141913863Y-128094560D01*
X141994939Y-128116939D01*
X142059090Y-128150462D01*
X142077654Y-128193785D01*
X142073312Y-128235979D01*
X142061107Y-128319379D01*
X142042272Y-128437097D01*
X142018042Y-128582245D01*
X141989648Y-128747936D01*
X141958326Y-128927283D01*
X141925307Y-129113397D01*
X141891825Y-129299391D01*
X141859114Y-129478378D01*
X141828406Y-129643470D01*
X141800936Y-129787779D01*
X141777936Y-129904417D01*
X141760641Y-129986498D01*
X141750282Y-130027133D01*
X141748838Y-130030101D01*
X141715428Y-130038990D01*
X141645509Y-130043677D01*
X141553363Y-130043287D01*
X141540719Y-130042827D01*
X141444158Y-130037954D01*
X141387254Y-130030197D01*
X141358778Y-130015392D01*
X141347501Y-129989377D01*
X141344722Y-129970169D01*
X141337141Y-129905067D01*
X141169865Y-129989257D01*
X141066359Y-130036886D01*
X140980765Y-130062395D01*
X140888608Y-130071845D01*
X140833859Y-130072451D01*
X140730124Y-130065942D01*
X140633117Y-130050074D01*
X140576051Y-130032870D01*
X140436973Y-129945996D01*
X140330058Y-129822189D01*
X140258749Y-129666540D01*
X140229411Y-129520203D01*
X140228867Y-129478254D01*
X140705547Y-129478254D01*
X140721100Y-129555762D01*
X140753390Y-129612311D01*
X140803173Y-129654917D01*
X140817835Y-129663863D01*
X140890718Y-129682494D01*
X140994736Y-129678487D01*
X141116283Y-129653484D01*
X141230007Y-129614141D01*
X141313954Y-129572944D01*
X141359595Y-129532449D01*
X141376840Y-129491630D01*
X141385668Y-129446125D01*
X141401526Y-129359514D01*
X141422791Y-129240854D01*
X141447841Y-129099199D01*
X141475054Y-128943606D01*
X141476547Y-128935015D01*
X141561634Y-128445582D01*
X141475530Y-128429429D01*
X141402478Y-128422271D01*
X141303952Y-128420686D01*
X141229802Y-128423440D01*
X141106428Y-128440954D01*
X141007279Y-128479698D01*
X140928199Y-128545120D01*
X140865031Y-128642667D01*
X140813616Y-128777786D01*
X140769797Y-128955926D01*
X140751764Y-129049829D01*
X140721634Y-129232302D01*
X140705976Y-129372772D01*
X140705547Y-129478254D01*
X140228867Y-129478254D01*
X140228065Y-129416371D01*
X140239281Y-129278213D01*
X140260707Y-129120068D01*
X140289992Y-128956277D01*
X140324784Y-128801181D01*
X140362732Y-128669121D01*
X140374375Y-128636152D01*
X140472467Y-128442250D01*
X140609174Y-128281473D01*
X140784313Y-128153999D01*
X140958649Y-128073644D01*
X141070472Y-128047334D01*
X141218513Y-128033663D01*
X141389821Y-128032092D01*
X141571448Y-128042078D01*
G37*
G36*
X146808200Y-128069088D02*
G01*
X146963182Y-128127373D01*
X147086418Y-128220733D01*
X147183105Y-128352426D01*
X147216677Y-128419138D01*
X147254854Y-128552177D01*
X147268323Y-128717664D01*
X147259241Y-128904813D01*
X147229767Y-129102836D01*
X147182057Y-129300948D01*
X147118269Y-129488362D01*
X147040562Y-129654291D01*
X146951092Y-129787949D01*
X146940350Y-129800532D01*
X146873323Y-129861270D01*
X146780709Y-129926113D01*
X146694696Y-129974673D01*
X146604077Y-130015692D01*
X146523073Y-130041343D01*
X146432249Y-130056020D01*
X146312168Y-130064118D01*
X146296022Y-130064808D01*
X146137831Y-130065974D01*
X146022000Y-130054107D01*
X145964075Y-130038390D01*
X145799987Y-129956888D01*
X145674260Y-129848298D01*
X145586160Y-129710699D01*
X145534952Y-129542172D01*
X145519902Y-129340796D01*
X145521750Y-129319378D01*
X145992152Y-129319378D01*
X145995807Y-129439454D01*
X146016979Y-129523116D01*
X146060652Y-129583285D01*
X146107532Y-129618503D01*
X146202883Y-129653331D01*
X146318992Y-129660650D01*
X146434472Y-129641496D01*
X146526255Y-129598169D01*
X146601791Y-129522410D01*
X146664472Y-129413761D01*
X146716840Y-129266458D01*
X146761433Y-129074740D01*
X146764834Y-129056811D01*
X146791773Y-128891668D01*
X146801943Y-128765581D01*
X146794675Y-128669316D01*
X146769302Y-128593643D01*
X146726833Y-128531264D01*
X146645576Y-128472923D01*
X146541353Y-128449271D01*
X146426359Y-128458190D01*
X146312784Y-128497560D01*
X146212822Y-128565262D01*
X146156039Y-128630485D01*
X146121481Y-128701717D01*
X146085331Y-128809473D01*
X146050952Y-128939614D01*
X146021708Y-129078004D01*
X146000961Y-129210504D01*
X145992152Y-129319378D01*
X145521750Y-129319378D01*
X145540275Y-129104653D01*
X145561052Y-128985276D01*
X145609032Y-128778456D01*
X145665318Y-128611865D01*
X145734982Y-128474933D01*
X145823099Y-128357089D01*
X145900113Y-128278778D01*
X146056224Y-128159784D01*
X146225706Y-128082844D01*
X146417004Y-128045172D01*
X146616278Y-128042619D01*
X146808200Y-128069088D01*
G37*
G36*
X148311512Y-127354661D02*
G01*
X148374662Y-127361888D01*
X148399544Y-127371349D01*
X148400691Y-127403741D01*
X148393546Y-127474719D01*
X148379475Y-127572894D01*
X148365172Y-127657671D01*
X148344501Y-127774321D01*
X148326561Y-127877595D01*
X148313709Y-127953812D01*
X148309065Y-127983306D01*
X148300400Y-128043766D01*
X148556663Y-128039203D01*
X148758478Y-128045746D01*
X148920944Y-128074935D01*
X149051408Y-128129151D01*
X149157214Y-128210774D01*
X149187557Y-128243646D01*
X149256437Y-128340447D01*
X149300901Y-128446831D01*
X149323589Y-128574051D01*
X149327139Y-128733360D01*
X149323033Y-128821164D01*
X149293832Y-129104744D01*
X149243481Y-129345402D01*
X149170548Y-129547144D01*
X149073599Y-129713974D01*
X148956766Y-129844857D01*
X148830996Y-129942088D01*
X148694247Y-130009758D01*
X148536194Y-130051064D01*
X148346509Y-130069203D01*
X148227729Y-130070495D01*
X148112955Y-130068208D01*
X148013213Y-130064445D01*
X147942200Y-130059815D01*
X147918636Y-130056780D01*
X147869188Y-130046337D01*
X147787117Y-130029016D01*
X147689604Y-130008443D01*
X147683216Y-130007095D01*
X147588073Y-129985477D01*
X147532618Y-129966820D01*
X147506377Y-129945442D01*
X147498873Y-129915662D01*
X147498697Y-129907010D01*
X147503008Y-129869836D01*
X147515252Y-129789318D01*
X147534392Y-129671327D01*
X147542971Y-129619993D01*
X148017350Y-129619993D01*
X148021458Y-129651921D01*
X148063361Y-129669221D01*
X148089255Y-129673185D01*
X148280251Y-129686920D01*
X148427011Y-129675528D01*
X148463712Y-129666840D01*
X148559050Y-129626481D01*
X148637013Y-129561903D01*
X148700775Y-129467439D01*
X148753513Y-129337425D01*
X148798402Y-129166194D01*
X148826811Y-129019024D01*
X148849983Y-128878489D01*
X148863182Y-128776722D01*
X148867066Y-128702713D01*
X148862295Y-128645451D01*
X148851828Y-128601387D01*
X148811965Y-128517566D01*
X148747378Y-128462072D01*
X148651728Y-128432341D01*
X148518676Y-128425808D01*
X148430422Y-128430908D01*
X148223369Y-128448155D01*
X148126353Y-129012655D01*
X148097726Y-129178068D01*
X148071367Y-129328197D01*
X148048679Y-129455223D01*
X148031065Y-129551330D01*
X148019928Y-129608703D01*
X148017350Y-129619993D01*
X147542971Y-129619993D01*
X147559391Y-129521734D01*
X147589215Y-129346408D01*
X147622827Y-129151221D01*
X147659190Y-128942044D01*
X147697269Y-128724745D01*
X147736027Y-128505197D01*
X147774429Y-128289270D01*
X147811438Y-128082834D01*
X147846018Y-127891760D01*
X147877133Y-127721918D01*
X147903748Y-127579179D01*
X147924825Y-127469413D01*
X147939329Y-127398491D01*
X147946011Y-127372539D01*
X147976585Y-127361891D01*
X148043171Y-127354741D01*
X148131018Y-127351126D01*
X148225381Y-127351087D01*
X148311512Y-127354661D01*
G37*
G36*
X150880344Y-128069088D02*
G01*
X151035326Y-128127373D01*
X151158562Y-128220733D01*
X151255249Y-128352426D01*
X151288822Y-128419138D01*
X151326999Y-128552177D01*
X151340468Y-128717664D01*
X151331386Y-128904813D01*
X151301911Y-129102836D01*
X151254201Y-129300948D01*
X151190414Y-129488362D01*
X151112706Y-129654291D01*
X151023237Y-129787949D01*
X151012494Y-129800532D01*
X150945468Y-129861270D01*
X150852853Y-129926113D01*
X150766840Y-129974673D01*
X150676221Y-130015692D01*
X150595218Y-130041343D01*
X150504394Y-130056020D01*
X150384312Y-130064118D01*
X150368166Y-130064808D01*
X150209975Y-130065974D01*
X150094145Y-130054107D01*
X150036220Y-130038390D01*
X149872131Y-129956888D01*
X149746404Y-129848298D01*
X149658304Y-129710699D01*
X149607096Y-129542172D01*
X149592046Y-129340796D01*
X149593894Y-129319378D01*
X150064297Y-129319378D01*
X150067951Y-129439454D01*
X150089123Y-129523116D01*
X150132796Y-129583285D01*
X150179676Y-129618503D01*
X150275028Y-129653331D01*
X150391136Y-129660650D01*
X150506616Y-129641496D01*
X150598399Y-129598169D01*
X150673935Y-129522410D01*
X150736617Y-129413761D01*
X150788984Y-129266458D01*
X150833577Y-129074740D01*
X150836978Y-129056811D01*
X150863917Y-128891668D01*
X150874087Y-128765581D01*
X150866819Y-128669316D01*
X150841446Y-128593643D01*
X150798977Y-128531264D01*
X150717720Y-128472923D01*
X150613498Y-128449271D01*
X150498503Y-128458190D01*
X150384928Y-128497560D01*
X150284966Y-128565262D01*
X150228183Y-128630485D01*
X150193625Y-128701717D01*
X150157476Y-128809473D01*
X150123097Y-128939614D01*
X150093852Y-129078004D01*
X150073105Y-129210504D01*
X150064297Y-129319378D01*
X149593894Y-129319378D01*
X149612419Y-129104653D01*
X149633196Y-128985276D01*
X149681176Y-128778456D01*
X149737462Y-128611865D01*
X149807127Y-128474933D01*
X149895243Y-128357089D01*
X149972257Y-128278778D01*
X150128368Y-128159784D01*
X150297850Y-128082844D01*
X150489149Y-128045172D01*
X150688423Y-128042619D01*
X150880344Y-128069088D01*
G37*
G36*
X152639687Y-127652920D02*
G01*
X152655997Y-127658758D01*
X152672883Y-127705034D01*
X152665033Y-127777237D01*
X152646107Y-127872182D01*
X152628574Y-127967385D01*
X152612021Y-128062826D01*
X152789829Y-128062826D01*
X152880107Y-128065860D01*
X152948697Y-128073834D01*
X152981322Y-128085052D01*
X152981712Y-128085601D01*
X152986584Y-128126877D01*
X152978540Y-128197094D01*
X152961699Y-128277489D01*
X152940178Y-128349301D01*
X152918095Y-128393766D01*
X152913078Y-128398342D01*
X152872545Y-128408778D01*
X152798068Y-128416161D01*
X152715759Y-128418749D01*
X152549957Y-128419138D01*
X152441664Y-129034552D01*
X152412500Y-129205351D01*
X152387892Y-129359409D01*
X152368827Y-129489699D01*
X152356286Y-129589198D01*
X152351255Y-129650878D01*
X152352958Y-129668057D01*
X152387019Y-129679164D01*
X152455962Y-129689896D01*
X152531077Y-129696864D01*
X152616610Y-129704934D01*
X152680395Y-129715202D01*
X152706050Y-129724020D01*
X152709380Y-129755676D01*
X152701188Y-129820908D01*
X152687497Y-129886937D01*
X152666019Y-129964118D01*
X152638847Y-130015577D01*
X152596066Y-130046656D01*
X152527761Y-130062697D01*
X152424018Y-130069044D01*
X152347093Y-130070351D01*
X152198547Y-130062226D01*
X152082526Y-130032498D01*
X152062459Y-130023986D01*
X151996967Y-129988295D01*
X151946491Y-129944186D01*
X151910594Y-129886480D01*
X151888840Y-129809999D01*
X151880792Y-129709564D01*
X151886014Y-129579995D01*
X151904070Y-129416114D01*
X151934522Y-129212741D01*
X151974393Y-128979058D01*
X152071124Y-128431864D01*
X152005502Y-128414387D01*
X151938801Y-128398683D01*
X151852258Y-128380780D01*
X151825350Y-128375655D01*
X151755412Y-128360496D01*
X151722269Y-128339674D01*
X151712613Y-128298522D01*
X151712673Y-128251447D01*
X151717057Y-128160840D01*
X151732944Y-128105147D01*
X151770427Y-128075896D01*
X151839598Y-128064615D01*
X151937365Y-128062826D01*
X152037623Y-128062029D01*
X152098869Y-128053086D01*
X152132963Y-128026166D01*
X152151769Y-127971439D01*
X152167147Y-127879077D01*
X152168328Y-127871423D01*
X152183110Y-127798263D01*
X152199965Y-127744824D01*
X152203826Y-127737283D01*
X152238676Y-127716471D01*
X152308949Y-127694834D01*
X152399415Y-127675015D01*
X152494846Y-127659660D01*
X152580013Y-127651414D01*
X152639687Y-127652920D01*
G37*
G36*
X155248510Y-128043335D02*
G01*
X155372149Y-128056607D01*
X155465290Y-128078966D01*
X155502825Y-128097723D01*
X155525425Y-128120408D01*
X155533688Y-128153693D01*
X155528479Y-128211354D01*
X155514692Y-128286841D01*
X155494457Y-128368979D01*
X155472409Y-128427017D01*
X155455155Y-128447292D01*
X155419541Y-128447978D01*
X155344425Y-128447794D01*
X155241199Y-128446811D01*
X155133967Y-128445306D01*
X155005182Y-128444083D01*
X154915670Y-128446407D01*
X154853838Y-128453940D01*
X154808094Y-128468347D01*
X154766843Y-128491294D01*
X154753942Y-128499867D01*
X154680476Y-128566415D01*
X154619990Y-128660595D01*
X154569755Y-128788791D01*
X154527043Y-128957385D01*
X154502724Y-129087476D01*
X154477508Y-129261351D01*
X154468694Y-129394148D01*
X154476973Y-129493206D01*
X154503036Y-129565862D01*
X154547573Y-129619455D01*
X154553211Y-129624164D01*
X154583374Y-129643920D01*
X154622274Y-129656725D01*
X154679795Y-129663585D01*
X154765823Y-129665505D01*
X154890242Y-129663489D01*
X154929868Y-129662450D01*
X155248496Y-129653726D01*
X155244437Y-129739153D01*
X155233160Y-129866283D01*
X155211564Y-129951621D01*
X155176492Y-130003771D01*
X155138961Y-130026472D01*
X155079863Y-130039785D01*
X154984428Y-130050788D01*
X154866710Y-130058973D01*
X154740763Y-130063837D01*
X154620643Y-130064874D01*
X154520405Y-130061578D01*
X154454102Y-130053446D01*
X154446628Y-130051354D01*
X154276777Y-129972325D01*
X154146076Y-129860823D01*
X154055025Y-129717500D01*
X154004124Y-129543010D01*
X153994991Y-129462828D01*
X153996207Y-129322975D01*
X154014218Y-129152930D01*
X154045831Y-128969314D01*
X154087853Y-128788746D01*
X154137089Y-128627848D01*
X154172386Y-128539627D01*
X154277775Y-128363028D01*
X154414993Y-128219305D01*
X154577025Y-128115652D01*
X154592942Y-128108376D01*
X154689029Y-128078317D01*
X154814632Y-128056642D01*
X154957748Y-128043493D01*
X155106375Y-128039011D01*
X155248510Y-128043335D01*
G37*
G36*
X156698219Y-128040655D02*
G01*
X156928715Y-128066142D01*
X157047753Y-128086764D01*
X157123611Y-128110982D01*
X157163872Y-128146202D01*
X157176114Y-128199829D01*
X157167918Y-128279269D01*
X157164863Y-128296845D01*
X157148145Y-128375873D01*
X157131297Y-128433238D01*
X157122540Y-128450683D01*
X157091405Y-128455888D01*
X157020491Y-128455847D01*
X156920616Y-128450858D01*
X156812723Y-128442178D01*
X156624959Y-128428693D01*
X156480888Y-128428184D01*
X156374859Y-128441131D01*
X156301220Y-128468013D01*
X156273560Y-128487922D01*
X156238747Y-128529341D01*
X156229691Y-128572176D01*
X156249784Y-128620706D01*
X156302418Y-128679207D01*
X156390984Y-128751958D01*
X156518876Y-128843237D01*
X156597394Y-128896337D01*
X156727986Y-128986148D01*
X156822560Y-129058561D01*
X156889270Y-129121474D01*
X156936269Y-129182784D01*
X156971711Y-129250388D01*
X156977943Y-129264911D01*
X157015440Y-129416474D01*
X157006877Y-129569592D01*
X156956058Y-129715597D01*
X156866788Y-129845823D01*
X156742873Y-129951605D01*
X156655766Y-129998726D01*
X156587243Y-130025706D01*
X156517377Y-130043834D01*
X156432823Y-130055094D01*
X156320235Y-130061468D01*
X156215630Y-130064121D01*
X156077875Y-130064212D01*
X155941809Y-130060084D01*
X155825016Y-130052491D01*
X155757514Y-130044469D01*
X155649187Y-130022052D01*
X155583529Y-129992733D01*
X155552346Y-129947619D01*
X155547444Y-129877819D01*
X155553360Y-129822913D01*
X155569047Y-129744176D01*
X155589384Y-129686352D01*
X155600658Y-129670166D01*
X155639933Y-129661454D01*
X155725013Y-129659412D01*
X155851243Y-129664017D01*
X155973847Y-129672098D01*
X156118783Y-129682155D01*
X156223518Y-129686593D01*
X156298476Y-129685087D01*
X156354082Y-129677310D01*
X156400760Y-129662938D01*
X156411969Y-129658397D01*
X156492193Y-129605054D01*
X156527353Y-129535085D01*
X156514970Y-129455120D01*
X156498850Y-129425852D01*
X156462662Y-129388085D01*
X156393559Y-129330241D01*
X156301279Y-129260026D01*
X156195559Y-129185148D01*
X156189413Y-129180955D01*
X156046239Y-129079757D01*
X155940738Y-128994849D01*
X155865697Y-128918515D01*
X155813904Y-128843040D01*
X155778145Y-128760707D01*
X155768680Y-128730871D01*
X155751358Y-128650542D01*
X155752126Y-128571164D01*
X155769059Y-128476362D01*
X155825520Y-128329659D01*
X155922879Y-128212047D01*
X156059982Y-128123932D01*
X156235676Y-128065723D01*
X156448806Y-128037828D01*
X156698219Y-128040655D01*
G37*
G36*
X159539437Y-127407164D02*
G01*
X159696309Y-127417225D01*
X159835557Y-127433469D01*
X159947439Y-127455952D01*
X159982364Y-127466709D01*
X160110725Y-127534235D01*
X160247114Y-127649254D01*
X160253699Y-127655789D01*
X160342342Y-127756214D01*
X160407819Y-127861239D01*
X160451175Y-127977896D01*
X160473454Y-128113218D01*
X160475701Y-128274237D01*
X160458960Y-128467987D01*
X160424276Y-128701499D01*
X160416074Y-128749059D01*
X160383458Y-128930745D01*
X160355837Y-129071861D01*
X160330558Y-129182162D01*
X160304971Y-129271403D01*
X160276423Y-129349338D01*
X160242262Y-129425720D01*
X160219651Y-129471533D01*
X160095271Y-129663072D01*
X159933814Y-129821251D01*
X159738848Y-129943349D01*
X159513943Y-130026648D01*
X159480196Y-130035076D01*
X159386151Y-130049871D01*
X159254113Y-130060746D01*
X159096854Y-130067511D01*
X158927146Y-130069974D01*
X158757762Y-130067944D01*
X158601473Y-130061229D01*
X158475023Y-130050128D01*
X158394174Y-130035954D01*
X158333352Y-130017434D01*
X158314498Y-130006443D01*
X158310604Y-129982664D01*
X158314042Y-129924705D01*
X158325155Y-129830297D01*
X158344289Y-129697169D01*
X158360456Y-129594797D01*
X158859213Y-129594797D01*
X158860789Y-129621853D01*
X158891548Y-129637431D01*
X158961931Y-129646483D01*
X158969434Y-129647062D01*
X159225948Y-129642918D01*
X159403612Y-129610507D01*
X159516234Y-129561440D01*
X159629201Y-129477435D01*
X159727127Y-129371962D01*
X159787600Y-129274317D01*
X159815653Y-129196219D01*
X159846828Y-129079488D01*
X159878901Y-128936112D01*
X159909650Y-128778079D01*
X159936854Y-128617377D01*
X159958290Y-128465995D01*
X159971736Y-128335919D01*
X159975224Y-128262110D01*
X159963877Y-128112920D01*
X159924315Y-127998722D01*
X159852658Y-127916346D01*
X159745021Y-127862620D01*
X159597523Y-127834373D01*
X159443734Y-127828001D01*
X159336791Y-127830490D01*
X159249433Y-127836496D01*
X159193902Y-127844975D01*
X159181297Y-127850385D01*
X159172434Y-127879787D01*
X159156250Y-127953372D01*
X159133895Y-128065134D01*
X159106518Y-128209062D01*
X159075269Y-128379149D01*
X159041299Y-128569387D01*
X159016430Y-128711824D01*
X158981368Y-128913757D01*
X158948641Y-129100811D01*
X158919354Y-129266777D01*
X158894614Y-129405449D01*
X158875524Y-129510619D01*
X158863191Y-129576080D01*
X158859213Y-129594797D01*
X158360456Y-129594797D01*
X158371786Y-129523053D01*
X158407990Y-129305678D01*
X158453245Y-129042775D01*
X158505202Y-128747271D01*
X158556354Y-128459918D01*
X158599881Y-128218760D01*
X158636627Y-128019798D01*
X158667433Y-127859034D01*
X158693143Y-127732468D01*
X158714600Y-127636104D01*
X158732646Y-127565943D01*
X158748123Y-127517986D01*
X158761876Y-127488235D01*
X158773669Y-127473557D01*
X158831699Y-127447677D01*
X158930557Y-127427649D01*
X159060502Y-127413529D01*
X159211792Y-127405371D01*
X159374684Y-127403231D01*
X159539437Y-127407164D01*
G37*
G36*
X163452318Y-128071457D02*
G01*
X163504329Y-128079705D01*
X163513413Y-128084195D01*
X163508603Y-128111814D01*
X163484714Y-128179294D01*
X163444503Y-128280516D01*
X163390725Y-128409360D01*
X163326136Y-128559707D01*
X163253493Y-128725438D01*
X163175551Y-128900433D01*
X163095066Y-129078572D01*
X163014794Y-129253737D01*
X162937491Y-129419807D01*
X162865914Y-129570663D01*
X162802817Y-129700185D01*
X162750958Y-129802255D01*
X162713092Y-129870752D01*
X162699380Y-129891698D01*
X162605760Y-129978455D01*
X162483004Y-130039279D01*
X162345816Y-130071146D01*
X162208896Y-130071034D01*
X162086948Y-130035919D01*
X162062646Y-130022624D01*
X161995294Y-129965176D01*
X161944135Y-129894188D01*
X161941701Y-129889102D01*
X161928682Y-129841385D01*
X161912745Y-129752525D01*
X161894625Y-129629708D01*
X161875054Y-129480120D01*
X161854764Y-129310947D01*
X161834489Y-129129375D01*
X161814961Y-128942592D01*
X161796913Y-128757782D01*
X161781078Y-128582132D01*
X161768189Y-128422828D01*
X161758978Y-128287056D01*
X161754178Y-128182003D01*
X161754523Y-128114855D01*
X161758613Y-128093673D01*
X161794219Y-128075746D01*
X161868590Y-128067441D01*
X161987400Y-128068134D01*
X161989903Y-128068222D01*
X162195317Y-128075551D01*
X162211814Y-128177355D01*
X162217452Y-128229912D01*
X162224811Y-128325350D01*
X162233391Y-128455698D01*
X162242695Y-128612985D01*
X162252225Y-128789238D01*
X162260605Y-128957953D01*
X162270029Y-129139967D01*
X162280087Y-129306081D01*
X162290235Y-129449260D01*
X162299930Y-129562469D01*
X162308631Y-129638674D01*
X162315604Y-129670579D01*
X162329556Y-129683801D01*
X162346257Y-129681514D01*
X162367620Y-129659868D01*
X162395559Y-129615010D01*
X162431988Y-129543090D01*
X162478820Y-129440257D01*
X162537970Y-129302660D01*
X162611351Y-129126447D01*
X162700877Y-128907767D01*
X162728823Y-128839078D01*
X163039166Y-128075551D01*
X163264555Y-128068139D01*
X163368039Y-128067321D01*
X163452318Y-128071457D01*
G37*
G36*
X165580584Y-128040655D02*
G01*
X165811080Y-128066142D01*
X165930117Y-128086764D01*
X166005976Y-128110982D01*
X166046236Y-128146202D01*
X166058478Y-128199829D01*
X166050282Y-128279269D01*
X166047228Y-128296845D01*
X166030510Y-128375873D01*
X166013662Y-128433238D01*
X166004905Y-128450683D01*
X165973770Y-128455888D01*
X165902856Y-128455847D01*
X165802981Y-128450858D01*
X165695087Y-128442178D01*
X165507324Y-128428693D01*
X165363253Y-128428184D01*
X165257224Y-128441131D01*
X165183585Y-128468013D01*
X165155925Y-128487922D01*
X165121112Y-128529341D01*
X165112056Y-128572176D01*
X165132148Y-128620706D01*
X165184782Y-128679207D01*
X165273349Y-128751958D01*
X165401240Y-128843237D01*
X165479759Y-128896337D01*
X165610351Y-128986148D01*
X165704925Y-129058561D01*
X165771635Y-129121474D01*
X165818634Y-129182784D01*
X165854076Y-129250388D01*
X165860308Y-129264911D01*
X165897805Y-129416474D01*
X165889242Y-129569592D01*
X165838423Y-129715597D01*
X165749153Y-129845823D01*
X165625237Y-129951605D01*
X165538130Y-129998726D01*
X165469608Y-130025706D01*
X165399742Y-130043834D01*
X165315187Y-130055094D01*
X165202600Y-130061468D01*
X165097995Y-130064121D01*
X164960240Y-130064212D01*
X164824174Y-130060084D01*
X164707380Y-130052491D01*
X164639879Y-130044469D01*
X164531552Y-130022052D01*
X164465894Y-129992733D01*
X164434711Y-129947619D01*
X164429809Y-129877819D01*
X164435725Y-129822913D01*
X164451411Y-129744176D01*
X164471749Y-129686352D01*
X164483023Y-129670166D01*
X164522298Y-129661454D01*
X164607378Y-129659412D01*
X164733608Y-129664017D01*
X164856212Y-129672098D01*
X165001148Y-129682155D01*
X165105882Y-129686593D01*
X165180840Y-129685087D01*
X165236446Y-129677310D01*
X165283125Y-129662938D01*
X165294334Y-129658397D01*
X165374558Y-129605054D01*
X165409717Y-129535085D01*
X165397335Y-129455120D01*
X165381215Y-129425852D01*
X165345027Y-129388085D01*
X165275924Y-129330241D01*
X165183644Y-129260026D01*
X165077924Y-129185148D01*
X165071778Y-129180955D01*
X164928604Y-129079757D01*
X164823103Y-128994849D01*
X164748062Y-128918515D01*
X164696269Y-128843040D01*
X164660510Y-128760707D01*
X164651045Y-128730871D01*
X164633723Y-128650542D01*
X164634491Y-128571164D01*
X164651424Y-128476362D01*
X164707885Y-128329659D01*
X164805244Y-128212047D01*
X164942347Y-128123932D01*
X165118041Y-128065723D01*
X165331171Y-128037828D01*
X165580584Y-128040655D01*
G37*
G36*
X168492368Y-128069088D02*
G01*
X168647350Y-128127373D01*
X168770586Y-128220733D01*
X168867273Y-128352426D01*
X168900846Y-128419138D01*
X168939023Y-128552177D01*
X168952492Y-128717664D01*
X168943410Y-128904813D01*
X168913935Y-129102836D01*
X168866225Y-129300948D01*
X168802438Y-129488362D01*
X168724730Y-129654291D01*
X168635261Y-129787949D01*
X168624518Y-129800532D01*
X168557492Y-129861270D01*
X168464877Y-129926113D01*
X168378864Y-129974673D01*
X168288245Y-130015692D01*
X168207242Y-130041343D01*
X168116418Y-130056020D01*
X167996336Y-130064118D01*
X167980190Y-130064808D01*
X167821999Y-130065974D01*
X167706169Y-130054107D01*
X167648244Y-130038390D01*
X167484155Y-129956888D01*
X167358428Y-129848298D01*
X167270328Y-129710699D01*
X167219120Y-129542172D01*
X167204070Y-129340796D01*
X167205918Y-129319378D01*
X167676321Y-129319378D01*
X167679976Y-129439454D01*
X167701147Y-129523116D01*
X167744820Y-129583285D01*
X167791700Y-129618503D01*
X167887052Y-129653331D01*
X168003160Y-129660650D01*
X168118640Y-129641496D01*
X168210423Y-129598169D01*
X168285959Y-129522410D01*
X168348641Y-129413761D01*
X168401008Y-129266458D01*
X168445601Y-129074740D01*
X168449002Y-129056811D01*
X168475941Y-128891668D01*
X168486111Y-128765581D01*
X168478843Y-128669316D01*
X168453470Y-128593643D01*
X168411001Y-128531264D01*
X168329744Y-128472923D01*
X168225522Y-128449271D01*
X168110527Y-128458190D01*
X167996952Y-128497560D01*
X167896990Y-128565262D01*
X167840207Y-128630485D01*
X167805649Y-128701717D01*
X167769500Y-128809473D01*
X167735121Y-128939614D01*
X167705876Y-129078004D01*
X167685129Y-129210504D01*
X167676321Y-129319378D01*
X167205918Y-129319378D01*
X167224443Y-129104653D01*
X167245220Y-128985276D01*
X167293200Y-128778456D01*
X167349486Y-128611865D01*
X167419151Y-128474933D01*
X167507267Y-128357089D01*
X167584281Y-128278778D01*
X167740392Y-128159784D01*
X167909874Y-128082844D01*
X168101173Y-128045172D01*
X168300447Y-128042619D01*
X168492368Y-128069088D01*
G37*
G36*
X128598377Y-127428151D02*
G01*
X128678246Y-127435480D01*
X128732350Y-127447697D01*
X128746670Y-127458367D01*
X128744445Y-127489056D01*
X128733948Y-127564871D01*
X128716000Y-127680855D01*
X128691422Y-127832048D01*
X128661034Y-128013494D01*
X128625656Y-128220234D01*
X128586109Y-128447312D01*
X128543213Y-128689770D01*
X128538423Y-128716619D01*
X128485147Y-129013046D01*
X128439443Y-129262760D01*
X128400581Y-129469266D01*
X128367830Y-129636072D01*
X128340460Y-129766684D01*
X128317740Y-129864608D01*
X128298939Y-129933351D01*
X128283327Y-129976420D01*
X128271959Y-129995527D01*
X128244684Y-130019653D01*
X128208203Y-130035079D01*
X128151516Y-130043685D01*
X128063622Y-130047353D01*
X127965129Y-130047996D01*
X127842429Y-130046583D01*
X127760358Y-130041322D01*
X127708698Y-130030685D01*
X127677230Y-130013140D01*
X127667673Y-130003457D01*
X127651783Y-129969195D01*
X127623830Y-129891928D01*
X127585715Y-129777603D01*
X127539340Y-129632164D01*
X127486606Y-129461554D01*
X127429416Y-129271720D01*
X127380655Y-129106313D01*
X127321802Y-128905621D01*
X127266736Y-128719570D01*
X127217237Y-128554040D01*
X127175083Y-128414906D01*
X127142052Y-128308048D01*
X127119923Y-128239344D01*
X127111123Y-128215531D01*
X127092462Y-128190125D01*
X127079521Y-128211439D01*
X127078180Y-128215531D01*
X127071073Y-128249016D01*
X127056561Y-128326524D01*
X127035738Y-128441890D01*
X127009696Y-128588952D01*
X126979532Y-128761543D01*
X126946339Y-128953502D01*
X126922316Y-129093587D01*
X126887257Y-129296380D01*
X126853892Y-129484969D01*
X126823404Y-129653007D01*
X126796975Y-129794142D01*
X126775786Y-129902025D01*
X126761020Y-129970305D01*
X126755310Y-129990731D01*
X126738775Y-130020071D01*
X126711039Y-130037251D01*
X126660069Y-130045466D01*
X126573832Y-130047910D01*
X126539626Y-130047996D01*
X126434868Y-130045514D01*
X126371285Y-130036877D01*
X126339335Y-130020298D01*
X126332516Y-130009209D01*
X126333833Y-129977052D01*
X126343351Y-129899822D01*
X126360275Y-129782547D01*
X126383809Y-129630255D01*
X126413158Y-129447973D01*
X126447525Y-129240729D01*
X126486116Y-129013550D01*
X126528135Y-128771464D01*
X126530559Y-128757648D01*
X126584228Y-128454441D01*
X126630522Y-128198525D01*
X126670046Y-127986922D01*
X126703409Y-127816650D01*
X126731218Y-127684729D01*
X126754081Y-127588181D01*
X126772606Y-127524025D01*
X126787399Y-127489280D01*
X126789872Y-127485714D01*
X126815024Y-127458491D01*
X126846321Y-127441183D01*
X126894965Y-127431571D01*
X126972157Y-127427435D01*
X127088334Y-127426553D01*
X127204716Y-127427412D01*
X127280987Y-127431416D01*
X127327928Y-127440702D01*
X127356319Y-127457410D01*
X127376940Y-127483676D01*
X127377030Y-127483818D01*
X127392390Y-127520884D01*
X127419877Y-127600992D01*
X127457652Y-127718235D01*
X127503875Y-127866707D01*
X127556705Y-128040501D01*
X127614304Y-128233712D01*
X127672344Y-128431864D01*
X127749317Y-128695191D01*
X127813731Y-128911606D01*
X127866327Y-129083330D01*
X127907849Y-129212584D01*
X127939037Y-129301588D01*
X127960635Y-129352565D01*
X127973384Y-129367734D01*
X127978027Y-129349318D01*
X127978067Y-129346824D01*
X127982560Y-129311439D01*
X127995011Y-129233690D01*
X128014190Y-129120359D01*
X128038868Y-128978227D01*
X128067817Y-128814078D01*
X128099807Y-128634694D01*
X128133611Y-128446858D01*
X128167998Y-128257351D01*
X128201740Y-128072956D01*
X128233609Y-127900456D01*
X128262374Y-127746634D01*
X128286808Y-127618270D01*
X128305682Y-127522149D01*
X128317765Y-127465053D01*
X128321363Y-127452132D01*
X128354238Y-127437703D01*
X128421369Y-127429043D01*
X128507750Y-127425933D01*
X128598377Y-127428151D01*
G37*
G36*
X132142404Y-128029447D02*
G01*
X132166015Y-128049965D01*
X132172015Y-128094957D01*
X132165048Y-128161890D01*
X132143185Y-128286018D01*
X132115139Y-128367809D01*
X132073183Y-128415804D01*
X132009592Y-128438545D01*
X131916638Y-128444572D01*
X131909317Y-128444589D01*
X131836123Y-128453726D01*
X131742174Y-128477145D01*
X131683682Y-128496659D01*
X131600045Y-128532429D01*
X131553793Y-128566562D01*
X131532681Y-128608734D01*
X131530681Y-128617551D01*
X131522634Y-128660660D01*
X131507134Y-128746417D01*
X131485516Y-128867333D01*
X131459116Y-129015918D01*
X131429268Y-129184682D01*
X131400976Y-129345272D01*
X131369438Y-129522589D01*
X131340137Y-129683512D01*
X131314375Y-129821198D01*
X131293452Y-129928800D01*
X131278669Y-129999475D01*
X131271560Y-130026083D01*
X131241001Y-130036661D01*
X131174423Y-130043686D01*
X131086577Y-130047144D01*
X130992214Y-130047021D01*
X130906085Y-130043305D01*
X130842941Y-130035981D01*
X130818072Y-130026495D01*
X130819356Y-129997414D01*
X130828757Y-129923839D01*
X130845386Y-129811375D01*
X130868358Y-129665626D01*
X130896786Y-129492198D01*
X130929784Y-129296696D01*
X130966466Y-129084726D01*
X130972030Y-129052998D01*
X131019899Y-128783968D01*
X131060699Y-128562452D01*
X131095021Y-128385644D01*
X131123459Y-128250735D01*
X131146604Y-128154918D01*
X131165049Y-128095386D01*
X131179385Y-128069331D01*
X131179562Y-128069188D01*
X131226241Y-128052501D01*
X131305021Y-128041587D01*
X131397344Y-128037262D01*
X131484650Y-128040344D01*
X131548380Y-128051647D01*
X131551625Y-128052823D01*
X131585108Y-128088130D01*
X131591883Y-128118571D01*
X131599678Y-128155045D01*
X131610971Y-128159045D01*
X131731244Y-128105334D01*
X131857798Y-128062436D01*
X131977596Y-128033529D01*
X132077601Y-128021793D01*
X132142404Y-128029447D01*
G37*
G36*
X139666792Y-128056209D02*
G01*
X139799508Y-128124321D01*
X139899656Y-128228469D01*
X139964215Y-128366317D01*
X139990160Y-128535524D01*
X139990539Y-128559394D01*
X139986215Y-128617539D01*
X139974084Y-128713642D01*
X139955554Y-128839751D01*
X139932035Y-128987914D01*
X139904938Y-129150178D01*
X139875673Y-129318591D01*
X139845648Y-129485200D01*
X139816274Y-129642054D01*
X139788962Y-129781199D01*
X139765120Y-129894683D01*
X139746158Y-129974554D01*
X139733487Y-130012860D01*
X139732639Y-130014075D01*
X139695451Y-130030071D01*
X139624307Y-130041357D01*
X139534432Y-130047593D01*
X139441052Y-130048438D01*
X139359393Y-130043552D01*
X139304681Y-130032594D01*
X139291643Y-130023940D01*
X139291895Y-129993343D01*
X139300261Y-129919547D01*
X139315725Y-129809431D01*
X139337273Y-129669872D01*
X139363888Y-129507748D01*
X139391945Y-129344758D01*
X139430737Y-129122058D01*
X139460662Y-128943878D01*
X139482202Y-128804705D01*
X139495838Y-128699024D01*
X139502054Y-128621319D01*
X139501330Y-128566077D01*
X139494149Y-128527782D01*
X139480992Y-128500920D01*
X139467119Y-128484583D01*
X139409445Y-128456792D01*
X139317480Y-128444958D01*
X139205153Y-128448729D01*
X139086392Y-128467754D01*
X138988090Y-128496659D01*
X138904453Y-128532429D01*
X138858202Y-128566562D01*
X138837090Y-128608734D01*
X138835090Y-128617551D01*
X138827042Y-128660660D01*
X138811542Y-128746417D01*
X138789925Y-128867333D01*
X138763525Y-129015918D01*
X138733677Y-129184682D01*
X138705385Y-129345272D01*
X138673847Y-129522589D01*
X138644546Y-129683512D01*
X138618783Y-129821198D01*
X138597860Y-129928800D01*
X138583078Y-129999475D01*
X138575969Y-130026083D01*
X138545409Y-130036661D01*
X138478832Y-130043686D01*
X138390986Y-130047144D01*
X138296623Y-130047021D01*
X138210494Y-130043305D01*
X138147350Y-130035981D01*
X138122481Y-130026495D01*
X138123765Y-129997414D01*
X138133165Y-129923839D01*
X138149795Y-129811375D01*
X138172767Y-129665626D01*
X138201195Y-129492198D01*
X138234193Y-129296696D01*
X138270874Y-129084726D01*
X138276439Y-129052998D01*
X138324308Y-128783968D01*
X138365108Y-128562452D01*
X138399430Y-128385644D01*
X138427868Y-128250735D01*
X138451013Y-128154918D01*
X138469457Y-128095386D01*
X138483794Y-128069331D01*
X138483971Y-128069188D01*
X138530650Y-128052501D01*
X138609430Y-128041587D01*
X138701753Y-128037262D01*
X138789059Y-128040344D01*
X138852789Y-128051647D01*
X138856034Y-128052823D01*
X138889998Y-128088250D01*
X138896292Y-128116450D01*
X138897428Y-128147821D01*
X138908251Y-128160302D01*
X138939884Y-128153694D01*
X139003452Y-128127799D01*
X139035709Y-128113969D01*
X139128480Y-128081542D01*
X139241634Y-128051925D01*
X139315756Y-128037451D01*
X139504534Y-128026473D01*
X139666792Y-128056209D01*
G37*
G36*
X144567077Y-127409914D02*
G01*
X144769498Y-127436333D01*
X144935486Y-127482665D01*
X145070821Y-127550385D01*
X145153328Y-127613944D01*
X145247694Y-127732343D01*
X145305018Y-127875500D01*
X145327304Y-128035515D01*
X145316557Y-128204492D01*
X145274780Y-128374531D01*
X145203980Y-128537735D01*
X145106159Y-128686206D01*
X144983322Y-128812046D01*
X144837474Y-128907357D01*
X144823357Y-128914136D01*
X144705832Y-128968941D01*
X144893149Y-129476655D01*
X144948193Y-129628811D01*
X144995697Y-129765850D01*
X145033229Y-129880272D01*
X145058357Y-129964573D01*
X145068649Y-130011254D01*
X145068381Y-130017109D01*
X145047502Y-130032976D01*
X144994744Y-130041820D01*
X144903214Y-130044319D01*
X144809177Y-130042560D01*
X144562057Y-130035270D01*
X144386185Y-129547327D01*
X144210312Y-129059383D01*
X144028402Y-129050430D01*
X143938159Y-129046630D01*
X143870503Y-129044989D01*
X143838924Y-129045819D01*
X143838299Y-129046033D01*
X143831526Y-129071300D01*
X143817607Y-129138851D01*
X143798052Y-129240811D01*
X143774373Y-129369303D01*
X143748077Y-129516451D01*
X143747739Y-129518375D01*
X143720690Y-129667984D01*
X143695280Y-129801161D01*
X143673234Y-129909422D01*
X143656278Y-129984288D01*
X143646264Y-130017078D01*
X143607998Y-130034726D01*
X143519861Y-130045039D01*
X143399599Y-130047996D01*
X143172043Y-130047996D01*
X143172686Y-129978006D01*
X143177169Y-129939320D01*
X143189765Y-129855785D01*
X143209591Y-129732657D01*
X143235765Y-129575186D01*
X143267404Y-129388626D01*
X143303626Y-129178231D01*
X143343548Y-128949253D01*
X143384452Y-128717299D01*
X143407075Y-128591095D01*
X143915154Y-128591095D01*
X143930164Y-128618249D01*
X143970603Y-128633948D01*
X144043840Y-128640312D01*
X144157245Y-128639461D01*
X144220728Y-128637385D01*
X144353705Y-128628468D01*
X144453932Y-128610714D01*
X144539287Y-128580552D01*
X144564278Y-128568743D01*
X144686682Y-128484793D01*
X144767935Y-128372890D01*
X144811037Y-128228699D01*
X144813929Y-128207884D01*
X144820510Y-128086248D01*
X144802931Y-127993866D01*
X144756257Y-127926867D01*
X144675555Y-127881381D01*
X144555889Y-127853536D01*
X144392324Y-127839462D01*
X144341846Y-127837576D01*
X144045947Y-127828659D01*
X143988823Y-128155712D01*
X143966121Y-128284963D01*
X143945444Y-128401360D01*
X143928947Y-128492867D01*
X143918783Y-128547444D01*
X143918205Y-128550369D01*
X143915154Y-128591095D01*
X143407075Y-128591095D01*
X143441668Y-128398122D01*
X143491386Y-128128342D01*
X143533794Y-127907040D01*
X143569079Y-127733293D01*
X143597430Y-127606180D01*
X143619034Y-127524782D01*
X143634077Y-127488177D01*
X143634910Y-127487248D01*
X143690084Y-127458885D01*
X143790893Y-127435543D01*
X143932258Y-127417855D01*
X144109103Y-127406449D01*
X144316348Y-127401955D01*
X144322444Y-127401935D01*
X144567077Y-127409914D01*
G37*
G36*
X153673111Y-128063413D02*
G01*
X153737194Y-128067134D01*
X153770505Y-128076929D01*
X153783108Y-128095739D01*
X153785069Y-128126181D01*
X153780645Y-128169835D01*
X153768216Y-128255739D01*
X153749043Y-128376774D01*
X153724390Y-128525822D01*
X153695519Y-128695764D01*
X153663693Y-128879481D01*
X153630175Y-129069855D01*
X153596228Y-129259767D01*
X153563115Y-129442099D01*
X153532097Y-129609732D01*
X153504439Y-129755547D01*
X153481402Y-129872426D01*
X153464250Y-129953251D01*
X153454319Y-129990731D01*
X153437881Y-130019311D01*
X153410971Y-130036411D01*
X153361955Y-130044936D01*
X153279198Y-130047788D01*
X153224896Y-130047996D01*
X153116256Y-130045734D01*
X153049159Y-130037880D01*
X153014402Y-130022833D01*
X153005274Y-130009764D01*
X153006353Y-129977202D01*
X153015468Y-129901459D01*
X153031446Y-129789417D01*
X153053113Y-129647955D01*
X153079295Y-129483956D01*
X153108819Y-129304299D01*
X153140512Y-129115866D01*
X153173199Y-128925538D01*
X153205707Y-128740195D01*
X153236862Y-128566718D01*
X153265492Y-128411990D01*
X153290422Y-128282889D01*
X153310479Y-128186298D01*
X153324490Y-128129096D01*
X153327564Y-128120090D01*
X153343039Y-128092185D01*
X153368530Y-128075178D01*
X153415243Y-128066403D01*
X153494384Y-128063192D01*
X153568191Y-128062826D01*
X153673111Y-128063413D01*
G37*
G36*
X161308381Y-128063413D02*
G01*
X161372464Y-128067134D01*
X161405775Y-128076929D01*
X161418379Y-128095739D01*
X161420340Y-128126181D01*
X161415916Y-128169835D01*
X161403486Y-128255739D01*
X161384313Y-128376774D01*
X161359660Y-128525822D01*
X161330789Y-128695764D01*
X161298964Y-128879481D01*
X161265446Y-129069855D01*
X161231499Y-129259767D01*
X161198385Y-129442099D01*
X161167368Y-129609732D01*
X161139709Y-129755547D01*
X161116672Y-129872426D01*
X161099520Y-129953251D01*
X161089589Y-129990731D01*
X161073152Y-130019311D01*
X161046242Y-130036411D01*
X160997225Y-130044936D01*
X160914468Y-130047788D01*
X160860167Y-130047996D01*
X160751527Y-130045734D01*
X160684429Y-130037880D01*
X160649673Y-130022833D01*
X160640544Y-130009764D01*
X160641623Y-129977202D01*
X160650739Y-129901459D01*
X160666717Y-129789417D01*
X160688383Y-129647955D01*
X160714566Y-129483956D01*
X160744090Y-129304299D01*
X160775782Y-129115866D01*
X160808469Y-128925538D01*
X160840977Y-128740195D01*
X160872133Y-128566718D01*
X160900763Y-128411990D01*
X160925693Y-128282889D01*
X160945750Y-128186298D01*
X160959760Y-128129096D01*
X160962835Y-128120090D01*
X160978309Y-128092185D01*
X161003800Y-128075178D01*
X161050514Y-128066403D01*
X161129655Y-128063192D01*
X161203462Y-128062826D01*
X161308381Y-128063413D01*
G37*
G36*
X164209784Y-128063413D02*
G01*
X164273867Y-128067134D01*
X164307178Y-128076929D01*
X164319782Y-128095739D01*
X164321743Y-128126181D01*
X164317319Y-128169835D01*
X164304889Y-128255739D01*
X164285716Y-128376774D01*
X164261063Y-128525822D01*
X164232192Y-128695764D01*
X164200367Y-128879481D01*
X164166849Y-129069855D01*
X164132902Y-129259767D01*
X164099788Y-129442099D01*
X164068771Y-129609732D01*
X164041112Y-129755547D01*
X164018075Y-129872426D01*
X164000923Y-129953251D01*
X163990992Y-129990731D01*
X163974554Y-130019311D01*
X163947644Y-130036411D01*
X163898628Y-130044936D01*
X163815871Y-130047788D01*
X163761570Y-130047996D01*
X163652929Y-130045734D01*
X163585832Y-130037880D01*
X163551075Y-130022833D01*
X163541947Y-130009764D01*
X163543026Y-129977202D01*
X163552142Y-129901459D01*
X163568119Y-129789417D01*
X163589786Y-129647955D01*
X163615968Y-129483956D01*
X163645493Y-129304299D01*
X163677185Y-129115866D01*
X163709872Y-128925538D01*
X163742380Y-128740195D01*
X163773536Y-128566718D01*
X163802166Y-128411990D01*
X163827096Y-128282889D01*
X163847153Y-128186298D01*
X163861163Y-128129096D01*
X163864238Y-128120090D01*
X163879712Y-128092185D01*
X163905203Y-128075178D01*
X163951916Y-128066403D01*
X164031058Y-128063192D01*
X164104864Y-128062826D01*
X164209784Y-128063413D01*
G37*
G36*
X166882129Y-128063413D02*
G01*
X166946212Y-128067134D01*
X166979523Y-128076929D01*
X166992126Y-128095739D01*
X166994087Y-128126181D01*
X166989664Y-128169835D01*
X166977234Y-128255739D01*
X166958061Y-128376774D01*
X166933408Y-128525822D01*
X166904537Y-128695764D01*
X166872711Y-128879481D01*
X166839193Y-129069855D01*
X166805246Y-129259767D01*
X166772133Y-129442099D01*
X166741115Y-129609732D01*
X166713457Y-129755547D01*
X166690420Y-129872426D01*
X166673268Y-129953251D01*
X166663337Y-129990731D01*
X166646899Y-130019311D01*
X166619989Y-130036411D01*
X166570973Y-130044936D01*
X166488216Y-130047788D01*
X166433914Y-130047996D01*
X166325274Y-130045734D01*
X166258177Y-130037880D01*
X166223420Y-130022833D01*
X166214292Y-130009764D01*
X166215371Y-129977202D01*
X166224486Y-129901459D01*
X166240464Y-129789417D01*
X166262131Y-129647955D01*
X166288313Y-129483956D01*
X166317837Y-129304299D01*
X166349530Y-129115866D01*
X166382217Y-128925538D01*
X166414725Y-128740195D01*
X166445880Y-128566718D01*
X166474510Y-128411990D01*
X166499440Y-128282889D01*
X166519497Y-128186298D01*
X166533508Y-128129096D01*
X166536582Y-128120090D01*
X166552057Y-128092185D01*
X166577548Y-128075178D01*
X166624261Y-128066403D01*
X166703402Y-128063192D01*
X166777209Y-128062826D01*
X166882129Y-128063413D01*
G37*
G36*
X170716893Y-128056209D02*
G01*
X170849608Y-128124321D01*
X170949756Y-128228469D01*
X171014315Y-128366317D01*
X171040260Y-128535524D01*
X171040639Y-128559394D01*
X171036316Y-128617539D01*
X171024184Y-128713642D01*
X171005654Y-128839751D01*
X170982136Y-128987914D01*
X170955039Y-129150178D01*
X170925773Y-129318591D01*
X170895748Y-129485200D01*
X170866375Y-129642054D01*
X170839062Y-129781199D01*
X170815220Y-129894683D01*
X170796258Y-129974554D01*
X170783587Y-130012860D01*
X170782740Y-130014075D01*
X170745551Y-130030071D01*
X170674407Y-130041357D01*
X170584532Y-130047593D01*
X170491153Y-130048438D01*
X170409494Y-130043552D01*
X170354781Y-130032594D01*
X170341743Y-130023940D01*
X170341995Y-129993343D01*
X170350361Y-129919547D01*
X170365825Y-129809431D01*
X170387373Y-129669872D01*
X170413988Y-129507748D01*
X170442045Y-129344758D01*
X170480837Y-129122058D01*
X170510762Y-128943878D01*
X170532302Y-128804705D01*
X170545939Y-128699024D01*
X170552154Y-128621319D01*
X170551430Y-128566077D01*
X170544249Y-128527782D01*
X170531093Y-128500920D01*
X170517219Y-128484583D01*
X170459545Y-128456792D01*
X170367580Y-128444958D01*
X170255253Y-128448729D01*
X170136492Y-128467754D01*
X170038191Y-128496659D01*
X169954554Y-128532429D01*
X169908302Y-128566562D01*
X169887190Y-128608734D01*
X169885190Y-128617551D01*
X169877143Y-128660660D01*
X169861643Y-128746417D01*
X169840025Y-128867333D01*
X169813625Y-129015918D01*
X169783777Y-129184682D01*
X169755485Y-129345272D01*
X169723947Y-129522589D01*
X169694646Y-129683512D01*
X169668884Y-129821198D01*
X169647961Y-129928800D01*
X169633178Y-129999475D01*
X169626069Y-130026083D01*
X169595510Y-130036661D01*
X169528932Y-130043686D01*
X169441086Y-130047144D01*
X169346723Y-130047021D01*
X169260594Y-130043305D01*
X169197450Y-130035981D01*
X169172581Y-130026495D01*
X169173865Y-129997414D01*
X169183266Y-129923839D01*
X169199895Y-129811375D01*
X169222867Y-129665626D01*
X169251295Y-129492198D01*
X169284293Y-129296696D01*
X169320975Y-129084726D01*
X169326539Y-129052998D01*
X169374408Y-128783968D01*
X169415208Y-128562452D01*
X169449530Y-128385644D01*
X169477968Y-128250735D01*
X169501113Y-128154918D01*
X169519558Y-128095386D01*
X169533894Y-128069331D01*
X169534071Y-128069188D01*
X169580750Y-128052501D01*
X169659530Y-128041587D01*
X169751853Y-128037262D01*
X169839159Y-128040344D01*
X169902890Y-128051647D01*
X169906134Y-128052823D01*
X169940099Y-128088250D01*
X169946392Y-128116450D01*
X169947528Y-128147821D01*
X169958351Y-128160302D01*
X169989984Y-128153694D01*
X170053552Y-128127799D01*
X170085809Y-128113969D01*
X170178580Y-128081542D01*
X170291734Y-128051925D01*
X170365856Y-128037451D01*
X170554634Y-128026473D01*
X170716893Y-128056209D01*
G37*
G36*
X153838723Y-127327762D02*
G01*
X153900904Y-127336480D01*
X153923228Y-127347253D01*
X153926633Y-127384046D01*
X153920331Y-127454095D01*
X153906964Y-127541276D01*
X153889178Y-127629464D01*
X153869615Y-127702535D01*
X153861186Y-127725601D01*
X153845544Y-127753468D01*
X153819951Y-127770470D01*
X153773208Y-127779260D01*
X153694113Y-127782490D01*
X153619385Y-127782866D01*
X153504281Y-127780463D01*
X153432229Y-127772475D01*
X153395571Y-127757732D01*
X153388147Y-127747526D01*
X153385057Y-127701155D01*
X153392698Y-127623461D01*
X153407850Y-127532073D01*
X153427293Y-127444622D01*
X153447807Y-127378736D01*
X153459556Y-127356563D01*
X153495371Y-127342137D01*
X153565932Y-127331748D01*
X153656501Y-127325692D01*
X153752343Y-127324265D01*
X153838723Y-127327762D01*
G37*
G36*
X161473993Y-127327762D02*
G01*
X161536175Y-127336480D01*
X161558498Y-127347253D01*
X161561904Y-127384046D01*
X161555601Y-127454095D01*
X161542235Y-127541276D01*
X161524448Y-127629464D01*
X161504886Y-127702535D01*
X161496457Y-127725601D01*
X161480815Y-127753468D01*
X161455222Y-127770470D01*
X161408478Y-127779260D01*
X161329384Y-127782490D01*
X161254656Y-127782866D01*
X161139552Y-127780463D01*
X161067500Y-127772475D01*
X161030842Y-127757732D01*
X161023418Y-127747526D01*
X161020327Y-127701155D01*
X161027968Y-127623461D01*
X161043120Y-127532073D01*
X161062563Y-127444622D01*
X161083077Y-127378736D01*
X161094827Y-127356563D01*
X161130642Y-127342137D01*
X161201202Y-127331748D01*
X161291771Y-127325692D01*
X161387614Y-127324265D01*
X161473993Y-127327762D01*
G37*
G36*
X164375396Y-127327762D02*
G01*
X164437577Y-127336480D01*
X164459901Y-127347253D01*
X164463307Y-127384046D01*
X164457004Y-127454095D01*
X164443637Y-127541276D01*
X164425851Y-127629464D01*
X164406289Y-127702535D01*
X164397860Y-127725601D01*
X164382218Y-127753468D01*
X164356625Y-127770470D01*
X164309881Y-127779260D01*
X164230787Y-127782490D01*
X164156059Y-127782866D01*
X164040954Y-127780463D01*
X163968902Y-127772475D01*
X163932245Y-127757732D01*
X163924821Y-127747526D01*
X163921730Y-127701155D01*
X163929371Y-127623461D01*
X163944523Y-127532073D01*
X163963966Y-127444622D01*
X163984480Y-127378736D01*
X163996229Y-127356563D01*
X164032045Y-127342137D01*
X164102605Y-127331748D01*
X164193174Y-127325692D01*
X164289017Y-127324265D01*
X164375396Y-127327762D01*
G37*
G36*
X167047741Y-127327762D02*
G01*
X167109922Y-127336480D01*
X167132246Y-127347253D01*
X167135651Y-127384046D01*
X167129349Y-127454095D01*
X167115982Y-127541276D01*
X167098196Y-127629464D01*
X167078633Y-127702535D01*
X167070204Y-127725601D01*
X167054562Y-127753468D01*
X167028969Y-127770470D01*
X166982226Y-127779260D01*
X166903131Y-127782490D01*
X166828403Y-127782866D01*
X166713299Y-127780463D01*
X166641247Y-127772475D01*
X166604589Y-127757732D01*
X166597165Y-127747526D01*
X166594075Y-127701155D01*
X166601716Y-127623461D01*
X166616868Y-127532073D01*
X166636311Y-127444622D01*
X166656825Y-127378736D01*
X166668574Y-127356563D01*
X166704389Y-127342137D01*
X166774950Y-127331748D01*
X166865519Y-127325692D01*
X166961361Y-127324265D01*
X167047741Y-127327762D01*
G37*
G36*
X121452385Y-128021141D02*
G01*
X121519381Y-128045223D01*
X121606382Y-128078817D01*
X121700124Y-128116572D01*
X121787342Y-128153134D01*
X121854773Y-128183150D01*
X121889153Y-128201269D01*
X121890292Y-128202250D01*
X121889228Y-128232434D01*
X121859129Y-128278536D01*
X121811666Y-128325911D01*
X121768344Y-128355248D01*
X121673182Y-128388617D01*
X121582935Y-128380794D01*
X121548655Y-128368744D01*
X121467966Y-128311190D01*
X121410122Y-128221709D01*
X121394116Y-128152275D01*
X121462424Y-128152275D01*
X121485223Y-128211505D01*
X121543089Y-128261029D01*
X121620223Y-128289200D01*
X121651804Y-128291884D01*
X121714840Y-128285621D01*
X121752347Y-128270328D01*
X121754023Y-128268191D01*
X121760289Y-128250939D01*
X121748899Y-128234851D01*
X121711091Y-128214339D01*
X121638103Y-128183816D01*
X121594729Y-128166620D01*
X121518478Y-128138665D01*
X121478133Y-128131021D01*
X121463427Y-128142575D01*
X121462424Y-128152275D01*
X121394116Y-128152275D01*
X121386191Y-128117897D01*
X121386071Y-128110295D01*
X121393945Y-128039359D01*
X121416408Y-128012065D01*
X121418658Y-128011924D01*
X121452385Y-128021141D01*
G37*
D10*
%TO.C,C1*%
X141230000Y-124400000D02*
X136230000Y-124400000D01*
X141230000Y-103600000D02*
X141230000Y-124400000D01*
X136230000Y-124400000D02*
X136230000Y-103600000D01*
X136230000Y-103600000D02*
X141230000Y-103600000D01*
X111230000Y-124400000D02*
X106230000Y-124400000D01*
X111230000Y-103600000D02*
X111230000Y-124400000D01*
X106230000Y-124400000D02*
X106230000Y-103600000D01*
X106230000Y-103600000D02*
X111230000Y-103600000D01*
%TO.C,U2*%
X180890000Y-87840000D02*
X183390000Y-87840000D01*
X183390000Y-108160000D01*
X180890000Y-108160000D01*
X180890000Y-87840000D01*
X165650000Y-87840000D02*
X168150000Y-87840000D01*
X168150000Y-108160000D01*
X165650000Y-108160000D01*
X165650000Y-87840000D01*
D15*
%TO.C,A1*%
X161900000Y-121920000D02*
X161900000Y-78480000D01*
X161900000Y-121920000D02*
X156820000Y-121920000D01*
X161900000Y-78480000D02*
X143860000Y-78480000D01*
X159230000Y-119250000D02*
X161900000Y-119250000D01*
X159230000Y-81150000D02*
X161900000Y-81150000D01*
X159230000Y-81150000D02*
X159230000Y-119250000D01*
X156820000Y-124460000D02*
X148940000Y-124460000D01*
X156820000Y-114040000D02*
X156820000Y-124460000D01*
X148940000Y-124460000D02*
X148940000Y-114040000D01*
X148940000Y-114040000D02*
X156820000Y-114040000D01*
X146530000Y-119250000D02*
X143860000Y-119250000D01*
X146530000Y-83690000D02*
X146530000Y-119250000D01*
X146530000Y-83690000D02*
X146530000Y-81150000D01*
X146530000Y-83690000D02*
X143860000Y-83690000D01*
X146530000Y-81150000D02*
X143860000Y-81150000D01*
X143860000Y-121920000D02*
X148940000Y-121920000D01*
X143860000Y-83690000D02*
X143860000Y-121920000D01*
X143860000Y-78480000D02*
X143860000Y-81150000D01*
%TO.C,M2*%
D10*
X120550000Y-71550000D02*
X130550000Y-71550000D01*
X130550000Y-77350000D01*
X120550000Y-77350000D01*
X120550000Y-71550000D01*
%TO.C,U5*%
X164850000Y-78450000D02*
X177350000Y-78450000D01*
X177350000Y-84250000D01*
X164850000Y-84250000D01*
X164850000Y-78450000D01*
%TD*%
%LPC*%
D16*
%TO.C,U4*%
X174910000Y-75050000D03*
X172370000Y-75050000D03*
X169830000Y-75050000D03*
X167290000Y-75050000D03*
%TD*%
%TO.C,BT1*%
X117470000Y-75050000D03*
X114930000Y-75050000D03*
%TD*%
%TO.C,U3*%
X143730000Y-75050000D03*
X141190000Y-75050000D03*
X138650000Y-75050000D03*
X136110000Y-75050000D03*
X133570000Y-75050000D03*
%TD*%
%TO.C,M1*%
X161850000Y-75050000D03*
X159310000Y-75050000D03*
X156770000Y-75050000D03*
X154230000Y-75050000D03*
X151690000Y-75050000D03*
X149150000Y-75050000D03*
%TD*%
%TO.C,U1*%
X126270000Y-94000000D03*
X123730000Y-94000000D03*
X121190000Y-94000000D03*
%TD*%
%TO.C,SW1*%
X181000000Y-122080000D03*
X181000000Y-119540000D03*
X181000000Y-117000000D03*
%TD*%
%TO.C,B1*%
X172040000Y-110650000D03*
X166960000Y-110650000D03*
X166960000Y-123350000D03*
X172040000Y-123350000D03*
%TD*%
D17*
%TO.C,REF\u002A\u002A*%
X108500000Y-129000000D03*
%TD*%
D16*
%TO.C,C1*%
X137500000Y-122918000D03*
X137500000Y-120378000D03*
X137500000Y-117838000D03*
X137500000Y-115298000D03*
X137500000Y-112758000D03*
X137500000Y-110218000D03*
X137500000Y-107678000D03*
X137500000Y-105138000D03*
X140040000Y-105138000D03*
X140040000Y-107678000D03*
X140040000Y-110218000D03*
X140040000Y-112758000D03*
X140040000Y-115298000D03*
X140040000Y-117838000D03*
X140040000Y-120378000D03*
X140040000Y-122918000D03*
X110040000Y-105138000D03*
X110040000Y-107678000D03*
X110040000Y-110218000D03*
X110040000Y-112758000D03*
X110040000Y-115298000D03*
X110040000Y-117838000D03*
X110040000Y-120378000D03*
X110040000Y-122918000D03*
X107500000Y-122918000D03*
X107500000Y-120378000D03*
X107500000Y-117838000D03*
X107500000Y-115298000D03*
X107500000Y-112758000D03*
X107500000Y-110218000D03*
X107500000Y-107678000D03*
X107500000Y-105138000D03*
%TD*%
D17*
%TO.C,REF\u002A\u002A*%
X181500000Y-74000000D03*
%TD*%
%TO.C,REF\u002A\u002A*%
X181500000Y-129000000D03*
%TD*%
%TO.C,REF\u002A\u002A*%
X108500000Y-74000000D03*
%TD*%
D16*
%TO.C,U2*%
X182120000Y-89110000D03*
X182120000Y-91650000D03*
X182120000Y-94190000D03*
X182120000Y-96730000D03*
X182120000Y-99270000D03*
X182120000Y-101810000D03*
X182120000Y-104350000D03*
X182120000Y-106890000D03*
X166880000Y-106890000D03*
X166880000Y-104350000D03*
X166880000Y-101810000D03*
X166880000Y-99270000D03*
X166880000Y-96730000D03*
X166880000Y-94190000D03*
X166880000Y-91650000D03*
X166880000Y-89110000D03*
%TD*%
D18*
%TO.C,A1*%
X160500000Y-82420000D03*
X160500000Y-84960000D03*
X160500000Y-87500000D03*
X160500000Y-90040000D03*
X160500000Y-92580000D03*
X160500000Y-95120000D03*
X160500000Y-97660000D03*
X160500000Y-100200000D03*
X160500000Y-102740000D03*
X160500000Y-105280000D03*
X160500000Y-107820000D03*
X160500000Y-110360000D03*
X160500000Y-112900000D03*
X160500000Y-115440000D03*
X160500000Y-117980000D03*
X145260000Y-117980000D03*
X145260000Y-115440000D03*
X145260000Y-112900000D03*
X145260000Y-110360000D03*
X145260000Y-107820000D03*
X145260000Y-105280000D03*
X145260000Y-102740000D03*
X145260000Y-100200000D03*
X145260000Y-97660000D03*
X145260000Y-95120000D03*
X145260000Y-92580000D03*
X145260000Y-90040000D03*
X145260000Y-87500000D03*
X145260000Y-84960000D03*
D19*
X145260000Y-82420000D03*
%TD*%
D16*
%TO.C,M2*%
X128090000Y-75050000D03*
X125550000Y-75050000D03*
X123010000Y-75050000D03*
%TD*%
%TO.C,U5*%
X167290000Y-81950000D03*
X169830000Y-81950000D03*
X172370000Y-81950000D03*
X174910000Y-81950000D03*
%TD*%
%LPD*%
M02*
