M48
; DRILL file {KiCad 9.0.1} date 2025-05-12T19:07:47+0300
; FORMAT={-:-/ absolute / metric / decimal}
; #@! TF.CreationDate,2025-05-12T19:07:47+03:00
; #@! TF.GenerationSoftware,Kicad,Pcbnew,9.0.1
; #@! TF.FileFunction,Plated,1,2,PTH
FMAT,2
METRIC
; #@! TA.AperFunction,Plated,PTH,ComponentDrill
T1C1.000
%
G90
G05
T1
X107.5Y-105.138
X107.5Y-107.678
X107.5Y-110.218
X107.5Y-112.758
X107.5Y-115.298
X107.5Y-117.838
X107.5Y-120.378
X107.5Y-122.918
X110.04Y-105.138
X110.04Y-107.678
X110.04Y-110.218
X110.04Y-112.758
X110.04Y-115.298
X110.04Y-117.838
X110.04Y-120.378
X110.04Y-122.918
X114.93Y-75.05
X117.47Y-75.05
X121.19Y-94.0
X123.01Y-75.05
X123.73Y-94.0
X125.55Y-75.05
X126.27Y-94.0
X128.09Y-75.05
X133.57Y-75.05
X136.11Y-75.05
X137.5Y-105.138
X137.5Y-107.678
X137.5Y-110.218
X137.5Y-112.758
X137.5Y-115.298
X137.5Y-117.838
X137.5Y-120.378
X137.5Y-122.918
X138.65Y-75.05
X140.04Y-105.138
X140.04Y-107.678
X140.04Y-110.218
X140.04Y-112.758
X140.04Y-115.298
X140.04Y-117.838
X140.04Y-120.378
X140.04Y-122.918
X141.19Y-75.05
X143.73Y-75.05
X145.26Y-82.42
X145.26Y-84.96
X145.26Y-87.5
X145.26Y-90.04
X145.26Y-92.58
X145.26Y-95.12
X145.26Y-97.66
X145.26Y-100.2
X145.26Y-102.74
X145.26Y-105.28
X145.26Y-107.82
X145.26Y-110.36
X145.26Y-112.9
X145.26Y-115.44
X145.26Y-117.98
X149.15Y-75.05
X151.69Y-75.05
X154.23Y-75.05
X156.77Y-75.05
X159.31Y-75.05
X160.5Y-82.42
X160.5Y-84.96
X160.5Y-87.5
X160.5Y-90.04
X160.5Y-92.58
X160.5Y-95.12
X160.5Y-97.66
X160.5Y-100.2
X160.5Y-102.74
X160.5Y-105.28
X160.5Y-107.82
X160.5Y-110.36
X160.5Y-112.9
X160.5Y-115.44
X160.5Y-117.98
X161.85Y-75.05
X166.88Y-89.11
X166.88Y-91.65
X166.88Y-94.19
X166.88Y-96.73
X166.88Y-99.27
X166.88Y-101.81
X166.88Y-104.35
X166.88Y-106.89
X166.96Y-110.65
X166.96Y-123.35
X167.29Y-75.05
X167.29Y-81.95
X169.83Y-75.05
X169.83Y-81.95
X172.04Y-110.65
X172.04Y-123.35
X172.37Y-75.05
X172.37Y-81.95
X174.91Y-75.05
X174.91Y-81.95
X181.0Y-117.0
X181.0Y-119.54
X181.0Y-122.08
X182.12Y-89.11
X182.12Y-91.65
X182.12Y-94.19
X182.12Y-96.73
X182.12Y-99.27
X182.12Y-101.81
X182.12Y-104.35
X182.12Y-106.89
M30
